<svg width="24" height="24" viewBox="0 0 24 24" fill="none" xmlns="http://www.w3.org/2000/svg">
<path fill-rule="evenodd" clip-rule="evenodd" d="M12.4839 2C13.6169 2 19.5619 4.041 20.3489 4.828C21.0049 5.484 20.9949 6.014 20.9489 8.554C20.9309 9.572 20.9059 10.959 20.9059 12.879C20.9059 19.761 13.0359 22.223 12.7009 22.324C12.6299 22.346 12.5569 22.356 12.4839 22.356C12.4109 22.356 12.3379 22.346 12.2669 22.324C11.9319 22.223 4.06187 19.761 4.06187 12.879C4.06187 10.962 4.03687 9.575 4.01887 8.557C4.01065 8.10289 4.00359 7.71298 4.00126 7.37507L4.00098 6.99377C4.00955 5.74113 4.12712 5.32 4.61987 4.828C5.40487 4.041 11.3499 2 12.4839 2ZM12.4839 3.5C11.6359 3.5 6.28587 5.384 5.66887 5.899C5.48687 6.082 5.47987 6.4 5.51887 8.529C5.53687 9.555 5.56187 10.949 5.56187 12.879C5.56187 18.08 11.2839 20.389 12.4829 20.814C13.6809 20.387 19.4059 18.065 19.4059 12.879C19.4059 10.947 19.4309 9.552 19.4499 8.526C19.4879 6.399 19.4809 6.081 19.2879 5.889C18.6829 5.384 13.3319 3.5 12.4839 3.5ZM16.2054 9.3395C16.4984 9.6325 16.4984 10.1075 16.2054 10.4005L12.3074 14.2995C12.1954 14.4123 12.0507 14.4854 11.8955 14.5102L11.7774 14.5195C11.5784 14.5195 11.3874 14.4405 11.2464 14.2995L9.35437 12.4055C9.06237 12.1125 9.06237 11.6365 9.35537 11.3445C9.64737 11.0515 10.1234 11.0515 10.4164 11.3445L11.7774 12.7075L15.1454 9.3395C15.4384 9.0465 15.9124 9.0465 16.2054 9.3395Z" fill="#0D0140"/>
</svg>
