<svg width="32" height="32" viewBox="0 0 32 32" fill="none" xmlns="http://www.w3.org/2000/svg">
<path fill-rule="evenodd" clip-rule="evenodd" d="M28.3639 19.6469C28.9146 19.6882 29.3266 20.1695 29.2853 20.7202L29.0319 24.0655C28.8226 26.8256 26.4933 28.9869 23.7266 28.9869H8.25993C5.49326 28.9869 3.16393 26.8256 2.95459 24.0655L2.70126 20.7202C2.65993 20.1695 3.07326 19.6882 3.62393 19.6469C4.17726 19.6269 4.65459 20.0175 4.69726 20.5695L4.94926 23.9135C5.07993 25.6362 6.53326 26.9869 8.25993 26.9869H23.7266C25.4533 26.9869 26.9079 25.6362 27.0373 23.9135L27.2906 20.5695C27.3333 20.0175 27.8226 19.6255 28.3639 19.6469ZM17.7135 2.66675C19.7174 2.66675 21.3776 4.16843 21.6276 6.10545L24.2537 6.10661C27.0483 6.10661 29.3203 8.38528 29.3203 11.1879V15.7733C29.3203 16.1293 29.131 16.4573 28.8257 16.6359C25.5346 18.5633 21.3655 19.6874 16.993 19.8374L16.9935 22.2355C16.9935 22.7875 16.5455 23.2355 15.9935 23.2355C15.4415 23.2355 14.9935 22.7875 14.9935 22.2355L14.9927 19.8377C10.6246 19.6891 6.4552 18.5647 3.16166 16.6359C2.85499 16.4573 2.66699 16.1293 2.66699 15.7733V11.1746C2.66699 8.37995 4.94566 6.10661 7.74699 6.10661L10.3594 6.10545C10.6094 4.16843 12.2696 2.66675 14.2735 2.66675H17.7135ZM24.2537 8.10661H7.74699C6.04833 8.10661 4.66699 9.48261 4.66699 11.1746V15.1906C7.83194 16.9103 11.822 17.8528 15.975 17.8546L15.9935 17.8529L16.0083 17.8534L16.6432 17.8468C20.5709 17.7532 24.3178 16.8214 27.3203 15.1906V11.1879C27.3203 9.48795 25.9457 8.10661 24.2537 8.10661ZM17.7135 4.66675H14.2735C13.3757 4.66675 12.6179 5.27778 12.394 6.10579H19.5931C19.3692 5.27778 18.6113 4.66675 17.7135 4.66675Z" fill="#0D0140"/>
</svg>
