<svg width="24" height="24" viewBox="0 0 24 24" fill="none" xmlns="http://www.w3.org/2000/svg">
<path d="M8.53477 4.96997C8.32697 4.9654 8.12291 5.02564 7.95095 5.1424C7.77899 5.25917 7.64769 5.4267 7.5753 5.62154C7.50291 5.81638 7.49302 6.0289 7.54701 6.22962C7.60101 6.43034 7.7162 6.60917 7.87657 6.74139L13.9957 11.9836L7.87657 17.2239C7.76563 17.3054 7.67272 17.409 7.60366 17.5281C7.5346 17.6472 7.49088 17.7793 7.47523 17.9161C7.45958 18.0529 7.47234 18.1914 7.51272 18.323C7.55309 18.4546 7.62021 18.5765 7.70987 18.681C7.79952 18.7855 7.90979 18.8703 8.03375 18.9302C8.15772 18.9901 8.29272 19.0237 8.43029 19.029C8.56787 19.0343 8.70506 19.0112 8.83327 18.9611C8.96149 18.9109 9.07796 18.8348 9.1754 18.7375L16.1813 12.7433C16.2913 12.6494 16.3796 12.5329 16.4402 12.4016C16.5008 12.2702 16.5322 12.1273 16.5322 11.9826C16.5322 11.838 16.5008 11.6951 16.4402 11.5637C16.3796 11.4324 16.2913 11.3157 16.1813 11.2219L9.1754 5.22188C8.99842 5.06468 8.77142 4.97531 8.53477 4.96974V4.96997Z" fill="#0D0140"/>
</svg>
