<svg width="24" height="24" viewBox="0 0 24 24" fill="none" xmlns="http://www.w3.org/2000/svg">
<path d="M15.07 1.90912C17.78 1.90912 19.97 2.93048 20 5.52685V20.0168C20 20.1791 19.96 20.3414 19.88 20.4846C19.75 20.7137 19.53 20.8855 19.26 20.9618C19 21.0382 18.71 21 18.47 20.8664L11.99 17.7737L5.5 20.8664C5.351 20.9418 5.18 20.9905 5.01 20.9905C4.45 20.9905 4 20.5514 4 20.0168V5.52685C4 2.93048 6.2 1.90912 8.9 1.90912H15.07ZM15.75 7.67457H8.22C7.79 7.67457 7.44 8.00866 7.44 8.42866C7.44 8.84771 7.79 9.18275 8.22 9.18275H15.75C16.18 9.18275 16.53 8.84771 16.53 8.42866C16.53 8.00866 16.18 7.67457 15.75 7.67457Z" fill="#0D0140"/>
</svg>
