<svg width="24" height="24" viewBox="0 0 24 24" fill="none" xmlns="http://www.w3.org/2000/svg">
<path fill-rule="evenodd" clip-rule="evenodd" d="M12 24C18.6274 24 24 18.6274 24 12C24 5.37258 18.6274 0 12 0C5.37258 0 0 5.37258 0 12C0 18.6274 5.37258 24 12 24ZM17.1973 9.6137C17.4902 9.32081 17.4902 8.84594 17.1973 8.55304C16.9044 8.26015 16.4296 8.26015 16.1367 8.55304L10.8337 13.856L8.44732 11.4697C8.15443 11.1768 7.67956 11.1768 7.38666 11.4697C7.09377 11.7626 7.09377 12.2375 7.38666 12.5304L10.3033 15.447C10.444 15.5877 10.6347 15.6667 10.8337 15.6667C11.0326 15.6667 11.2233 15.5877 11.364 15.447L17.1973 9.6137Z" fill="#0D0140"/>
</svg>
