<svg width="24" height="24" viewBox="0 0 24 24" fill="none" xmlns="http://www.w3.org/2000/svg">
<g clip-path="url(#clip0_29223_2708)">
<path d="M17.9998 14.9999C17.7662 15.0004 17.5397 14.919 17.3598 14.7699L11.9998 10.2899L6.62982 14.6099C6.52753 14.693 6.40984 14.755 6.2835 14.7924C6.15716 14.8299 6.02467 14.842 5.89364 14.828C5.76261 14.8141 5.63563 14.7744 5.51999 14.7112C5.40435 14.6481 5.30234 14.5626 5.21982 14.4599C5.13675 14.3576 5.07472 14.2399 5.03729 14.1136C4.99986 13.9873 4.98777 13.8548 5.0017 13.7237C5.01564 13.5927 5.05534 13.4657 5.11852 13.3501C5.18169 13.2345 5.26709 13.1324 5.36982 13.0499L11.3698 8.21992C11.5488 8.07284 11.7732 7.99243 12.0048 7.99243C12.2364 7.99243 12.4609 8.07284 12.6398 8.21992L18.6398 13.2199C18.7411 13.3039 18.8248 13.407 18.8861 13.5233C18.9475 13.6397 18.9853 13.767 18.9974 13.8979C19.0094 14.0289 18.9956 14.161 18.9565 14.2866C18.9175 14.4122 18.854 14.5289 18.7698 14.6299C18.6768 14.7446 18.5595 14.8373 18.4263 14.9013C18.2932 14.9653 18.1475 14.9989 17.9998 14.9999Z" fill="#0D0140"/>
</g>
<defs>
<clipPath id="clip0_29223_2708">
<rect width="24" height="24" fill="white"/>
</clipPath>
</defs>
</svg>
