<svg width="22" height="30" viewBox="0 0 22 30" fill="none" xmlns="http://www.w3.org/2000/svg">
<path d="M0.101138 27.6864C-0.0006787 27.6213 -0.0324965 27.4911 0.0375026 27.3905C0.107502 27.2959 0.2475 27.2663 0.35568 27.3314C0.419316 27.3728 0.489315 27.4142 0.565678 27.4556C1.08749 27.7515 1.57748 27.8994 1.97839 27.8994C2.34111 27.8994 2.6402 27.7692 2.82474 27.5148C2.83747 27.4971 2.85019 27.4852 2.85019 27.4734C2.9011 27.3905 2.94565 27.3077 2.9711 27.2249C3.02201 27.0533 3.01565 26.8758 2.93928 26.716C2.86292 26.5444 2.70383 26.3846 2.46202 26.2485C2.30293 26.1598 2.09929 26.0769 1.85748 26.0118C1.24021 25.8521 0.788402 25.6213 0.540223 25.3195C0.272954 24.9823 0.253864 24.5799 0.540223 24.0888C0.73113 23.7633 1.11931 23.5621 1.61566 23.5266C2.04202 23.497 2.55747 23.5917 3.07928 23.8402C3.19383 23.8935 3.23837 24.0237 3.1811 24.1243C3.12383 24.2308 2.98383 24.2722 2.87565 24.2189C2.4302 24.0059 2.00384 23.929 1.65385 23.9527C1.31658 23.9763 1.05567 24.1006 0.947491 24.2959C0.756584 24.6213 0.756584 24.8757 0.915673 25.071C1.09385 25.2959 1.4693 25.4734 1.98475 25.6095C2.26475 25.6805 2.5002 25.7811 2.69747 25.8935C3.02201 26.0769 3.23837 26.3077 3.35291 26.5562C3.47382 26.8107 3.48655 27.0888 3.40382 27.3491C3.36564 27.4675 3.30837 27.5917 3.23201 27.7042C3.21292 27.7278 3.20019 27.7515 3.19383 27.7633C2.92019 28.142 2.48747 28.3314 1.96566 28.3314C1.48203 28.3314 0.915673 28.1657 0.317499 27.8284C0.260227 27.7811 0.183864 27.7397 0.101138 27.6864Z" fill="#EA501F"/>
<path d="M4.16689 23.7278C4.16689 23.6154 4.26871 23.5266 4.39598 23.5266C4.52325 23.5266 4.62507 23.6154 4.62507 23.7278V28.1242C4.62507 28.2367 4.52325 28.3254 4.39598 28.3254C4.26871 28.3254 4.16689 28.2367 4.16689 28.1242V23.7278Z" fill="#EA501F"/>
<path d="M4.63787 26.4675C4.55514 26.5562 4.41514 26.574 4.31333 26.497C4.21787 26.4201 4.19878 26.2899 4.28151 26.1953C4.6315 25.7988 5.02604 25.5562 5.41422 25.4497C5.69422 25.3728 5.96785 25.3669 6.2033 25.426C6.45148 25.4911 6.66784 25.6213 6.82057 25.8225C6.96693 26.0118 7.04965 26.2544 7.04965 26.5444V28.1183C7.04965 28.2367 6.94784 28.3314 6.82057 28.3314C6.69329 28.3314 6.59148 28.2367 6.59148 28.1183V26.5444C6.59148 26.3432 6.54057 26.1834 6.45148 26.0651C6.36239 25.9527 6.24148 25.8757 6.08876 25.8343C5.92967 25.7929 5.74513 25.7988 5.54786 25.8521C5.2424 25.9408 4.92423 26.142 4.63787 26.4675Z" fill="#EA501F"/>
<path d="M9.29674 25.3846C9.73582 25.3846 10.1304 25.5503 10.4167 25.8166C10.7031 26.0828 10.8813 26.4497 10.8813 26.858C10.8813 27.2663 10.7031 27.6331 10.4167 27.8994C10.1304 28.1657 9.73582 28.3314 9.29674 28.3314C8.85765 28.3314 8.46311 28.1657 8.17675 27.8994C7.89039 27.6331 7.71221 27.2663 7.71221 26.858C7.71221 26.4497 7.89039 26.0828 8.17675 25.8166C8.46311 25.5503 8.86401 25.3846 9.29674 25.3846ZM10.0985 26.1124C9.89491 25.9231 9.60855 25.8047 9.29674 25.8047C8.98492 25.8047 8.70493 25.9231 8.49493 26.1124C8.29129 26.3018 8.16402 26.5681 8.16402 26.858C8.16402 27.1479 8.29129 27.4142 8.49493 27.6036C8.69856 27.7929 8.98492 27.9113 9.29674 27.9113C9.60855 27.9113 9.88855 27.7929 10.0985 27.6036C10.3022 27.4142 10.4294 27.1479 10.4294 26.858C10.4294 26.5681 10.3022 26.3018 10.0985 26.1124Z" fill="#EA501F"/>
<path d="M11.5297 25.5976C11.5297 25.4793 11.6315 25.3846 11.7588 25.3846C11.8861 25.3846 11.9879 25.4793 11.9879 25.5976V25.8639C12.007 25.8462 12.0197 25.8284 12.0388 25.8166C12.3252 25.5503 12.7197 25.3846 13.1588 25.3846C13.5979 25.3846 13.9924 25.5503 14.2788 25.8166C14.5651 26.0828 14.7433 26.4497 14.7433 26.858C14.7433 27.2663 14.5651 27.6331 14.2788 27.8994C13.9924 28.1657 13.5979 28.3314 13.1588 28.3314C12.7197 28.3314 12.3252 28.1657 12.0388 27.8994C12.0197 27.8817 12.007 27.8639 11.9879 27.8521V29.787C11.9879 29.9053 11.8861 30 11.7588 30C11.6315 30 11.5297 29.9053 11.5297 29.787V25.5976ZM13.9542 26.1124C13.7506 25.9231 13.4642 25.8047 13.1524 25.8047C12.8406 25.8047 12.5606 25.9231 12.3506 26.1124C12.147 26.3018 12.0197 26.5681 12.0197 26.858C12.0197 27.1479 12.147 27.4142 12.3506 27.6036C12.5542 27.7929 12.8406 27.9113 13.1524 27.9113C13.4642 27.9113 13.7442 27.7929 13.9542 27.6036C14.1579 27.4142 14.2851 27.1479 14.2851 26.858C14.2851 26.5681 14.1579 26.3018 13.9542 26.1124Z" fill="#EA501F"/>
<path d="M16.8943 25.3846C17.2825 25.3846 17.6388 25.5266 17.8998 25.7752C18.1161 25.9763 18.2052 26.1775 18.2816 26.3905C18.4788 26.9882 18.1034 26.9645 17.9888 26.9645H15.8825C15.9016 27.1065 15.9398 27.2367 15.9843 27.355C16.067 27.5385 16.188 27.6746 16.3407 27.7692C16.4998 27.8639 16.7034 27.9113 16.9389 27.9113C17.1934 27.9113 17.4925 27.8462 17.8234 27.716C17.9379 27.6687 18.0716 27.7219 18.1225 27.8284C18.1734 27.9349 18.1161 28.0592 18.0016 28.1065C17.6198 28.2545 17.2634 28.3255 16.9452 28.3314C16.6207 28.3373 16.3343 28.2663 16.0989 28.1243C15.8634 27.9823 15.6598 27.787 15.5643 27.5148C15.348 26.9172 15.3416 26.3255 15.8889 25.7752C16.1434 25.5207 16.5061 25.3846 16.8943 25.3846ZM17.5816 26.0769C17.397 25.9113 17.1552 25.8107 16.8943 25.8107C16.6334 25.8107 16.3916 25.9113 16.207 26.0769C16.0734 26.2012 15.9652 26.355 15.908 26.5326H17.887C17.817 26.355 17.7152 26.2012 17.5816 26.0769Z" fill="#EA501F"/>
<path d="M20.3694 25.3846C20.7575 25.3846 21.1139 25.5266 21.3748 25.7752C21.5912 25.9763 21.6803 26.1775 21.7566 26.3905C21.9539 26.9882 21.5784 26.9645 21.4639 26.9645H19.3576C19.3766 27.1065 19.4148 27.2367 19.4594 27.355C19.5421 27.5385 19.663 27.6746 19.8157 27.7692C19.9748 27.8639 20.1785 27.9113 20.4139 27.9113C20.6684 27.9113 20.9675 27.8462 21.2984 27.716C21.413 27.6687 21.5466 27.7219 21.5975 27.8284C21.6484 27.9349 21.5912 28.0592 21.4766 28.1065C21.0948 28.2545 20.7384 28.3255 20.4203 28.3314C20.0957 28.3373 19.8094 28.2663 19.5739 28.1243C19.3385 27.9823 19.1348 27.787 19.0394 27.5148C18.823 26.9172 18.8167 26.3255 19.3639 25.7752C19.6185 25.5207 19.9812 25.3846 20.3694 25.3846ZM21.0566 26.0769C20.8721 25.9113 20.6303 25.8107 20.3694 25.8107C20.1085 25.8107 19.8666 25.9113 19.6821 26.0769C19.5485 26.2012 19.4403 26.355 19.383 26.5326H21.3621C21.2921 26.355 21.1903 26.2012 21.0566 26.0769Z" fill="#EA501F"/>
<path d="M1.71092 6.14794H6.50268C6.64904 4.63906 7.10086 3.28403 7.74994 2.23669C8.60902 0.852072 9.83082 0 11.2117 0C12.5926 0 13.808 0.857989 14.6735 2.23669C15.3226 3.27811 15.7744 4.63906 15.9207 6.14794H20.7061C21.2725 6.14794 21.7816 6.57989 21.737 7.10652L20.7761 19.574C20.6552 21.1361 19.5989 22.0296 18.0653 22.0296H4.35816C2.65273 22.0296 1.74911 20.9231 1.64729 19.574L0.680029 7.11243C0.641847 6.58581 1.14457 6.14794 1.71092 6.14794ZM7.69903 6.14794H14.7117C14.5717 4.84024 14.1835 3.68048 13.6299 2.7929C12.9935 1.7574 12.1281 1.11243 11.2117 1.11243C10.289 1.11243 9.42992 1.7574 8.78083 2.79882C8.22721 3.68048 7.84539 4.84616 7.69903 6.14794Z" fill="#EA501F"/>
<path d="M7.73107 17.6568C7.50835 17.5148 7.45107 17.2367 7.6038 17.0296C7.75652 16.8225 8.05561 16.7692 8.27833 16.9112C8.41833 17 8.56469 17.0887 8.72378 17.1775C9.84377 17.8106 10.8747 18.1242 11.7337 18.1242C12.5101 18.1242 13.1401 17.852 13.541 17.3017C13.5664 17.2603 13.5919 17.2367 13.5983 17.2189C13.7128 17.0473 13.7955 16.8639 13.8528 16.6864C13.9674 16.3195 13.9483 15.9408 13.7892 15.5976C13.6174 15.2366 13.2865 14.8875 12.771 14.5976C12.4274 14.4023 12.001 14.2307 11.4856 14.1006C10.1747 13.7574 9.20741 13.2722 8.6856 12.6213C8.11288 11.9053 8.06834 11.0414 8.67924 9.99404C9.08651 9.30173 9.92013 8.86978 10.9765 8.79286C11.8865 8.72777 12.981 8.92895 14.0946 9.45558C14.3364 9.568 14.4319 9.84019 14.3046 10.065C14.1773 10.2899 13.891 10.3787 13.6492 10.2603C12.701 9.81061 11.7974 9.63901 11.0465 9.69226C10.3274 9.74552 9.78013 10.0059 9.53832 10.4201C9.13105 11.1124 9.13741 11.6568 9.46832 12.071C9.85013 12.5503 10.6456 12.923 11.7528 13.213C12.351 13.3727 12.8601 13.5739 13.2801 13.8106C13.9737 14.2011 14.4383 14.6923 14.6864 15.2248C14.941 15.7751 14.9728 16.355 14.801 16.923C14.7246 17.1775 14.6037 17.4319 14.4383 17.6804C14.4001 17.7337 14.3746 17.7751 14.3555 17.8047C13.7637 18.6154 12.8537 19.0177 11.7465 19.0236C10.7092 19.0236 9.50014 18.6686 8.22743 17.9467C8.06834 17.8639 7.90289 17.7692 7.73107 17.6568Z" fill="white"/>
</svg>
