<svg width="32" height="32" viewBox="0 0 32 32" fill="none" xmlns="http://www.w3.org/2000/svg">
<path fill-rule="evenodd" clip-rule="evenodd" d="M26.453 24.2575C26.453 28.6521 20.4263 29.1601 15.8943 29.1601L15.57 29.1598C12.6826 29.1528 5.33301 28.9705 5.33301 24.2308C5.33301 19.9258 11.1175 19.3505 15.615 19.3288L16.2186 19.3284C19.1059 19.3354 26.453 19.5177 26.453 24.2575ZM15.8943 21.3281C10.213 21.3281 7.33301 22.3041 7.33301 24.2308C7.33301 26.1748 10.213 27.1601 15.8943 27.1601C21.5743 27.1601 24.453 26.1841 24.453 24.2575C24.453 22.3135 21.5743 21.3281 15.8943 21.3281ZM15.8943 2.66626C19.7983 2.66626 22.973 5.84226 22.973 9.74626C22.973 13.6503 19.7983 16.8249 15.8943 16.8249H15.8517C11.9557 16.8129 8.79967 13.6356 8.81297 9.74226C8.81297 5.84226 11.989 2.66626 15.8943 2.66626ZM15.8943 4.57026C13.0397 4.57026 10.717 6.89159 10.717 9.74626C10.7077 12.5916 13.013 14.9116 15.8557 14.9223L15.8943 15.8743V14.9223C18.7477 14.9223 21.069 12.5996 21.069 9.74626C21.069 6.89159 18.7477 4.57026 15.8943 4.57026Z" fill="#FE970F"/>
</svg>
