<svg width="40" height="40" viewBox="0 0 40 40" fill="none" xmlns="http://www.w3.org/2000/svg">
<g clip-path="url(#clip0_29432_1098)">
<g filter="url(#filter0_dd_29432_1098)">
<path d="M19.5092 0.118062C20.381 -0.373929 21.4452 0.767413 20.982 1.71005C20.713 2.47845 19.693 2.68278 19.172 2.09707C18.62 1.53495 18.8 0.423907 19.5092 0.118062ZM10.1322 1.212C10.6618 0.976071 11.3322 1.50118 11.2782 2.12585C11.3344 2.80399 10.5682 3.30313 10.0284 2.98083C9.31324 2.68105 9.39504 1.42456 10.1322 1.212ZM29.3374 2.99988C28.5098 2.89166 28.3788 1.48343 29.1756 1.19988C29.7936 0.87369 30.3606 1.48538 30.451 2.11936C30.3214 2.6607 29.9026 3.15637 29.3374 2.99988ZM12.2658 5.53127C13.1512 4.9252 14.4146 5.8278 14.2784 6.94079C14.2324 8.0646 12.8532 8.71568 12.075 7.95594C11.3226 7.35919 11.4366 5.99014 12.2658 5.53127ZM25.782 6.17434C26.177 5.07261 27.7776 5.03927 28.2272 6.11178C28.6716 6.94642 28.125 7.97997 27.3332 8.26373C26.2844 8.47564 25.2882 7.24858 25.782 6.17434ZM18.38 8.20118C18.3714 7.25421 19.1684 6.54858 20 6.48408C20.5516 6.60378 21.1528 6.85811 21.3894 7.46049C21.8304 8.29144 21.4388 9.43559 20.642 9.81698C20.2776 10.038 19.8468 9.95507 19.45 9.92932C18.8434 9.60702 18.3326 8.97499 18.38 8.20118ZM4.43504 9.58105C5.24384 9.04295 6.33504 10.025 6.02884 10.9759C5.86024 11.7984 4.83864 12.133 4.25464 11.6079C3.63124 11.1159 3.73004 9.933 4.43504 9.58105ZM34.38 9.57932C35.0662 9.00269 36.1986 9.66417 36.1168 10.6018C36.1628 11.4568 35.1838 12.1016 34.5026 11.6614C33.7524 11.2964 33.6758 10.0473 34.38 9.57932ZM22.3016 11.2817C23.434 10.8414 24.779 11.3683 25.4244 12.4609C26.2758 13.7966 25.8228 15.8308 24.5016 16.5973C23.1326 17.5038 21.1336 16.7354 20.628 15.0808C20.054 13.5997 20.8902 11.746 22.3016 11.2817ZM15.6576 11.4274C16.9126 10.7862 18.6016 11.3241 19.2078 12.7135C19.9212 14.0659 19.3696 15.949 18.0942 16.6473C16.8172 17.4321 15.0156 16.8371 14.3976 15.3852C13.7046 13.981 14.32 12.0739 15.6576 11.4274ZM9.00504 13.8888C9.10044 13.0137 9.86324 12.4443 10.6328 12.3854C11.462 12.4936 12.1244 13.1906 12.2146 14.0988C12.1602 14.9979 11.5182 15.8767 10.6378 15.8713C9.66924 15.9616 8.82004 14.9187 9.00504 13.8888ZM28.6546 12.5756C29.649 11.9492 31.0298 12.8611 30.9856 14.0975C31.0538 15.4075 29.5256 16.3306 28.5354 15.5622C27.5068 14.9224 27.587 13.1204 28.6546 12.5756ZM12.9538 17.1925C14.1168 16.8462 15.4466 17.4395 16.017 18.5964C16.6418 19.7609 16.3864 21.3787 15.416 22.2328C14.1714 23.4856 11.876 22.9826 11.2136 21.2728C10.4524 19.7055 11.377 17.6051 12.9538 17.1925ZM25.5556 17.186C26.6862 16.836 28.0144 17.3077 28.6222 18.4224C29.4258 19.6973 29.0422 21.5988 27.8458 22.4207C26.5926 23.375 24.6514 22.8739 23.9618 21.3817C23.1258 19.8382 23.967 17.6568 25.5556 17.186ZM5.47364 18.6406C6.47824 18.2293 7.59184 19.4291 7.18484 20.507C6.93624 21.4891 5.65744 21.852 4.99684 21.128C4.22384 20.4481 4.51004 18.9354 5.47364 18.6406ZM32.7036 20.2049C32.6746 19.304 33.2836 18.5062 34.1372 18.4564C34.8252 18.5743 35.4942 19.175 35.4398 19.9856C35.5028 21.0562 34.3108 21.7839 33.468 21.2808C33.073 21.0635 32.8704 20.625 32.7036 20.2049ZM0.534039 19.1694C1.13844 18.8839 1.88604 19.4507 1.74804 20.1772C1.71564 20.9997 0.593639 21.3159 0.181439 20.6287C-0.182761 20.1514 0.0352388 19.4155 0.534039 19.1694ZM38.6426 19.1529C39.0682 18.825 39.751 19.0607 39.9196 19.5988C40.2056 20.1865 39.6812 20.9917 39.07 20.8923C38.212 20.9769 37.9344 19.5618 38.6426 19.1529ZM16.2366 23.1012C17.827 22.6536 19.5366 24.0888 19.5466 25.8611C19.6504 27.652 17.9666 29.2401 16.3386 28.8265C15.0802 28.6072 14.0928 27.2953 14.1336 25.9191C14.1302 24.6029 15.048 23.3795 16.2366 23.1012ZM22.535 23.0975C24.1492 22.6092 25.9098 24.0702 25.8842 25.8834C25.9694 27.6412 24.3382 29.1759 22.7442 28.8272C21.2442 28.6172 20.1374 26.8336 20.5562 25.2583C20.7676 24.2085 21.578 23.3549 22.535 23.0975ZM10.3912 24.1884C11.5082 23.9821 12.5554 25.3308 12.1024 26.4787C11.772 27.7018 10.1272 28.0336 9.40004 27.0345C8.54704 26.075 9.18384 24.3209 10.3912 24.1884ZM28.8622 24.2423C29.8582 23.7908 31.0808 24.7233 31.0042 25.8932C31.0442 27.181 29.5348 28.0691 28.5608 27.3174C27.4576 26.6425 27.6584 24.6564 28.8622 24.2423ZM34.025 29.8466C33.635 29.0598 34.3434 28.017 35.1506 28.1626C35.5524 28.1553 35.8334 28.4979 36.0906 28.7854C36.1434 29.2516 36.232 29.8079 35.8744 30.1672C35.3888 30.8323 34.2888 30.6425 34.025 29.8466ZM4.43164 28.3817C5.18604 27.8382 6.27164 28.6488 6.10204 29.6033C6.01184 30.4475 5.02924 30.93 4.38204 30.451C3.68744 30.0161 3.71304 28.778 4.43164 28.3817ZM19.3356 30.1488C20.3232 29.6772 21.5814 30.6077 21.4878 31.7849C21.561 33.0858 20.0048 33.9867 19.0392 33.2055C17.9666 32.5347 18.1454 30.5613 19.3356 30.1488ZM12.4326 31.8917C13.2738 31.4126 14.4026 32.2399 14.326 33.2588C14.3516 34.0953 13.5972 34.8083 12.8344 34.6847C12.2026 34.67 11.7906 34.057 11.588 33.4741C11.5984 32.8388 11.84 32.1313 12.4326 31.8917ZM26.4154 31.9064C27.2804 31.3278 28.5098 32.1588 28.428 33.2484C28.4502 34.3871 27.0608 35.1165 26.2554 34.3685C25.4756 33.7821 25.5708 32.3726 26.4154 31.9064ZM28.847 38.4122C28.4622 37.7821 28.9152 37.023 29.54 36.8793C30.0424 36.9899 30.5736 37.3988 30.468 38.0291C30.3948 38.8821 29.242 39.1438 28.847 38.4122ZM9.54484 37.865C9.69804 37.3657 10.0692 36.8694 10.6124 36.9992C11.4042 37.0601 11.6392 38.3516 10.9462 38.7497C10.323 39.2044 9.60004 38.5817 9.54484 37.865ZM18.857 38.438C19.0086 37.6992 19.8922 37.3399 20.4746 37.7323C20.8594 37.9111 20.9718 38.3772 21.0706 38.7733C21.0178 38.9795 20.9706 39.186 20.9242 39.3923C20.6858 39.6981 20.3794 40.004 19.9826 39.993C19.2452 40.0865 18.58 39.1843 18.857 38.438Z" fill="#3CC8C8"/>
</g>
</g>
<defs>
<filter id="filter0_dd_29432_1098" x="-23" y="-12.0003" width="86" height="86" filterUnits="userSpaceOnUse" color-interpolation-filters="sRGB">
<feFlood flood-opacity="0" result="BackgroundImageFix"/>
<feColorMatrix in="SourceAlpha" type="matrix" values="0 0 0 0 0 0 0 0 0 0 0 0 0 0 0 0 0 0 127 0" result="hardAlpha"/>
<feOffset dy="11"/>
<feGaussianBlur stdDeviation="11.5"/>
<feComposite in2="hardAlpha" operator="out"/>
<feColorMatrix type="matrix" values="0 0 0 0 0.235294 0 0 0 0 0.784314 0 0 0 0 0.784314 0 0 0 0.13 0"/>
<feBlend mode="normal" in2="BackgroundImageFix" result="effect1_dropShadow_29432_1098"/>
<feColorMatrix in="SourceAlpha" type="matrix" values="0 0 0 0 0 0 0 0 0 0 0 0 0 0 0 0 0 0 127 0" result="hardAlpha"/>
<feOffset dy="4"/>
<feGaussianBlur stdDeviation="2"/>
<feComposite in2="hardAlpha" operator="out"/>
<feColorMatrix type="matrix" values="0 0 0 0 0 0 0 0 0 0 0 0 0 0 0 0 0 0 0.12 0"/>
<feBlend mode="normal" in2="effect1_dropShadow_29432_1098" result="effect2_dropShadow_29432_1098"/>
<feBlend mode="normal" in="SourceGraphic" in2="effect2_dropShadow_29432_1098" result="shape"/>
</filter>
<clipPath id="clip0_29432_1098">
<rect width="40" height="40" fill="white"/>
</clipPath>
</defs>
</svg>
