<svg width="24" height="24" viewBox="0 0 24 24" fill="none" xmlns="http://www.w3.org/2000/svg">
<path d="M11.7055 0.0710206C12.2286 -0.224174 12.8672 0.460631 12.5892 1.02622C12.4278 1.48725 11.8158 1.60985 11.5032 1.25842C11.172 0.921151 11.28 0.254527 11.7055 0.0710206ZM6.07935 0.727384C6.39711 0.585826 6.79935 0.900891 6.76695 1.2757C6.80067 1.68258 6.34095 1.98206 6.01707 1.78868C5.58795 1.60881 5.63703 0.854917 6.07935 0.727384ZM17.6025 1.80011C17.1059 1.73518 17.0273 0.890242 17.5054 0.720112C17.8762 0.524397 18.2164 0.89141 18.2706 1.2718C18.1929 1.59661 17.9416 1.89401 17.6025 1.80011ZM7.35951 3.31894C7.89075 2.95531 8.64879 3.49687 8.56707 4.16466C8.53947 4.83894 7.71195 5.22959 7.24503 4.77375C6.79359 4.4157 6.86199 3.59427 7.35951 3.31894ZM15.4692 3.70479C15.7062 3.04375 16.6666 3.02375 16.9364 3.66726C17.203 4.16803 16.875 4.78816 16.4 4.95842C15.7707 5.08557 15.173 4.34933 15.4692 3.70479ZM11.028 4.92089C11.0229 4.35271 11.5011 3.92933 12 3.89063C12.331 3.96245 12.6917 4.11505 12.8337 4.47648C13.0983 4.97505 12.8633 5.66154 12.3852 5.89037C12.1666 6.02297 11.9081 5.97323 11.67 5.95778C11.3061 5.7644 10.9996 5.38518 11.028 4.92089ZM2.66102 5.74881C3.1463 5.42596 3.80103 6.01518 3.61731 6.5857C3.51615 7.0792 2.90318 7.27998 2.55278 6.96492C2.17874 6.66972 2.23802 5.95998 2.66102 5.74881ZM20.628 5.74778C21.0398 5.4018 21.7192 5.79868 21.6701 6.36128C21.6977 6.87427 21.1103 7.26115 20.7016 6.997C20.2515 6.77804 20.2055 6.02855 20.628 5.74778ZM13.381 6.7692C14.0604 6.50505 14.8674 6.82115 15.2547 7.47674C15.7655 8.27817 15.4937 9.49869 14.701 9.95856C13.8796 10.5025 12.6802 10.0414 12.3768 9.04869C12.0324 8.15998 12.5341 7.04778 13.381 6.7692ZM9.39459 6.85661C10.1476 6.47193 11.161 6.79466 11.5247 7.6283C11.9528 8.43972 11.6218 9.56959 10.8566 9.98856C10.0903 10.4595 9.00939 10.1025 8.63859 9.23128C8.22279 8.38882 8.59203 7.24453 9.39459 6.85661ZM5.40303 8.33349C5.46027 7.80843 5.91795 7.46674 6.37971 7.43141C6.87723 7.49635 7.27467 7.91453 7.32879 8.45947C7.29615 8.99895 6.91095 9.52622 6.38271 9.52297C5.80155 9.57713 5.29203 8.95141 5.40303 8.33349ZM17.1928 7.54557C17.7894 7.16972 18.6179 7.71687 18.5914 8.45869C18.6323 9.24466 17.7154 9.79856 17.1213 9.33752C16.5041 8.95362 16.5522 7.87245 17.1928 7.54557ZM7.77231 10.3157C8.47011 10.1079 9.26799 10.4639 9.61023 11.158C9.98511 11.8567 9.83187 12.8274 9.24963 13.3399C8.50287 14.0915 7.12563 13.7897 6.72819 12.7639C6.27147 11.8235 6.82623 10.5632 7.77231 10.3157ZM15.3334 10.3118C16.0118 10.1018 16.8087 10.3848 17.1734 11.0536C17.6555 11.8186 17.4254 12.9595 16.7075 13.4526C15.9556 14.0252 14.7909 13.7245 14.3771 12.8292C13.8755 11.9031 14.3802 10.5943 15.3334 10.3118ZM3.28418 11.1845C3.88695 10.9378 4.55511 11.6576 4.31091 12.3044C4.16175 12.8936 3.39447 13.1114 2.9981 12.677C2.5343 12.2691 2.70602 11.3614 3.28418 11.1845ZM19.6222 12.1231C19.6048 11.5826 19.9702 11.1039 20.4824 11.074C20.8952 11.1448 21.2966 11.5052 21.2639 11.9915C21.3017 12.6339 20.5865 13.0705 20.0808 12.7687C19.8438 12.6383 19.7223 12.3752 19.6222 12.1231ZM0.320423 11.5018C0.683064 11.3305 1.13162 11.6706 1.04882 12.1065C1.02938 12.6 0.356183 12.7897 0.108863 12.3774C-0.109657 12.091 0.0211433 11.6495 0.320423 11.5018ZM23.1856 11.4919C23.441 11.2952 23.8506 11.4366 23.9518 11.7595C24.1234 12.1121 23.8088 12.5952 23.442 12.5356C22.9272 12.5863 22.7607 11.7373 23.1856 11.4919ZM9.74199 13.8609C10.6962 13.5923 11.722 14.4535 11.728 15.5169C11.7903 16.5914 10.78 17.5443 9.80319 17.2961C9.04815 17.1645 8.45571 16.3774 8.48019 15.5517C8.47815 14.7619 9.02883 14.0279 9.74199 13.8609ZM13.521 13.8587C14.4896 13.5657 15.5459 14.4423 15.5306 15.5302C15.5817 16.5849 14.603 17.5057 13.6466 17.2965C12.7466 17.1705 12.0825 16.1004 12.3338 15.1552C12.4606 14.5253 12.9468 14.0131 13.521 13.8587ZM6.23475 14.5132C6.90495 14.3895 7.53327 15.1987 7.26147 15.8874C7.06323 16.6213 6.07635 16.8204 5.64003 16.2209C5.12823 15.6452 5.51031 14.5927 6.23475 14.5132ZM17.3174 14.5456C17.915 14.2747 18.6485 14.8341 18.6026 15.5361C18.6266 16.3088 17.7209 16.8417 17.1365 16.3906C16.4746 15.9857 16.5951 14.794 17.3174 14.5456ZM20.415 17.9082C20.181 17.4361 20.6061 16.8104 21.0904 16.8978C21.3315 16.8934 21.5001 17.0989 21.6544 17.2714C21.6861 17.5512 21.7392 17.8849 21.5247 18.1005C21.2333 18.4996 20.5733 18.3857 20.415 17.9082ZM2.65898 17.0292C3.11163 16.7031 3.76299 17.1895 3.66123 17.7622C3.60711 18.2687 3.01754 18.5582 2.62922 18.2708C2.21246 18.0099 2.22782 17.267 2.65898 17.0292ZM11.6014 18.0895C12.194 17.8065 12.9489 18.3648 12.8927 19.0712C12.9366 19.8517 12.0029 20.3922 11.4236 19.9235C10.78 19.521 10.8873 18.337 11.6014 18.0895ZM7.45959 19.1352C7.96431 18.8478 8.64159 19.3441 8.59563 19.9554C8.61099 20.4574 8.15835 20.8852 7.70067 20.811C7.32159 20.8022 7.07439 20.4344 6.95283 20.0847C6.95907 19.7035 7.10403 19.2789 7.45959 19.1352ZM15.8493 19.144C16.3683 18.7969 17.1059 19.2954 17.0568 19.9492C17.0702 20.6325 16.2365 21.0701 15.7533 20.6213C15.2854 20.2695 15.3425 19.4238 15.8493 19.144ZM17.3082 23.0475C17.0774 22.6695 17.3492 22.214 17.724 22.1278C18.0255 22.1941 18.3442 22.4395 18.2808 22.8177C18.2369 23.3295 17.5452 23.4865 17.3082 23.0475ZM5.72691 22.7192C5.81883 22.4196 6.04155 22.1218 6.36747 22.1997C6.84255 22.2362 6.98355 23.0112 6.56775 23.25C6.19383 23.5228 5.76003 23.1492 5.72691 22.7192ZM11.3142 23.063C11.4052 22.6197 11.9353 22.4041 12.2848 22.6396C12.5157 22.7469 12.5831 23.0265 12.6424 23.2641C12.6107 23.3879 12.5824 23.5118 12.5545 23.6356C12.4115 23.8191 12.2277 24.0026 11.9896 23.996C11.5471 24.0521 11.148 23.5108 11.3142 23.063Z" fill="#3CC8C8"/>
</svg>
