<svg width="24" height="24" viewBox="0 0 24 24" fill="none" xmlns="http://www.w3.org/2000/svg">
<path fill-rule="evenodd" clip-rule="evenodd" d="M11.7484 1.00031C14.6214 1.00031 17.3214 2.11731 19.3494 4.14631C23.5414 8.33831 23.5414 15.1583 19.3494 19.3503C17.2944 21.4063 14.5274 22.4943 11.7244 22.4943C10.1964 22.4943 8.65844 22.1713 7.21944 21.5053C6.79544 21.3353 6.39844 21.1753 6.11344 21.1753C5.78544 21.1773 5.34444 21.3293 4.91844 21.4763C4.04444 21.7763 2.95644 22.1503 2.15144 21.3483C1.34944 20.5453 1.71944 19.4603 2.01744 18.5873C2.16444 18.1573 2.31544 17.7133 2.31544 17.3773C2.31544 17.1013 2.18244 16.7493 1.97844 16.2423C0.105437 12.1973 0.971437 7.32231 4.14844 4.14731C6.17644 2.11831 8.87544 1.00031 11.7484 1.00031ZM11.7494 2.50031C9.27644 2.50031 6.95344 3.46231 5.20844 5.20831C2.47444 7.94031 1.73044 12.1353 3.35544 15.6483C3.58944 16.2273 3.81544 16.7913 3.81544 17.3773C3.81544 17.9623 3.61444 18.5513 3.43744 19.0713C3.29144 19.4993 3.07044 20.1453 3.21244 20.2873C3.35144 20.4313 4.00144 20.2043 4.43044 20.0573C4.94544 19.8813 5.52944 19.6793 6.10844 19.6753C6.68844 19.6753 7.23544 19.8953 7.81444 20.1283C11.3614 21.7683 15.5564 21.0223 18.2894 18.2903C21.8954 14.6823 21.8954 8.81331 18.2894 5.20731C16.5434 3.46131 14.2214 2.50031 11.7494 2.50031ZM15.6963 11.163C16.2483 11.163 16.6963 11.61 16.6963 12.163C16.6963 12.716 16.2483 13.163 15.6963 13.163C15.1443 13.163 14.6923 12.716 14.6923 12.163C14.6923 11.61 15.1353 11.163 15.6873 11.163H15.6963ZM11.6875 11.163C12.2395 11.163 12.6875 11.61 12.6875 12.163C12.6875 12.716 12.2395 13.163 11.6875 13.163C11.1355 13.163 10.6835 12.716 10.6835 12.163C10.6835 11.61 11.1255 11.163 11.6785 11.163H11.6875ZM7.67834 11.163C8.23034 11.163 8.67834 11.61 8.67834 12.163C8.67834 12.716 8.23034 13.163 7.67834 13.163C7.12634 13.163 6.67434 12.716 6.67434 12.163C6.67434 11.61 7.11734 11.163 7.66934 11.163H7.67834Z" fill="#A3A2A7"/>
</svg>
