<svg width="32" height="22" viewBox="0 0 32 22" fill="none" xmlns="http://www.w3.org/2000/svg">
<path fill-rule="evenodd" clip-rule="evenodd" d="M0 21.3924L0.782271 18.7317H2.12945L2.46965 19.8687L3.44699 18.7264H4.87688L4.13273 21.39L3.05217 21.3937L3.44699 20.0196L2.19299 21.3937H1.66174L1.27473 19.9237L0.839788 21.3937L0 21.3924ZM9.51655 18.7259L12.8358 18.7317L12.6365 19.5909H11.4969L11.0287 21.3924L9.97825 21.3937L10.415 19.5985H9.29318L9.51655 18.7259ZM18.4192 18.7308V19.3495H18.4209L18.2916 19.8642H19.4295C19.4295 19.8642 19.7059 19.8163 19.7218 19.5641C19.7349 19.341 19.5271 19.3566 19.5271 19.3566L18.4194 19.3526V18.7315L20.1335 18.7306C20.1335 18.7306 20.8672 18.7861 20.7958 19.421C20.7223 20.0555 20.0479 20.2579 20.0479 20.2579C20.0479 20.2579 20.0069 20.2985 20.0388 20.3223C20.0706 20.3457 20.3226 20.3932 20.3544 20.6306C20.3863 20.8685 20.2717 21.0415 20.2717 21.1135C20.2717 21.1842 20.2791 21.3269 20.3694 21.39H19.2861C19.2861 21.39 19.0929 21.3603 19.1094 21.1608C19.1254 20.9635 19.1345 20.7898 19.1345 20.7898C19.1345 20.7898 19.1185 20.5827 18.828 20.6075L18.0359 20.5997L17.8103 21.3926H16.8167L17.5731 18.731H18.4192V18.7308ZM25.9427 18.7308H26.9593L26.4668 20.6612H28.1397L27.9455 21.3946H25.248L25.9427 18.7308ZM31.3901 18.7286L32 21.3937H30.9424L30.8305 20.9318L30.8267 20.9229H29.5453L29.5408 20.9269L29.2314 21.3924L28.3357 21.3937L30.1443 18.7286L30.4948 19.5142L29.9702 20.2909L29.9854 20.2965H30.6651L30.6773 20.2951L30.4948 19.5142L30.1443 18.7286H31.3901ZM7.24665 19.3207C7.56924 19.3207 7.88692 19.4803 7.93708 19.7119C8.09023 20.4527 7.30016 20.77 7.3929 20.7234C6.93834 20.9488 6.24769 20.8765 6.16654 20.4095C6.08963 19.9605 6.43629 19.5184 6.72811 19.413C6.92786 19.341 7.09261 19.3104 7.24665 19.3207L7.24888 19.3138L7.25267 18.6231C7.04378 18.6274 6.80859 18.6532 6.62311 18.6896C5.82657 18.8423 4.82271 19.5659 4.99949 20.482C5.14841 21.2562 6.19865 21.6717 7.37618 21.4441C8.48036 21.2321 9.20333 20.3819 9.04795 19.6277C8.89859 18.898 8.03428 18.6231 7.25267 18.6231V19.2204L7.24665 19.3207ZM14.9668 19.3207C15.289 19.3207 15.6077 19.4803 15.655 19.7119C15.8111 20.4527 15.0201 20.77 15.1144 20.7234C14.6592 20.9488 13.9679 20.8765 13.8874 20.4095C13.8094 19.9605 14.1562 19.5184 14.4487 19.413C14.6478 19.341 14.8148 19.3104 14.9668 19.3207L14.969 19.3138L14.9735 18.6231C14.7618 18.6282 14.5508 18.6505 14.3426 18.6896C13.5467 18.8423 12.5413 19.5659 12.7181 20.482C12.8668 21.2562 13.9197 21.6717 15.0952 21.4441C16.2005 21.2321 16.9246 20.3819 16.7686 19.6277C16.6187 18.898 15.7547 18.6231 14.9733 18.6231V19.2204L14.9668 19.3207ZM23.3598 19.3138C23.6819 19.3316 23.9976 19.4803 24.0469 19.7119C24.2009 20.4527 23.4106 20.77 23.5056 20.7234C23.0501 20.9488 22.359 20.8765 22.2781 20.4095C22.2005 19.9605 22.5463 19.5184 22.8395 19.413C23.0793 19.3258 23.173 19.3015 23.3598 19.3138L23.3643 18.6231C23.1525 18.6283 22.9415 18.6506 22.7334 18.6896C21.9388 18.8423 20.9343 19.5659 21.1102 20.482C21.2591 21.2562 22.3111 21.6717 23.4875 21.4441C24.5917 21.2321 25.3158 20.3819 25.1586 19.6277C25.0097 18.898 24.1454 18.6231 23.3643 18.6231V19.2204L23.3598 19.3138ZM16.0119 0C20.5025 0 24.0373 3.61686 24.0373 8.02224C24.0373 12.4537 20.4434 16.0451 16.0119 16.0451C11.5805 16.0451 7.98902 12.4537 7.98902 8.02224C7.98902 3.59078 11.5807 0 16.0119 0ZM15.9941 9.70427L13.7496 2.25831L10.8437 11.7916H11.389C11.389 11.7916 11.7561 10.1332 12.3509 9.14247C12.6757 8.60543 13.1758 8.16558 13.8446 8.17807C14.3159 8.18654 14.7234 8.44469 15.233 9.15585C15.5393 9.58366 16.011 10.672 16.011 10.672C16.011 10.672 16.4828 9.58522 16.7902 9.15585C17.2978 8.44469 17.7058 8.18654 18.1779 8.17807C18.8454 8.16536 19.3474 8.60543 19.6709 9.14337C20.267 10.133 20.6331 11.7914 20.6331 11.7914H21.1795L18.2718 2.25809L16.0273 9.70427L16.0121 9.71786L15.9941 9.70427Z" fill="#0D0140"/>
</svg>
