<svg width="24" height="24" viewBox="0 0 24 24" fill="none" xmlns="http://www.w3.org/2000/svg">
<g clip-path="url(#clip0_29223_4016)">
<path d="M12.0001 21.8498C11.6506 21.8553 11.3058 21.7691 11.0001 21.5998L10.7001 21.4298C8.36335 20.1077 6.41934 18.1892 5.06655 15.8702C3.71377 13.5511 3.00067 10.9146 3.00008 8.22978V8.08979C2.99691 7.73567 3.08782 7.38707 3.26351 7.0796C3.43921 6.77214 3.69339 6.51683 4.00008 6.33979L11.0001 2.39979C11.3041 2.22425 11.649 2.13184 12.0001 2.13184C12.3512 2.13184 12.696 2.22425 13.0001 2.39979L20.0001 6.33979C20.3068 6.51683 20.561 6.77214 20.7366 7.0796C20.9123 7.38707 21.0033 7.73567 21.0001 8.08979V8.22978C20.9975 10.9166 20.2814 13.5544 18.925 15.8737C17.5686 18.1929 15.6205 20.1103 13.2801 21.4298L12.9801 21.5998C12.6802 21.7657 12.3428 21.8518 12.0001 21.8498ZM12.0001 4.14979L5.00008 8.08979V8.22978C5.00176 10.5609 5.62308 12.8496 6.80038 14.8616C7.97769 16.8736 9.66866 18.5364 11.7001 19.6798L12.0001 19.8498L12.3001 19.6798C14.3315 18.5364 16.0225 16.8736 17.1998 14.8616C18.3771 12.8496 18.9984 10.5609 19.0001 8.22978V8.08979L12.0001 4.14979Z" fill="#0D0140"/>
</g>
<defs>
<clipPath id="clip0_29223_4016">
<rect width="24" height="24" fill="white"/>
</clipPath>
</defs>
</svg>
