<svg width="102" height="102" viewBox="0 0 102 102" fill="none" xmlns="http://www.w3.org/2000/svg">
<path d="M47.7701 45.8716C57.8788 45.8716 66.0735 37.6769 66.0735 27.5682C66.0735 17.4596 57.8788 9.26489 47.7701 9.26489C37.6615 9.26489 29.4668 17.4596 29.4668 27.5682C29.4668 37.6769 37.6615 45.8716 47.7701 45.8716Z" fill="white"/>
<path d="M59.5 79.3333H79.3333V83.2999H59.5V79.3333Z" fill="white"/>
<path d="M42.5002 84.9999V93.4999C42.5002 94.2514 42.7987 94.9721 43.3301 95.5034C43.8614 96.0348 44.5821 96.3333 45.3335 96.3333H93.5002C94.2516 96.3333 94.9723 96.0348 95.5037 95.5034C96.035 94.9721 96.3335 94.2514 96.3335 93.4999V65.1666C96.3335 64.4152 96.035 63.6945 95.5037 63.1631C94.9723 62.6318 94.2516 62.3333 93.5002 62.3333H73.6669V58.1683C73.6669 57.4168 73.3684 56.6962 72.837 56.1648C72.3056 55.6334 71.585 55.3349 70.8335 55.3349C70.0821 55.3349 69.3614 55.6334 68.8301 56.1648C68.2987 56.6962 68.0002 57.4168 68.0002 58.1683V62.3333H62.3335V52.1899C57.5188 51.4036 52.6487 51.0056 47.7702 50.9999C37.0115 50.9542 26.3733 53.2656 16.6035 57.7716C14.9956 58.5304 13.639 59.7346 12.6949 61.2412C11.7507 62.7478 11.2586 64.4937 11.2769 66.2716V84.9999H42.5002ZM90.6669 90.6666H48.1669V67.9999H68.0002V69.1899C68.0002 69.9414 68.2987 70.6621 68.8301 71.1934C69.3614 71.7248 70.0821 72.0233 70.8335 72.0233C71.585 72.0233 72.3056 71.7248 72.837 71.1934C73.3684 70.6621 73.6669 69.9414 73.6669 69.1899V67.9999H90.6669V90.6666Z" fill="white"/>
</svg>
