<svg width="24" height="24" viewBox="0 0 24 24" fill="none" xmlns="http://www.w3.org/2000/svg">
<g clip-path="url(#clip0_0_7)">
<path d="M18.5764 13.453C17.9162 10.1305 21.0698 8.18184 21.0698 8.18184C21.0698 8.18184 19.8411 6.4042 17.7761 5.94688C15.7121 5.48857 14.6792 6.06119 13.6482 6.49067C12.6162 6.92119 12.1012 6.92119 12.1012 6.92119C10.612 6.92119 9.52332 5.34437 6.68591 6.06224C4.73113 6.55555 2.67331 8.81214 2.30151 11.5054C1.92971 14.1997 2.73204 17.6376 4.27897 20.302C5.8259 22.9685 7.40172 23.9706 8.52018 23.9994C9.63868 24.0272 10.7551 23.1981 12.1012 22.9963C13.4484 22.7964 14.2775 23.4845 15.5988 23.8563C16.9151 24.2271 17.3765 23.8831 18.8925 22.5936C20.4127 21.3041 21.7887 17.6057 21.7887 17.6057C21.7887 17.6057 19.2365 16.7776 18.5764 13.453Z" fill="#0D0140"/>
<path d="M15.6533 3.79731C17.1157 2.30705 16.6204 0 16.6204 0C16.6204 0 14.5667 0.360484 13.1907 1.79206C11.8158 3.22469 12.0434 5.48743 12.0434 5.48743C12.0434 5.48743 14.1908 5.28661 15.6533 3.79731Z" fill="#0D0140"/>
</g>
<defs>
<clipPath id="clip0_0_7">
<rect width="24" height="24" fill="white"/>
</clipPath>
</defs>
</svg>
