<svg width="18" height="18" viewBox="0 0 18 18" fill="none" xmlns="http://www.w3.org/2000/svg">
<g clip-path="url(#clip0_29223_2417)">
<path d="M7.39482 13.5C7.29198 13.4997 7.19031 13.4782 7.09613 13.4369C7.00194 13.3956 6.91725 13.3354 6.84732 13.26L3.20232 9.38249C3.06607 9.23729 2.99307 9.0439 2.9994 8.84488C3.00573 8.64586 3.09086 8.4575 3.23607 8.32124C3.38128 8.18499 3.57466 8.112 3.77369 8.11833C3.97271 8.12466 4.16107 8.20979 4.29732 8.35499L7.38732 11.6475L13.6948 4.74749C13.7588 4.66779 13.8385 4.602 13.9288 4.55419C14.0192 4.50638 14.1184 4.47754 14.2203 4.46945C14.3222 4.46136 14.4247 4.4742 14.5214 4.50716C14.6182 4.54012 14.7072 4.59252 14.783 4.66113C14.8588 4.72974 14.9197 4.81312 14.9621 4.90615C15.0045 4.99918 15.0274 5.09989 15.0295 5.2021C15.0315 5.30431 15.0126 5.40585 14.974 5.5005C14.9354 5.59515 14.8778 5.6809 14.8048 5.75249L7.94982 13.2525C7.88055 13.3293 7.79616 13.3909 7.70194 13.4335C7.60772 13.4761 7.50571 13.4987 7.40232 13.5H7.39482Z" fill="white"/>
</g>
<defs>
<clipPath id="clip0_29223_2417">
<rect width="18" height="18" fill="white"/>
</clipPath>
</defs>
</svg>
