<svg width="83" height="82" viewBox="0 0 83 82" fill="none" xmlns="http://www.w3.org/2000/svg">
<path d="M39.9609 51.8692C39.9514 51.8692 39.9419 51.8692 39.9325 51.8692C38.1902 51.8534 36.7889 50.4284 36.8047 48.6846L36.8189 47.1065C36.8189 47.0165 36.8236 46.925 36.8331 46.835C37.2702 42.2443 40.3175 39.4306 42.7683 37.1691C43.5984 36.4022 44.3843 35.6778 45.0534 34.9219C45.8693 34.0019 47.0529 32.1176 45.8078 29.8436C44.3733 27.2176 40.8699 26.4743 38.1476 27.0977C35.3039 27.7478 34.256 30.1766 33.8836 31.5653C33.4322 33.2491 31.7011 34.2481 30.0172 33.7983C28.3334 33.347 27.3344 31.6158 27.7842 29.9319C29.042 25.2339 32.3055 21.9594 36.7368 20.9446C42.7005 19.5827 48.7068 21.9925 51.3438 26.8136C53.5389 30.8283 52.9377 35.539 49.7736 39.1086C48.8946 40.0997 47.9556 40.9676 47.0466 41.8056C44.782 43.8966 43.3664 45.2948 43.1266 47.3132L43.1139 48.7382C43.1013 50.4757 41.6905 51.8692 39.9609 51.8692Z" fill="#D13329"/>
<path d="M39.9595 61.3315C39.1389 61.3315 38.3183 61.0001 37.7344 60.4162C37.1347 59.8323 36.8033 59.0117 36.8033 58.1753C36.8033 57.3547 37.1347 56.534 37.7344 55.9501C38.9022 54.7823 41.0168 54.7823 42.1846 55.9501C42.7843 56.534 43.1157 57.3547 43.1157 58.1753C43.1157 59.0117 42.7843 59.8165 42.2004 60.4162C41.6007 61.0001 40.7959 61.3315 39.9595 61.3315Z" fill="#D13329"/>
<path d="M40.9111 82C37.3209 82 33.7623 81.5329 30.3331 80.6097C15.5557 76.6344 3.985 64.393 0.855617 49.4215C-2.33374 34.1692 3.5526 18.1356 15.8539 8.57385C22.9649 3.04574 31.9333 0 41.1084 0C47.4602 0 53.7679 1.47711 59.3513 4.26878C73.1392 11.1667 82.0476 25.5779 82.0476 40.985C82.0476 53.5562 76.1155 65.6729 66.1797 73.3961C59.0435 78.9448 50.0689 82 40.9111 82ZM41.1099 6.31243C33.3315 6.31243 25.7376 8.88474 19.7298 13.5575C9.319 21.65 4.33534 35.2202 7.03548 48.1291C9.68354 60.7934 19.4725 71.1505 31.9743 74.5134C34.8685 75.2914 37.8764 75.6876 40.9111 75.6876H40.9127C48.6738 75.6876 56.2708 73.1042 62.3071 68.4125C70.7168 61.876 75.7368 51.623 75.7368 40.985C75.7368 27.9483 68.1981 15.7527 56.5296 9.91524C51.8174 7.55913 46.4866 6.31243 41.1099 6.31243Z" fill="#D13329"/>
</svg>
