<svg width="24" height="24" viewBox="0 0 24 24" fill="none" xmlns="http://www.w3.org/2000/svg">
<g clip-path="url(#clip0_29223_4051)">
<path d="M20.5196 15.21L18.7196 13.4V8.94002C18.7435 7.28384 18.1674 5.67493 17.0977 4.41035C16.028 3.14578 14.5368 2.31095 12.8996 2.06002C11.9494 1.93488 10.9834 2.01383 10.0662 2.29159C9.14893 2.56935 8.30146 3.03954 7.58031 3.67078C6.85916 4.30202 6.28093 5.07979 5.88419 5.95221C5.48745 6.82463 5.28133 7.77163 5.27958 8.73002V13.4L3.47958 15.21C3.25349 15.4399 3.10017 15.7313 3.03879 16.0478C2.9774 16.3643 3.01068 16.6919 3.13446 16.9897C3.25824 17.2874 3.46704 17.542 3.73474 17.7217C4.00244 17.9014 4.31717 17.9982 4.63958 18H7.99958V18.34C8.04629 19.3552 8.49354 20.3105 9.24331 20.9965C9.99308 21.6826 10.9842 22.0434 11.9996 22C13.0149 22.0434 14.0061 21.6826 14.7559 20.9965C15.5056 20.3105 15.9529 19.3552 15.9996 18.34V18H19.3596C19.682 17.9982 19.9967 17.9014 20.2644 17.7217C20.5321 17.542 20.7409 17.2874 20.8647 16.9897C20.9885 16.6919 21.0218 16.3643 20.9604 16.0478C20.899 15.7313 20.7457 15.4399 20.5196 15.21ZM13.9996 18.34C13.9441 18.821 13.7052 19.2621 13.3327 19.5713C12.9601 19.8805 12.4826 20.0341 11.9996 20C11.5166 20.0341 11.0391 19.8805 10.6665 19.5713C10.2939 19.2621 10.055 18.821 9.99958 18.34V18H13.9996V18.34ZM5.50958 16L6.68958 14.82C6.87675 14.634 7.02525 14.4127 7.12651 14.169C7.22777 13.9253 7.27979 13.6639 7.27958 13.4V8.73002C7.28013 8.05542 7.42497 7.38874 7.70438 6.77473C7.98379 6.16071 8.39131 5.61357 8.89958 5.17002C9.401 4.7157 9.99516 4.37577 10.6409 4.17375C11.2867 3.97173 11.9686 3.91245 12.6396 4.00002C13.7961 4.18779 14.8458 4.78703 15.5955 5.6874C16.3452 6.58776 16.7444 7.72865 16.7196 8.90002V13.4C16.7181 13.6632 16.7685 13.9242 16.868 14.1678C16.9676 14.4115 17.1142 14.6331 17.2996 14.82L18.4896 16H5.50958Z" fill="#0D0140"/>
</g>
<defs>
<clipPath id="clip0_29223_4051">
<rect width="24" height="24" fill="white"/>
</clipPath>
</defs>
</svg>
