<svg width="24" height="24" viewBox="0 0 24 24" fill="none" xmlns="http://www.w3.org/2000/svg">
<g clip-path="url(#clip0_0_101)">
<path d="M23.8073 9.77869C23.914 9.77869 24.0005 9.86517 24.0005 9.97186V12C24.0005 12.7591 23.93 13.5013 23.7947 14.2213C22.7486 19.8139 17.8216 24.0404 11.9159 23.9997C5.28919 23.954 -0.0141532 18.5997 0.00051865 11.973C0.0150968 5.35809 5.38219 0 12.0005 0C15.243 0 18.1849 1.28634 20.3449 3.37584C20.4229 3.45127 20.4249 3.57558 20.3482 3.65227L17.4789 6.52153C17.405 6.59541 17.2857 6.59733 17.21 6.52528C15.8543 5.23486 14.0201 4.44263 12.0005 4.44263C7.82996 4.44263 4.4716 7.77712 4.44328 11.9475C4.41483 16.1453 7.80933 19.5573 12.0005 19.5573C15.401 19.5573 18.2772 17.3109 19.2256 14.2213H12.1936C12.087 14.2213 12.0005 14.1348 12.0005 14.0281V9.97181C12.0005 9.86512 12.087 9.77864 12.1936 9.77864H23.8073V9.77869Z" fill="#2196F3"/>
<path d="M23.8064 9.77869H22.3577C22.4644 9.77869 22.5509 9.86517 22.5509 9.97186V12C22.5509 12.7591 22.4804 13.5013 22.3451 14.2213C21.3471 19.5567 16.8169 23.6487 11.2744 23.9783C11.4865 23.9909 11.6999 23.9982 11.9149 23.9997C17.8207 24.0404 22.7477 19.8139 23.7938 14.2213C23.929 13.5013 23.9995 12.7591 23.9995 12V9.97181C23.9995 9.86517 23.913 9.77869 23.8064 9.77869Z" fill="#1E88E5"/>
<path d="M5.13614 8.83509L1.4917 6.20184C3.53629 2.50383 7.47623 0 12.0005 0C15.243 0 18.185 1.28634 20.3449 3.37584C20.4229 3.45127 20.4249 3.57558 20.3482 3.65227L17.4789 6.52153C17.4052 6.59527 17.2859 6.59756 17.2103 6.52566C15.8547 5.235 14.0203 4.44267 12.0005 4.44267C8.95682 4.44267 6.33323 6.24192 5.13614 8.83509Z" fill="#F44336"/>
<path d="M4.0835 8.07488L5.13561 8.83506C6.22826 6.46815 8.50957 4.76349 11.2138 4.48388C11.2341 4.48167 11.2537 4.479 11.2744 4.47703C11.0364 4.45444 10.7952 4.44263 10.5513 4.44263C7.80176 4.44263 5.40551 5.89215 4.0835 8.07488Z" fill="#E53935"/>
<path d="M18.8956 3.37584C18.9736 3.45127 18.9756 3.57558 18.8989 3.65231L16.57 5.9812C16.7931 6.15089 17.0067 6.33239 17.2093 6.52533C17.285 6.59737 17.4044 6.59545 17.4783 6.52158L20.3475 3.65231C20.4243 3.57558 20.4222 3.45131 20.3442 3.37584C18.1843 1.28634 15.2423 0 11.9998 0C11.7565 0 11.5151 0.00810937 11.2754 0.0224063C14.2304 0.198422 16.8976 1.44309 18.8956 3.37584Z" fill="#E53935"/>
<path d="M20.8022 20.1551C18.6108 22.5199 15.4778 24 11.9995 24C7.30138 24 3.23394 21.3001 1.26416 17.3669L4.98486 14.8171C6.10138 17.5953 8.82154 19.5573 11.9995 19.5573C13.9938 19.5573 15.8076 18.7846 17.1578 17.5223L20.8022 20.1551Z" fill="#4CAF50"/>
<path d="M4.98534 14.8173L3.88818 15.5691C5.16248 17.943 7.66837 19.5574 10.5512 19.5574C10.795 19.5574 11.036 19.5454 11.2739 19.5229C8.41223 19.25 6.01575 17.3813 4.98534 14.8173Z" fill="#43A047"/>
<path d="M11.9999 24.0001C15.4782 24.0001 18.6112 22.52 20.8026 20.1552L19.91 19.5104C17.8524 22.0712 14.7656 23.77 11.2773 23.9782C11.5164 23.9925 11.7573 24.0001 11.9999 24.0001Z" fill="#43A047"/>
<path d="M4.44267 12.0001C4.44267 12.9958 4.63533 13.9466 4.98544 14.8173L1.26469 17.367C0.455391 15.7522 0 13.9292 0 12.0001C0 9.89706 0.540844 7.92053 1.49119 6.2019L5.13562 8.83515C4.69088 9.79754 4.44267 10.8701 4.44267 12.0001Z" fill="#FFC107"/>
<path d="M3.88846 15.5691L4.98562 14.8173C4.63551 13.9466 4.44285 12.9958 4.44285 12C4.44285 10.8701 4.69105 9.79752 5.1358 8.83512L4.08369 8.07495C3.40049 9.203 3.00398 10.5267 2.99432 11.9476C2.98541 13.258 3.31012 14.4918 3.88846 15.5691Z" fill="#FFB300"/>
</g>
<defs>
<clipPath id="clip0_0_101">
<rect width="24" height="24" fill="white"/>
</clipPath>
</defs>
</svg>
