<svg width="24" height="24" viewBox="0 0 24 24" fill="none" xmlns="http://www.w3.org/2000/svg">
<path d="M12.5007 15.7301V13.3656" stroke="#0D0140" stroke-width="2" stroke-linecap="round" stroke-linejoin="round"/>
<path fill-rule="evenodd" clip-rule="evenodd" d="M18.1958 5.15503C19.7496 5.15503 21 6.43187 21 8.00694V11.213C18.7382 12.5551 15.7501 13.3659 12.4954 13.3659C9.24067 13.3659 6.26176 12.5551 4 11.213V7.99762C4 6.42255 5.2596 5.15503 6.81341 5.15503H18.1958Z" stroke="#0D0140" stroke-width="2" stroke-linecap="round" stroke-linejoin="round"/>
<path d="M15.7181 5.15082V4.80971C15.7181 3.67268 14.8079 2.75 13.6862 2.75H11.3141C10.1924 2.75 9.28223 3.67268 9.28223 4.80971V5.15082" stroke="#0D0140" stroke-width="2" stroke-linecap="round" stroke-linejoin="round"/>
<path d="M4.02246 14.6174L4.19623 16.9558C4.31392 18.5318 5.60937 19.7499 7.16778 19.7499H17.8321C19.3905 19.7499 20.686 18.5318 20.8036 16.9558L20.9774 14.6174" stroke="#0D0140" stroke-width="2" stroke-linecap="round" stroke-linejoin="round"/>
</svg>
