<svg width="24" height="24" viewBox="0 0 24 24" fill="none" xmlns="http://www.w3.org/2000/svg">
<path fill-rule="evenodd" clip-rule="evenodd" d="M21.2727 14.7352C21.6857 14.7662 21.9947 15.1272 21.9637 15.5402L21.7737 18.0492C21.6167 20.1192 19.8697 21.7402 17.7947 21.7402H6.1947C4.1197 21.7402 2.3727 20.1192 2.2157 18.0492L2.0257 15.5402C1.9947 15.1272 2.3047 14.7662 2.7177 14.7352C3.1327 14.7202 3.4907 15.0132 3.5227 15.4272L3.7117 17.9352C3.8097 19.2272 4.8997 20.2402 6.1947 20.2402H17.7947C19.0897 20.2402 20.1807 19.2272 20.2777 17.9352L20.4677 15.4272C20.4997 15.0132 20.8667 14.7192 21.2727 14.7352ZM13.2849 2.00009C14.7878 2.00009 16.033 3.12636 16.2205 4.57912L18.19 4.57999C20.286 4.57999 21.99 6.28899 21.99 8.39099V11.83C21.99 12.097 21.848 12.343 21.619 12.477C19.1507 13.9225 16.0239 14.7656 12.7445 14.8781L12.7449 16.6767C12.7449 17.0907 12.4089 17.4267 11.9949 17.4267C11.5809 17.4267 11.2449 17.0907 11.2449 16.6767L11.2443 14.8783C7.96818 14.7669 4.84116 13.9236 2.371 12.477C2.141 12.343 2 12.097 2 11.83V8.38099C2 6.28499 3.709 4.57999 5.81 4.57999L7.76931 4.57912C7.95684 3.12636 9.20196 2.00009 10.7049 2.00009H13.2849ZM18.19 6.07999H5.81C4.536 6.07999 3.5 7.11199 3.5 8.38099V11.393C5.87371 12.6827 8.86623 13.3896 11.981 13.391L11.9949 13.3897L12.006 13.3901L12.4822 13.3851C15.428 13.315 18.2381 12.616 20.49 11.393V8.39099C20.49 7.11599 19.459 6.07999 18.19 6.07999ZM13.2849 3.50009H10.7049C10.0316 3.50009 9.46316 3.95836 9.29525 4.57937H14.6945C14.5266 3.95836 13.9582 3.50009 13.2849 3.50009Z" fill="#7850AD"/>
</svg>
