<svg width="40" height="40" viewBox="0 0 40 40" fill="none" xmlns="http://www.w3.org/2000/svg">
<path d="M31.215 16.61C30.76 10.8212 25.9037 6.25 20 6.25C14.95 6.25 10.615 9.53 9.21625 14.3138C5.22625 15.6988 2.5 19.4788 2.5 23.75C2.5 29.2638 6.98625 33.75 12.5 33.75H28.75C33.575 33.75 37.5 29.825 37.5 25C37.5 21.0638 34.9125 17.685 31.215 16.61ZM26.155 20.4788C25.9613 20.945 25.505 21.25 25 21.25H22.5V26.25C22.5 27.63 21.38 28.75 20 28.75C18.62 28.75 17.5 27.63 17.5 26.25V21.25H15C14.495 21.25 14.0388 20.945 13.845 20.4788C13.6512 20.0113 13.7587 19.4738 14.1163 19.1163L19.1163 14.1163C19.36 13.8725 19.68 13.75 20 13.75C20.32 13.75 20.64 13.8725 20.8838 14.1163L25.8838 19.1163C26.2413 19.4738 26.3487 20.0113 26.155 20.4788Z" fill="#0D0140"/>
</svg>
