<svg width="78" height="78" viewBox="0 0 78 78" fill="none" xmlns="http://www.w3.org/2000/svg">
<g filter="url(#filter0_dd_29223_2696)">
<path d="M38.6074 12.0947C39.3048 11.7011 40.1562 12.6142 39.7856 13.3683C39.5704 13.983 38.7544 14.1465 38.3376 13.6779C37.896 13.2282 38.04 12.3394 38.6074 12.0947ZM31.1058 12.9698C31.5295 12.7811 32.0658 13.2012 32.0226 13.7009C32.0676 14.2434 31.4546 14.6427 31.0228 14.3849C30.4506 14.1451 30.516 13.1399 31.1058 12.9698ZM46.47 14.4001C45.8079 14.3136 45.7031 13.187 46.3405 12.9601C46.8349 12.6992 47.2885 13.1885 47.3608 13.6957C47.2572 14.1288 46.9221 14.5253 46.47 14.4001ZM32.8127 16.4253C33.521 15.9404 34.5317 16.6625 34.4228 17.5529C34.386 18.4519 33.2826 18.9728 32.66 18.365C32.0581 17.8876 32.1493 16.7924 32.8127 16.4253ZM43.6256 16.9397C43.9416 16.0583 45.2221 16.0317 45.5818 16.8897C45.9373 17.5574 45.5 18.3842 44.8666 18.6112C44.0276 18.7808 43.2306 17.7991 43.6256 16.9397ZM37.704 18.5612C37.6972 17.8036 38.3348 17.2391 39 17.1875C39.4413 17.2833 39.9223 17.4867 40.1116 17.9686C40.4644 18.6334 40.1511 19.5487 39.5136 19.8538C39.2221 20.0306 38.8775 19.9643 38.56 19.9437C38.0748 19.6859 37.6661 19.1802 37.704 18.5612ZM26.548 19.6651C27.1951 19.2346 28.068 20.0202 27.8231 20.7809C27.6882 21.4389 26.8709 21.7066 26.4037 21.2866C25.905 20.893 25.984 19.9466 26.548 19.6651ZM50.504 19.6637C51.053 19.2024 51.9589 19.7316 51.8935 20.4817C51.9303 21.1657 51.1471 21.6815 50.6021 21.3293C50.002 21.0374 49.9407 20.0381 50.504 19.6637ZM40.8413 21.0256C41.7472 20.6734 42.8232 21.0949 43.3396 21.969C44.0207 23.0376 43.6583 24.6649 42.6013 25.2781C41.5061 26.0033 39.9069 25.3885 39.5024 24.0649C39.0432 22.88 39.7122 21.397 40.8413 21.0256ZM35.5261 21.1421C36.5301 20.6292 37.8813 21.0595 38.3663 22.1711C38.937 23.253 38.4957 24.7595 37.4754 25.3181C36.4538 25.9459 35.0125 25.4699 34.5181 24.3084C33.9637 23.1851 34.456 21.6594 35.5261 21.1421ZM30.204 23.1113C30.2804 22.4112 30.8906 21.9556 31.5063 21.9085C32.1696 21.9951 32.6996 22.5527 32.7717 23.2793C32.7282 23.9986 32.2146 24.7016 31.5103 24.6973C30.7354 24.7695 30.056 23.9352 30.204 23.1113ZM45.9237 22.0608C46.7192 21.5596 47.8239 22.2892 47.7885 23.2782C47.8431 24.3262 46.6205 25.0647 45.8284 24.45C45.0055 23.9382 45.0696 22.4966 45.9237 22.0608ZM33.3631 25.7543C34.2935 25.4772 35.3573 25.9518 35.8136 26.8774C36.3135 27.809 36.1092 29.1032 35.3328 29.7865C34.3372 30.7887 32.5008 30.3863 31.9709 29.0185C31.362 27.7647 32.1016 26.0843 33.3631 25.7543ZM43.4445 25.7491C44.349 25.4691 45.4116 25.8464 45.8978 26.7382C46.5407 27.7581 46.2338 29.2793 45.2767 29.9368C44.2741 30.7002 42.7212 30.2994 42.1695 29.1056C41.5007 27.8708 42.1736 26.1257 43.4445 25.7491ZM27.3789 26.9127C28.1826 26.5837 29.0735 27.5435 28.7479 28.4059C28.549 29.1915 27.526 29.4819 26.9975 28.9027C26.3791 28.3588 26.608 27.1485 27.3789 26.9127ZM49.1629 28.1641C49.1397 27.4434 49.6269 26.8052 50.3098 26.7653C50.8602 26.8597 51.3954 27.3402 51.3519 27.9887C51.4023 28.8452 50.4487 29.4273 49.7744 29.0249C49.4584 28.8511 49.2964 28.5002 49.1629 28.1641ZM23.4272 27.3357C23.9108 27.1073 24.5088 27.5608 24.3984 28.142C24.3725 28.8 23.4749 29.053 23.1452 28.5032C22.8538 28.1214 23.0282 27.5326 23.4272 27.3357ZM53.9141 27.3226C54.2546 27.0602 54.8008 27.2488 54.9357 27.6793C55.1645 28.1494 54.745 28.7936 54.256 28.7141C53.5696 28.7818 53.3476 27.6497 53.9141 27.3226ZM35.9893 30.4812C37.2616 30.1231 38.6293 31.2713 38.6373 32.6892C38.7204 34.1219 37.3733 35.3924 36.0709 35.0614C35.0642 34.886 34.2743 33.8365 34.3069 32.7356C34.3042 31.6826 35.0384 30.7039 35.9893 30.4812ZM41.028 30.4782C42.3194 30.0876 43.7279 31.2564 43.7074 32.707C43.7756 34.1132 42.4706 35.3409 41.1954 35.062C39.9954 34.894 39.11 33.4672 39.445 32.2069C39.6141 31.3671 40.2624 30.6841 41.028 30.4782ZM31.313 31.351C32.2066 31.1859 33.0444 32.2649 32.682 33.1832C32.4176 34.1617 31.1018 34.4272 30.52 33.6279C29.8376 32.8602 30.3471 31.4569 31.313 31.351ZM46.0898 31.3941C46.8866 31.0329 47.8647 31.7788 47.8034 32.7148C47.8354 33.7451 46.6279 34.4556 45.8487 33.8542C44.9661 33.3143 45.1268 31.7253 46.0898 31.3941ZM50.22 35.8776C49.908 35.2481 50.4748 34.4138 51.1205 34.5304C51.442 34.5245 51.6668 34.7986 51.8725 35.0285C51.9148 35.4015 51.9856 35.8466 51.6996 36.134C51.3111 36.6661 50.4311 36.5143 50.22 35.8776ZM26.5453 34.7056C27.1488 34.2708 28.0173 34.9193 27.8816 35.6829C27.8095 36.3582 27.0234 36.7442 26.5056 36.361C25.95 36.0131 25.9704 35.0227 26.5453 34.7056ZM38.4685 36.1193C39.2586 35.742 40.2652 36.4864 40.1903 37.4282C40.2488 38.4689 39.0039 39.1896 38.2314 38.5646C37.3733 38.028 37.5164 36.4493 38.4685 36.1193ZM32.9461 37.5136C33.6191 37.1304 34.5221 37.7922 34.4608 38.6072C34.4813 39.2765 33.8778 39.8469 33.2676 39.748C32.7621 39.7362 32.4325 39.2459 32.2704 38.7795C32.2788 38.2713 32.472 37.7053 32.9461 37.5136ZM44.1324 37.5253C44.8244 37.0625 45.8079 37.7272 45.7424 38.5989C45.7602 39.5099 44.6487 40.0935 44.0044 39.495C43.3805 39.0259 43.4567 37.8983 44.1324 37.5253ZM46.0776 42.73C45.7698 42.2259 46.1322 41.6187 46.632 41.5037C47.034 41.5922 47.4589 41.9193 47.3744 42.4235C47.3159 43.1059 46.3936 43.3153 46.0776 42.73ZM30.6359 42.2923C30.7584 41.8928 31.0554 41.4957 31.49 41.5996C32.1234 41.6483 32.3114 42.6815 31.757 43C31.2584 43.3638 30.68 42.8656 30.6359 42.2923ZM38.0856 42.7506C38.2069 42.1596 38.9138 41.8722 39.3797 42.1861C39.6876 42.3292 39.7775 42.702 39.8565 43.0188C39.8143 43.1839 39.7765 43.3491 39.7394 43.5141C39.5487 43.7588 39.3036 44.0034 38.9861 43.9946C38.3962 44.0694 37.864 43.3477 38.0856 42.7506Z" fill="#3CC8C8"/>
</g>
<defs>
<filter id="filter0_dd_29223_2696" x="0" y="0" width="78" height="78" filterUnits="userSpaceOnUse" color-interpolation-filters="sRGB">
<feFlood flood-opacity="0" result="BackgroundImageFix"/>
<feColorMatrix in="SourceAlpha" type="matrix" values="0 0 0 0 0 0 0 0 0 0 0 0 0 0 0 0 0 0 127 0" result="hardAlpha"/>
<feOffset dy="11"/>
<feGaussianBlur stdDeviation="11.5"/>
<feComposite in2="hardAlpha" operator="out"/>
<feColorMatrix type="matrix" values="0 0 0 0 0.235294 0 0 0 0 0.784314 0 0 0 0 0.784314 0 0 0 0.13 0"/>
<feBlend mode="normal" in2="BackgroundImageFix" result="effect1_dropShadow_29223_2696"/>
<feColorMatrix in="SourceAlpha" type="matrix" values="0 0 0 0 0 0 0 0 0 0 0 0 0 0 0 0 0 0 127 0" result="hardAlpha"/>
<feOffset dy="4"/>
<feGaussianBlur stdDeviation="2"/>
<feComposite in2="hardAlpha" operator="out"/>
<feColorMatrix type="matrix" values="0 0 0 0 0 0 0 0 0 0 0 0 0 0 0 0 0 0 0.12 0"/>
<feBlend mode="normal" in2="effect1_dropShadow_29223_2696" result="effect2_dropShadow_29223_2696"/>
<feBlend mode="normal" in="SourceGraphic" in2="effect2_dropShadow_29223_2696" result="shape"/>
</filter>
</defs>
</svg>
