<svg width="18" height="18" viewBox="0 0 18 18" fill="none" xmlns="http://www.w3.org/2000/svg">
<path fill-rule="evenodd" clip-rule="evenodd" d="M8.80425 1.5C12.8317 1.5 16.1078 4.776 16.1078 8.8035C16.1078 10.7037 15.3785 12.4367 14.1852 13.7374L16.5333 16.0805C16.7531 16.3003 16.7538 16.6558 16.534 16.8755C16.4246 16.9865 16.2798 17.0413 16.1358 17.0413C15.9925 17.0413 15.8485 16.9865 15.7383 16.877L13.3619 14.5073C12.1118 15.5084 10.5268 16.1077 8.80425 16.1077C4.77675 16.1077 1.5 12.831 1.5 8.8035C1.5 4.776 4.77675 1.5 8.80425 1.5ZM8.80425 2.625C5.397 2.625 2.625 5.39625 2.625 8.8035C2.625 12.2108 5.397 14.9827 8.80425 14.9827C12.2108 14.9827 14.9828 12.2108 14.9828 8.8035C14.9828 5.39625 12.2108 2.625 8.80425 2.625Z" fill="#87868C"/>
</svg>
