<svg width="68" height="72" viewBox="0 0 68 72" fill="none" xmlns="http://www.w3.org/2000/svg">
<g filter="url(#filter0_dd_29223_3833)">
<path d="M23.2834 12.2013H44.6861V20.2861C44.6861 23.9907 43.3067 31.846 34.0644 37.6935C34.0644 37.6935 24.0495 33.5109 23.2834 20.2861V12.2013Z" fill="#A62131"/>
<path d="M23.2387 12.1797H44.6631V20.2709C44.6631 23.9767 43.2824 31.8372 34.0312 37.6885C34.0312 37.6885 24.0061 33.5033 23.2387 20.2709V12.1797Z" stroke="#0D0140" stroke-width="0.23"/>
<path d="M39.4823 22.5898C39.4823 22.5898 39.2924 23.1979 38.4433 22.5733L35.5291 22.5032C35.5291 22.5032 35.1467 22.6306 35.0957 22.2265C35.0957 22.2265 35.1658 21.4285 35.1301 21.3597C35.1301 21.3597 35.148 21.134 34.7655 21.134C34.7655 21.134 34.1766 21.2029 34.1587 20.6827C34.1587 20.6827 34.0567 20.1269 34.8701 20.146C34.8701 20.146 35.125 20.2735 35.148 19.937C35.148 19.937 35.1136 17.6806 35.1301 17.5148C35.1301 17.5148 35.2002 17.3083 34.8012 17.2726C34.8012 17.2726 34.2288 17.4001 34.1638 17.0177C34.1638 17.0177 34.1294 16.4453 34.5118 16.4096C34.5118 16.4096 34.9797 16.4453 35.0664 16.3229C35.0664 16.3229 35.1709 16.3917 35.1531 15.9774L35.1709 15.2648C35.1709 15.2648 35.2206 15.0736 35.5164 15.0927C35.5164 15.0927 36.0544 15.1271 36.1245 15.0736C36.1815 15.0021 36.2335 14.9267 36.28 14.848C36.28 14.848 36.5579 14.8314 36.6102 14.9015C36.6102 14.9015 37.0258 15.1794 38.604 15.0736C38.604 15.0736 38.8474 15.0736 38.8984 15.1437C38.8984 15.1437 39.1942 15.3694 39.3676 15.1271C39.7092 15.08 40.0545 15.0651 40.3989 15.0825C40.3989 15.0825 41.2505 15.3069 41.8381 14.8276L42.0294 14.8633C42.0294 14.8633 42.2728 15.261 42.4462 15.1399C42.4462 15.1399 42.9663 15.0889 43.053 15.1922C43.053 15.1922 43.2251 15.4471 43.1397 16.1291C43.1397 16.1291 43.0365 16.4236 43.5387 16.4236C43.5387 16.4236 44.1124 16.3191 44.041 16.8558C44.041 16.8558 44.1978 17.4639 43.2442 17.3772C43.1811 17.4633 43.1447 17.5662 43.1397 17.6729C43.1397 17.6729 43.1219 19.6489 43.1053 19.8758C43.1053 19.8758 43.0874 20.1881 43.503 20.169C43.503 20.169 44.0588 20.1333 44.078 20.6368C44.078 20.6368 44.1455 21.2959 43.3475 21.1748C43.3475 21.1748 43.1053 21.2092 43.0683 21.366L43.0365 22.2329C43.0365 22.2329 43.053 22.6663 42.5686 22.5618C42.4985 22.5618 39.8635 22.6153 39.6366 22.5452C39.6366 22.5452 39.5091 22.5286 39.4797 22.5962" fill="white"/>
<path d="M33.8808 25.4886C33.9465 25.4618 34.0012 25.4138 34.0364 25.3522C34.0364 25.3522 34.4022 25.3165 34.4532 25.2643L35.6006 25.3522C35.6006 25.3522 36.7275 25.4376 37.2132 25.0883C37.3141 25.089 37.4142 25.1071 37.5089 25.1419C37.5089 25.1419 37.7511 25.1954 37.82 25.2974L38.4791 25.2796C38.4791 25.2796 38.8615 25.407 38.8258 25.6454V25.9565C38.8258 25.9565 38.7557 26.5811 38.9291 26.6168H39.439C39.439 26.6168 39.8558 26.8068 39.8023 27.0503C39.8053 27.1497 39.7719 27.2469 39.7083 27.3235C39.6446 27.4 39.5552 27.4506 39.4568 27.4658C39.2989 27.5136 39.1359 27.5427 38.9711 27.5525C38.8956 27.6543 38.8474 27.7736 38.8309 27.8993L38.7799 30.171C38.7799 30.171 38.7442 30.4145 39.1101 30.38C39.1101 30.38 39.6455 30.3278 39.8023 30.6235C39.8023 30.6235 39.9425 31.1258 39.6646 31.2125L39.4568 31.3145L39.0043 31.3871C39.0043 31.3871 38.8156 31.4024 38.7978 31.7326V32.3381C38.7978 32.3381 38.8156 32.7563 38.4842 32.7563L37.9985 32.7907C37.9449 32.8246 37.884 32.8453 37.8208 32.8511C37.7576 32.8568 37.694 32.8475 37.6351 32.8238C37.6351 32.8238 34.6865 32.8774 34.5833 32.8417L34.2352 32.9118C34.2352 32.9118 33.8528 33.2585 33.5417 32.9985L33.2995 32.8073C33.22 32.8245 33.1384 32.8301 33.0573 32.8238C32.9872 32.8073 29.7964 32.8595 29.7964 32.8595C29.7964 32.8595 29.1195 32.9296 29.0685 32.7027C29.0685 32.7027 28.9818 31.8193 29.0162 31.7135C29.0162 31.7135 29.0162 31.4585 28.8607 31.4381C28.8607 31.4381 28.1837 31.4024 28.1659 31.3323C28.1659 31.3323 27.8013 31.0774 27.9109 30.8135C27.9498 30.7118 28.0155 30.6226 28.101 30.5553C28.1866 30.4879 28.2887 30.445 28.3966 30.431C28.3966 30.431 28.9512 30.519 28.9512 30.3622C28.977 30.2723 28.989 30.179 28.9869 30.0856C28.9869 30.0856 29.0213 28.0204 29.0034 27.8827C29.0034 27.8827 29.0557 27.6277 28.8301 27.6277C28.6977 27.6658 28.5558 27.653 28.4323 27.592C28.4323 27.592 28.0155 27.6099 27.9224 27.2797C27.8836 27.1526 27.896 27.0154 27.9568 26.8973C27.9568 26.8973 28.1481 26.5148 28.7026 26.6423C28.7026 26.6423 29.0149 26.729 29.0493 26.5046L29.0328 25.6709C29.0328 25.6709 28.9627 25.4466 29.3961 25.3254C29.3961 25.3254 29.9519 25.481 30.124 25.198C30.124 25.198 30.3152 24.8155 30.4695 25.0705C30.4695 25.0705 30.8009 25.3841 31.7022 25.3509C31.7022 25.3509 33.2638 25.2235 33.2983 25.2961C33.2983 25.2961 33.6807 25.3509 33.784 25.4708L33.8808 25.4886Z" fill="white"/>
<path d="M29.1666 22.5896C29.1666 22.5896 28.9754 23.1977 28.1251 22.5731L25.2122 22.503C25.2122 22.503 24.8298 22.6304 24.7775 22.2263C24.7775 22.2263 24.8476 21.4283 24.8119 21.3595C24.8119 21.3595 24.8298 21.1325 24.4486 21.1325C24.4486 21.1325 23.8596 21.2039 23.8431 20.6825C23.8431 20.6825 23.7373 20.1267 24.5531 20.1458C24.5531 20.1458 24.8081 20.2733 24.8298 19.9368C24.8298 19.9368 24.7953 17.6829 24.8119 17.5147C24.8119 17.5147 24.882 17.3081 24.483 17.2724C24.483 17.2724 23.9106 17.3999 23.8456 17.0175C23.8456 17.0175 23.8099 16.4464 24.1911 16.4107C24.1911 16.4107 24.6589 16.4464 24.7456 16.3253C24.7456 16.3253 24.8502 16.3928 24.8323 15.976L24.8463 15.2544C24.8463 15.2544 24.8986 15.0632 25.1918 15.0811C25.1918 15.0811 25.7311 15.1155 25.8012 15.0632C25.8581 14.9919 25.9097 14.9165 25.9554 14.8376C25.9554 14.8376 26.2346 14.8223 26.2856 14.8898C26.2856 14.8898 26.7012 15.169 28.2819 15.0632C28.2819 15.0632 28.5229 15.0632 28.5751 15.1333C28.5751 15.1333 28.8696 15.359 29.043 15.1155C29.3884 15.0722 29.737 15.0607 30.0845 15.0811C30.0845 15.0811 30.9322 15.3067 31.5225 14.8261L31.7124 14.8605C31.7124 14.8605 31.9559 15.2583 32.1306 15.1371C32.1306 15.1371 32.6507 15.0849 32.7374 15.1894C32.7374 15.1894 32.9107 15.4444 32.8228 16.1264C32.8228 16.1264 32.7195 16.4209 33.2218 16.4209C33.2218 16.4209 33.7942 16.3176 33.7317 16.853C33.7317 16.853 33.8885 17.4611 32.935 17.3744C32.872 17.4608 32.8353 17.5635 32.8292 17.6702C32.8292 17.6702 32.8126 19.6461 32.796 19.873C32.796 19.873 32.7782 20.1828 33.195 20.1662C33.195 20.1662 33.7496 20.1305 33.7661 20.6354C33.7661 20.6354 33.835 21.2932 33.0382 21.1721C33.0382 21.1721 32.796 21.2078 32.7603 21.3633L32.7259 22.2301C32.7259 22.2301 32.7437 22.6636 32.2568 22.5603C32.1879 22.5603 29.5529 22.6113 29.3247 22.5425C29.3247 22.5425 29.1972 22.5259 29.1692 22.5935" fill="white"/>
<path d="M39.4823 22.5898C39.4823 22.5898 39.2924 23.1979 38.4433 22.5733L35.5291 22.5032C35.5291 22.5032 35.1467 22.6306 35.0957 22.2265C35.0957 22.2265 35.1658 21.4285 35.1301 21.3597C35.1301 21.3597 35.148 21.134 34.7655 21.134C34.7655 21.134 34.1766 21.2029 34.1587 20.6827C34.1587 20.6827 34.0567 20.1269 34.8701 20.146C34.8701 20.146 35.125 20.2735 35.148 19.937C35.148 19.937 35.1136 17.6806 35.1301 17.5148C35.1301 17.5148 35.2002 17.3083 34.8012 17.2726C34.8012 17.2726 34.2288 17.4001 34.1638 17.0177C34.1638 17.0177 34.1294 16.4453 34.5118 16.4096C34.5118 16.4096 34.9797 16.4453 35.0664 16.3229C35.0664 16.3229 35.1709 16.3917 35.1531 15.9774L35.1709 15.2648C35.1709 15.2648 35.2206 15.0736 35.5164 15.0927C35.5164 15.0927 36.0544 15.1271 36.1245 15.0736C36.1815 15.0021 36.2335 14.9267 36.28 14.848C36.28 14.848 36.5579 14.8314 36.6102 14.9015C36.6102 14.9015 37.0258 15.1794 38.604 15.0736C38.604 15.0736 38.8474 15.0736 38.8984 15.1437C38.8984 15.1437 39.1942 15.3694 39.3676 15.1271C39.7092 15.08 40.0545 15.0651 40.3989 15.0825C40.3989 15.0825 41.2505 15.3069 41.8381 14.8276L42.0294 14.8633C42.0294 14.8633 42.2728 15.261 42.4462 15.1399C42.4462 15.1399 42.9663 15.0889 43.053 15.1922C43.053 15.1922 43.2251 15.4471 43.1397 16.1291C43.1397 16.1291 43.0365 16.4236 43.5387 16.4236C43.5387 16.4236 44.1124 16.3191 44.041 16.8558C44.041 16.8558 44.1978 17.4639 43.2442 17.3772C43.1811 17.4633 43.1447 17.5662 43.1397 17.6729C43.1397 17.6729 43.1219 19.6489 43.1053 19.8758C43.1053 19.8758 43.0874 20.1881 43.503 20.169C43.503 20.169 44.0588 20.1333 44.078 20.6368C44.078 20.6368 44.1455 21.2959 43.3475 21.1748C43.3475 21.1748 43.1053 21.2092 43.0683 21.366L43.0365 22.2329C43.0365 22.2329 43.053 22.6663 42.5686 22.5618C42.4985 22.5618 39.8635 22.6153 39.6366 22.5452C39.6366 22.5452 39.5091 22.5286 39.4797 22.5962" fill="#0D0140"/>
<path d="M39.4824 22.5911C39.4824 22.5911 39.2925 23.1992 38.4435 22.5733L35.5293 22.5032C35.5293 22.5032 35.1468 22.6306 35.0958 22.2265C35.0958 22.2265 35.1659 21.4285 35.1302 21.3597C35.1302 21.3597 35.1481 21.134 34.7657 21.134C34.7657 21.134 34.1767 21.2041 34.1588 20.6827C34.1588 20.6827 34.0556 20.1282 34.8702 20.146C34.8702 20.146 35.1251 20.2735 35.1481 19.937C35.1481 19.937 35.1137 17.6818 35.1302 17.5149C35.1302 17.5149 35.2004 17.3071 34.8013 17.2726C34.8013 17.2726 34.229 17.4001 34.1639 17.0177C34.1639 17.0177 34.1295 16.444 34.512 16.4096C34.512 16.4096 34.9798 16.444 35.0665 16.3229C35.0665 16.3229 35.171 16.3917 35.1532 15.9762L35.171 15.2635C35.171 15.2635 35.2208 15.0736 35.5178 15.0927C35.5178 15.0927 36.0545 15.1271 36.1246 15.0736C36.1812 15.0018 36.2331 14.9264 36.2801 14.848C36.2801 14.848 36.558 14.8314 36.6103 14.9002C36.6103 14.9002 37.0259 15.1781 38.6041 15.0736C38.6041 15.0736 38.8476 15.0736 38.8986 15.1437C38.8986 15.1437 39.1943 15.3681 39.3677 15.1271C39.7093 15.08 40.0546 15.0651 40.399 15.0825C40.399 15.0825 41.2506 15.3069 41.8395 14.8276L42.0308 14.862C42.0308 14.862 42.273 15.2597 42.4463 15.1399C42.4463 15.1399 42.9665 15.0889 43.0532 15.1909C43.0532 15.1909 43.2265 15.4458 43.1398 16.1279C43.1398 16.1279 43.0366 16.4236 43.5401 16.4236C43.5401 16.4236 44.1125 16.3191 44.0411 16.8558C44.0411 16.8558 44.1979 17.4639 43.2444 17.3772C43.1817 17.4636 43.1454 17.5663 43.1398 17.6729C43.1398 17.6729 43.1233 19.6489 43.1054 19.8745C43.1054 19.8745 43.0876 20.1868 43.5044 20.1703C43.5044 20.1703 44.0602 20.1346 44.0781 20.6368C44.0781 20.6368 44.1457 21.2959 43.3476 21.1748C43.3476 21.1748 43.1054 21.2105 43.0697 21.366L43.0366 22.2329C43.0366 22.2329 43.0531 22.6663 42.5687 22.5618C42.4999 22.5618 39.8636 22.6153 39.6367 22.5452C39.6341 22.5388 39.5168 22.5223 39.4824 22.5911Z" stroke="#0D0140" stroke-width="0.01"/>
<path d="M36.206 15.4445C36.206 15.4445 36.2404 15.7925 36.2404 15.8805C36.2404 15.9684 36.1881 20.8904 36.1881 20.8904C36.2006 21.0024 36.1813 21.1156 36.1323 21.2171C36.0834 21.3185 36.0069 21.4041 35.9115 21.4641C35.9115 21.4641 35.8235 21.4972 35.807 21.255L35.8414 16.0538C35.8414 16.0538 35.8758 15.4101 36.206 15.4445Z" fill="white"/>
<path d="M36.206 15.4445C36.206 15.4445 36.2404 15.7912 36.2404 15.8792C36.2404 15.9671 36.1894 20.8917 36.1894 20.8917C36.2015 21.0036 36.1819 21.1166 36.1327 21.2178C36.0836 21.3191 36.0069 21.4044 35.9115 21.4641C35.9115 21.4641 35.8235 21.4985 35.807 21.255L35.8414 16.0538C35.8414 16.0538 35.8758 15.4101 36.206 15.4445Z" stroke="#0D0140" stroke-width="0.01"/>
<path d="M35.6335 21.515C35.6335 21.515 35.6679 16.6248 35.6513 16.5432C35.6347 16.4616 35.6679 16.6133 35.6679 16.6133C35.6679 16.6133 35.6156 15.763 35.8412 15.415C35.8412 15.415 35.7711 15.1218 35.3734 15.4851L35.3555 16.1914C35.3555 16.1914 35.3555 16.5917 34.9922 16.5738C34.9922 16.5738 34.5754 16.556 34.3841 16.7472C34.3841 16.7472 34.2809 17.1296 34.6786 17.0608C34.6786 17.0608 35.3033 17.0608 35.339 17.3158L35.2995 19.9367C35.2995 19.9367 35.4384 20.3727 34.954 20.3727C34.954 20.3727 34.3625 20.3358 34.3803 20.6991C34.3803 20.6991 34.5078 21.0114 35.005 20.9081C35.005 20.9081 35.3696 20.9757 35.3517 21.325V21.9828C35.3517 21.9828 35.3173 22.2454 35.6641 22.2607H38.3692C38.3692 22.2607 38.5069 22.2786 38.5069 22.1052C38.5069 22.1052 38.4903 21.9662 38.2825 21.9662L36.0325 21.928C36.0325 21.928 35.6679 22.0555 35.6335 21.5111" fill="white"/>
<path d="M36.1539 21.5074C36.1539 21.5074 36.0851 21.7496 36.3451 21.6986H38.1299L38.6143 21.8006C38.6143 21.8006 39.1166 21.6732 38.6143 21.4003C38.6143 21.4003 37.0195 21.4169 36.8806 21.3825L36.4803 21.2792C36.4803 21.2792 36.3082 21.2104 36.1526 21.5036" fill="white"/>
<path d="M36.1538 21.5073C36.1538 21.5073 36.0837 21.7508 36.3437 21.6998H38.1285L38.6142 21.8005C38.6142 21.8005 39.1241 21.673 38.6142 21.4002C38.6142 21.4002 37.0194 21.4155 36.8804 21.3824C36.8804 21.3824 36.5502 21.2957 36.4801 21.2791C36.4814 21.2829 36.3093 21.2128 36.1538 21.5073Z" stroke="#0D0140" stroke-width="0.01"/>
<path d="M39.1241 21.7509C39.1241 21.7509 38.7952 21.7509 38.8118 22.1843C38.8226 22.2771 38.868 22.3625 38.9388 22.4234C39.0097 22.4843 39.1009 22.5164 39.1942 22.5132C39.2835 22.4967 39.3628 22.4458 39.4148 22.3713C39.4668 22.2969 39.4874 22.205 39.4722 22.1155C39.4722 22.1155 39.2809 21.682 39.1254 21.7509" fill="white"/>
<path d="M39.3624 21.5775C39.3624 21.5775 39.5179 21.4041 39.6173 21.4041C39.6173 21.4041 41.3511 21.5596 41.6443 21.3518C41.6443 21.3518 41.9056 21.3008 41.9757 21.3518C41.9757 21.3518 42.2307 21.5596 42.2307 21.682C42.2307 21.682 42.2141 21.8388 41.9018 21.7496L39.8379 21.7687C39.8379 21.7687 39.2999 21.8962 39.3535 21.5775" fill="white"/>
<path d="M39.3614 21.5775C39.3614 21.5775 39.5169 21.4042 39.6163 21.4042C39.6163 21.4042 41.3501 21.5597 41.6433 21.3519C41.6433 21.3519 41.9059 21.2996 41.9747 21.3519C41.9747 21.3519 42.2297 21.5597 42.2297 21.6821C42.2297 21.6821 42.2131 21.8389 41.9008 21.7509L39.8356 21.7688C39.8356 21.7688 39.3078 21.8899 39.3614 21.5775Z" stroke="#0D0140" stroke-width="0.01"/>
<path d="M39.5866 22.1397C39.5866 22.1397 39.5866 21.9994 39.8301 21.9994L42.2522 21.9829C42.2522 21.9829 42.4778 22.104 42.4778 21.6884C42.4778 21.6884 42.5671 19.7979 42.5747 17.7174C42.5747 17.0978 42.6053 16.4426 42.5836 15.8447C42.5836 15.8447 42.5301 15.5897 42.4562 15.5311C42.4562 15.5311 42.4562 15.2545 42.7519 15.359C42.7519 15.359 43.0069 15.3768 42.9419 15.7758L42.961 16.3814C42.961 16.3814 42.9074 16.6363 43.3753 16.5726C43.3753 16.5726 43.8432 16.6427 43.861 16.8148C43.861 16.8148 44 17.1628 43.4467 17.1271H43.0451C42.9937 17.1592 42.9538 17.2066 42.9309 17.2627C42.908 17.3188 42.9034 17.3806 42.9176 17.4395L42.8667 19.9559C42.8667 19.9559 42.831 20.3881 43.2491 20.3715C43.2491 20.3715 43.6825 20.3537 43.7692 20.4926C43.7692 20.4926 44.0662 20.9261 43.4225 20.8916C43.4225 20.8916 43.0235 20.8738 42.9368 20.9439C42.9368 20.9439 42.8679 21.0293 42.8093 21.8465C42.8093 21.8465 42.845 22.3322 42.4804 22.2786C42.4804 22.2786 40.0685 22.313 39.8441 22.2608C39.8441 22.2608 39.6019 22.3322 39.5662 22.1333" fill="white"/>
<path d="M36.466 15.2877L36.4138 20.856C36.4138 20.856 36.3972 21.111 36.8306 21.1671C36.8306 21.1671 37.3329 21.2181 37.4527 21.1671C37.4527 21.1671 37.7842 21.1492 38.6332 21.1837C38.6332 21.1837 38.8423 21.394 38.8601 21.1314C38.8601 21.1314 38.9965 16.625 38.929 15.6854C38.929 15.6854 38.9098 15.2877 38.6166 15.2698C38.6166 15.2698 37.2985 15.3769 37.1774 15.2698L36.656 15.1322C36.656 15.1322 36.4482 15.15 36.466 15.2877Z" fill="white"/>
<path d="M39.2054 15.5655C39.2054 15.5655 39.1532 18.1852 39.171 18.2719L39.1366 20.4735L39.0665 21.2384C39.0665 21.2384 39.171 21.3939 39.2577 21.2906C39.2577 21.2906 39.8122 21.1504 40.159 21.2039C40.159 21.2039 41.2706 21.3072 41.495 21.1326C41.495 21.1326 41.6683 21.2192 41.7193 20.9426C41.7193 20.9426 41.7882 16.0882 41.7563 16.0015C41.7563 16.0015 41.8226 15.3054 41.7882 15.2366C41.7882 15.2366 41.7729 15.0811 41.4771 15.2187C41.4771 15.2187 41.5115 15.3577 39.8645 15.3042C39.8645 15.3042 39.2411 15.2876 39.2054 15.5655Z" fill="white"/>
<path d="M41.9644 15.4966L41.9465 20.9782C41.9465 20.9782 42.0855 21.4639 42.3111 21.4181C42.3364 21.3268 42.3531 21.2333 42.3608 21.1389L42.4309 15.9186C42.4309 15.9186 42.2576 15.0874 41.9644 15.5017" fill="white"/>
<path d="M41.9631 15.4967L41.9465 20.9783C41.9465 20.9783 42.0855 21.464 42.3111 21.4181C42.3373 21.327 42.3544 21.2335 42.3621 21.1389L42.4309 15.9123C42.4309 15.9123 42.2576 15.0824 41.9631 15.4967Z" stroke="#0D0140" stroke-width="0.01"/>
<path d="M39.8339 17.1374C39.7816 16.9997 40.1283 16.9818 40.1283 16.9818L40.303 17.0163C40.3854 17.0087 40.4685 17.0209 40.5452 17.0519C40.5614 17.0762 40.5721 17.1037 40.5765 17.1326C40.5809 17.1614 40.5789 17.1909 40.5706 17.2189C40.5623 17.2469 40.548 17.2727 40.5286 17.2945C40.5092 17.3163 40.4853 17.3336 40.4585 17.3452L40.3897 17.5721C40.3718 17.7633 40.3897 19.4103 40.3897 19.4103C40.4379 19.4971 40.4961 19.578 40.563 19.6513C40.563 19.8081 40.3718 19.7788 40.3718 19.7788L39.8696 19.7966C39.7128 19.7788 39.765 19.6054 39.765 19.6054C39.9384 19.5187 39.9907 19.2064 39.9907 19.2064V17.4841L39.8339 17.1374Z" fill="#0D0140"/>
<path d="M37.5101 17.3797C37.5279 17.7621 37.5279 18.2822 37.5279 18.2822C37.5657 18.3179 37.6115 18.3439 37.6615 18.3582C37.7114 18.3725 37.7641 18.3747 37.815 18.3644C37.8659 18.3542 37.9137 18.3319 37.9542 18.2994C37.9948 18.2669 38.0269 18.2252 38.048 18.1777C38.4802 17.7621 38.048 17.3797 37.9792 17.2764C37.9104 17.1731 37.5623 17.2585 37.5623 17.2585L37.5101 17.3797ZM37.4935 18.7513L37.4591 19.288L37.6133 19.543C37.7191 19.682 37.5445 19.7865 37.5445 19.7865L36.9899 19.7342C36.8867 19.682 36.9899 19.5086 36.9899 19.5086C37.0355 19.4696 37.0729 19.4218 37.0998 19.3682C37.1267 19.3146 37.1427 19.2561 37.1467 19.1962L37.1289 18.1904L37.1467 17.4625C37.1467 17.3746 37.0078 17.2203 37.0078 17.2203C36.8803 17.2025 36.9211 17.0469 36.9211 17.0469C36.9555 16.959 37.25 17.0112 37.25 17.0112H37.9766C38.6701 17.2369 38.5656 17.7404 38.5656 17.7404C38.6191 18.2427 38.0812 18.4518 38.0812 18.4518L38.0455 18.7284L38.549 19.5251C38.5726 19.5397 38.5916 19.5605 38.604 19.5853C38.6164 19.6101 38.6216 19.6378 38.6191 19.6654C38.549 19.8566 38.2711 19.6654 38.2711 19.6654L37.6477 18.694C37.5942 18.6239 37.4909 18.7462 37.4909 18.7462" fill="#0D0140"/>
<path d="M33.8808 25.4886C33.9465 25.4618 34.0012 25.4138 34.0364 25.3522C34.0364 25.3522 34.4022 25.3165 34.4532 25.2643L35.6006 25.3522C35.6006 25.3522 36.7275 25.4376 37.2132 25.0883C37.3141 25.089 37.4142 25.1071 37.5089 25.1419C37.5089 25.1419 37.7511 25.1954 37.82 25.2974L38.4791 25.2796C38.4791 25.2796 38.8615 25.407 38.8258 25.6454V25.9565C38.8258 25.9565 38.7557 26.5811 38.9291 26.6168H39.439C39.439 26.6168 39.8558 26.8068 39.8023 27.0503C39.8053 27.1497 39.7719 27.2469 39.7083 27.3235C39.6446 27.4 39.5552 27.4506 39.4568 27.4658C39.2989 27.5136 39.1359 27.5427 38.9711 27.5525C38.8956 27.6543 38.8474 27.7736 38.8309 27.8993L38.7799 30.171C38.7799 30.171 38.7442 30.4145 39.1101 30.38C39.1101 30.38 39.6455 30.3278 39.8023 30.6235C39.8023 30.6235 39.9425 31.1258 39.6646 31.2125L39.4568 31.3145L39.0043 31.3871C39.0043 31.3871 38.8156 31.4024 38.7978 31.7326V32.3381C38.7978 32.3381 38.8156 32.7563 38.4842 32.7563L37.9985 32.7907C37.9449 32.8246 37.884 32.8453 37.8208 32.8511C37.7576 32.8568 37.694 32.8475 37.6351 32.8238C37.6351 32.8238 34.6865 32.8774 34.5833 32.8417L34.2352 32.9118C34.2352 32.9118 33.8528 33.2585 33.5417 32.9985L33.2995 32.8073C33.22 32.8245 33.1384 32.8301 33.0573 32.8238C32.9872 32.8073 29.7964 32.8595 29.7964 32.8595C29.7964 32.8595 29.1195 32.9296 29.0685 32.7027C29.0685 32.7027 28.9818 31.8193 29.0162 31.7135C29.0162 31.7135 29.0162 31.4585 28.8607 31.4381C28.8607 31.4381 28.1837 31.4024 28.1659 31.3323C28.1659 31.3323 27.8013 31.0774 27.9109 30.8135C27.9498 30.7118 28.0155 30.6226 28.101 30.5553C28.1866 30.4879 28.2887 30.445 28.3966 30.431C28.3966 30.431 28.9512 30.519 28.9512 30.3622C28.977 30.2723 28.989 30.179 28.9869 30.0856C28.9869 30.0856 29.0213 28.0204 29.0034 27.8827C29.0034 27.8827 29.0557 27.6277 28.8301 27.6277C28.6977 27.6658 28.5558 27.653 28.4323 27.592C28.4323 27.592 28.0155 27.6099 27.9224 27.2797C27.8836 27.1526 27.896 27.0154 27.9568 26.8973C27.9568 26.8973 28.1481 26.5148 28.7026 26.6423C28.7026 26.6423 29.0149 26.729 29.0493 26.5046L29.0328 25.6709C29.0328 25.6709 28.9627 25.4466 29.3961 25.3254C29.3961 25.3254 29.9519 25.481 30.124 25.198C30.124 25.198 30.3152 24.8155 30.4695 25.0705C30.4695 25.0705 30.8009 25.3841 31.7022 25.3509C31.7022 25.3509 33.2638 25.2235 33.2983 25.2961C33.2983 25.2961 33.6807 25.3509 33.784 25.4708L33.8808 25.4886Z" fill="#0D0140"/>
<path d="M33.8806 25.4671C33.9463 25.4397 34.0011 25.3913 34.0362 25.3294C34.0362 25.3294 34.4008 25.295 34.453 25.2427L35.6003 25.3294C35.6003 25.3294 36.7273 25.4161 37.213 25.0681C37.3139 25.0687 37.414 25.0868 37.5087 25.1216C37.5087 25.1216 37.7509 25.1739 37.8198 25.2758L38.4801 25.2593C38.4801 25.2593 38.8626 25.3868 38.8256 25.6239V25.9362C38.8256 25.9362 38.7568 26.5609 38.9301 26.5953H39.4337C39.4337 26.5953 39.8493 26.7865 39.7983 27.0287C39.8013 27.1285 39.7677 27.226 39.7039 27.3028C39.64 27.3796 39.5502 27.4304 39.4515 27.4456C39.2936 27.4933 39.1306 27.5224 38.9658 27.5323C38.8911 27.6344 38.8429 27.7536 38.8256 27.879L38.7746 30.1507C38.7746 30.1507 38.7389 30.3929 39.1035 30.3585C39.1035 30.3585 39.6402 30.3075 39.7983 30.602C39.7983 30.602 39.9372 31.1042 39.6593 31.1922L39.4515 31.2955L38.9964 31.3618C38.9964 31.3618 38.8065 31.3783 38.7899 31.7072V32.3153C38.7899 32.3153 38.8065 32.7309 38.4776 32.7309L37.9919 32.7666C37.9382 32.8008 37.8771 32.8218 37.8137 32.8278C37.7503 32.8338 37.6864 32.8246 37.6273 32.801C37.6273 32.801 34.6787 32.8533 34.5754 32.8163L34.2274 32.8877C34.2274 32.8877 33.8449 33.2344 33.5339 32.9731L33.2917 32.7819C33.2121 32.799 33.1307 32.8054 33.0495 32.801C32.9794 32.7819 29.7885 32.8354 29.7885 32.8354C29.7885 32.8354 29.1116 32.9055 29.0593 32.6786C29.0593 32.6786 28.9739 31.7939 29.0083 31.6894C29.0083 31.6894 29.0083 31.4344 28.8515 31.4128C28.8515 31.4128 28.1759 31.3783 28.158 31.3095C28.158 31.3095 27.7935 31.0482 27.9031 30.7894C27.942 30.6877 28.0077 30.5985 28.0932 30.5312C28.1787 30.4638 28.2808 30.4209 28.3888 30.4069C28.3888 30.4069 28.9433 30.4962 28.9433 30.3381C28.9691 30.2486 28.9811 30.1558 28.979 30.0627C28.979 30.0627 29.0134 27.9976 28.9956 27.8586C28.9956 27.8586 29.0479 27.6036 28.8222 27.6036C28.6895 27.6417 28.5474 27.6294 28.4232 27.5692C28.4232 27.5692 28.0076 27.5858 27.9209 27.2569C27.8821 27.1298 27.8945 26.9926 27.9554 26.8745C27.9554 26.8745 28.1453 26.492 28.7011 26.6195C28.7011 26.6195 29.0134 26.7075 29.0479 26.4831L29.03 25.6494C29.03 25.6494 28.9612 25.4237 29.3946 25.3026C29.3946 25.3026 29.9491 25.4581 30.1225 25.1751C30.1225 25.1751 30.3137 24.7927 30.468 25.0477C30.468 25.0477 30.7994 25.3613 31.7007 25.3268C31.7007 25.3268 33.2624 25.1994 33.2968 25.2733C33.2968 25.2733 33.6792 25.3268 33.7825 25.4479L33.8806 25.4671Z" stroke="#0D0140" stroke-width="0.01"/>
<path d="M34.3319 32.3049C34.4389 32.249 34.5596 32.2247 34.6799 32.2348C34.8189 32.2692 36.8471 32.2182 36.8471 32.2182C36.8471 32.2182 37.7318 32.2871 37.8669 32.1647L38.0734 32.0958C38.1273 32.0263 38.1577 31.9415 38.1601 31.8536C38.1601 31.7134 38.178 31.2455 38.178 31.2455L38.2315 31.0734C38.2315 31.0734 38.2137 30.9001 38.2315 26.2687C38.2315 26.2687 38.2991 25.9067 38.0734 25.6798C38.0734 25.6798 38.0734 25.5421 38.1423 25.5523C38.2111 25.5625 38.178 25.5701 38.178 25.5701C38.178 25.5701 38.4903 25.4822 38.5413 25.6033C38.5413 25.6033 38.6815 26.0189 38.5591 26.2623C38.5591 26.2623 38.5247 26.7723 38.7861 26.7723C38.8293 26.8065 38.8805 26.8293 38.9348 26.8385C38.9892 26.8476 39.0451 26.8428 39.0971 26.8245C39.0971 26.8245 39.5484 26.8768 39.5484 27.0145C39.5494 27.0534 39.5415 27.092 39.5252 27.1274C39.509 27.1627 39.4849 27.1939 39.4547 27.2185C39.4246 27.2432 39.3892 27.2605 39.3513 27.2694C39.3134 27.2782 39.274 27.2782 39.2361 27.2694L38.8192 27.3026C38.7369 27.322 38.6654 27.373 38.6202 27.4444C38.5749 27.5159 38.5594 27.6023 38.577 27.685C38.6127 28.0139 38.5591 30.3736 38.5591 30.3736C38.5591 30.3736 38.5591 30.6515 38.9938 30.6285C38.9938 30.6285 39.5305 30.6107 39.5305 30.7662C39.5305 30.7662 39.6695 31.113 39.2883 31.1308C39.2883 31.1308 38.5591 31.113 38.6127 31.3208C38.5939 31.513 38.5646 31.7041 38.5247 31.8931C38.5247 31.8931 38.5948 32.2934 38.5069 32.3623C38.5069 32.3623 38.4559 32.5866 37.988 32.5535C37.988 32.5535 35.005 32.5356 34.5371 32.5701C34.5371 32.5701 34.2592 32.5356 34.3281 32.2934" fill="white"/>
<path d="M33.7956 31.9748C33.8751 31.9876 33.9478 32.0275 34.0015 32.0876C34.0551 32.1477 34.0864 32.2245 34.09 32.305C34.09 32.5816 34.1079 32.7372 33.9332 32.7716C33.8902 32.7858 33.8447 32.7908 33.7996 32.7861C33.7545 32.7814 33.711 32.7672 33.6718 32.7444C33.6326 32.7216 33.5988 32.6908 33.5724 32.654C33.546 32.6171 33.5278 32.5751 33.5189 32.5306C33.4654 32.305 33.5521 32.0207 33.7956 31.9748Z" fill="white"/>
<path d="M34.1419 31.8371C34.1419 31.8371 34.4529 31.6268 34.5753 31.6637C34.5753 31.6637 36.1523 31.7657 36.6392 31.6816C37.1262 31.5974 36.8292 31.6637 36.8292 31.6637C36.8292 31.6637 37.246 31.6637 37.3659 31.5057C37.4032 31.4972 37.4422 31.5013 37.477 31.5172C37.5117 31.5331 37.5403 31.5599 37.5584 31.5936L37.8133 31.8728C37.8133 31.8728 37.8325 32.0449 37.5367 32.0271C37.5367 32.0271 34.7092 32.0271 34.6238 32.0449C34.6238 32.0449 34.0858 32.1303 34.1381 31.8371" fill="white"/>
<path d="M34.1409 31.837C34.1409 31.837 34.4532 31.6267 34.5743 31.6624C34.5743 31.6624 36.1538 31.7656 36.6395 31.6815C37.1252 31.5974 36.8294 31.6624 36.8294 31.6624C36.8294 31.6624 37.2463 31.6624 37.3674 31.5056C37.4045 31.4972 37.4433 31.5013 37.4779 31.5172C37.5124 31.5331 37.5408 31.5599 37.5586 31.5936L37.8136 31.8727C37.8136 31.8727 37.8327 32.0448 37.5369 32.027C37.5369 32.027 34.7094 32.027 34.6227 32.0448C34.6266 32.0448 34.0899 32.1264 34.1409 31.837Z" stroke="#0D0140" stroke-width="0.01"/>
<path d="M30.0319 25.6799C30.0319 25.6799 30.153 25.6799 30.1352 25.8877L30.1008 31.1259C30.1126 31.234 30.0966 31.3434 30.0542 31.4436C30.0118 31.5438 29.9444 31.6314 29.8586 31.6983C29.8586 31.6983 29.7018 31.8882 29.7018 31.5937L29.7719 26.2523C29.7719 26.2523 29.7885 25.8533 30.0268 25.6799" fill="white"/>
<path d="M30.0322 25.6799C30.0322 25.6799 30.1533 25.6799 30.1368 25.8877L30.1011 31.1259C30.1128 31.2341 30.0965 31.3436 30.0539 31.4438C30.0113 31.544 29.9437 31.6316 29.8576 31.6983C29.8576 31.6983 29.7008 31.8882 29.7008 31.595L29.7709 26.2523C29.7709 26.2523 29.7887 25.8533 30.0322 25.6799Z" stroke="#0D0140" stroke-width="0.01"/>
<path d="M29.754 25.7144C29.754 25.7144 29.5462 26.0968 29.5628 26.1848L29.5462 27.3448C29.5462 27.3448 29.5284 28.0906 29.5462 28.1773C29.5641 28.264 29.5284 30.449 29.5284 30.449C29.5284 30.449 29.5105 30.8646 29.5284 31.0048V31.9405C29.5284 31.9405 29.494 32.3574 29.805 32.2515C29.805 32.2515 32.8582 32.1827 33.0494 32.2362C33.0494 32.2362 33.326 32.2872 33.2228 32.4262C33.2228 32.4262 33.2228 32.5537 33.0315 32.5129C32.1208 32.5944 31.2061 32.6234 30.292 32.5996C30.292 32.5996 29.4238 32.6506 29.3716 32.5486C29.3716 32.5486 29.2339 32.5307 29.2339 32.0272C29.2371 31.8417 29.2256 31.6563 29.1995 31.4726C29.1995 31.4726 29.2339 31.2279 28.8005 31.1769C28.8005 31.1769 28.1937 31.2814 28.1758 30.9219C28.1758 30.9219 28.2625 30.667 28.8527 30.695C28.8527 30.695 29.2862 30.7651 29.1995 30.4171L29.2505 27.8522C29.2505 27.8522 29.304 27.3996 29.0083 27.3818C28.8864 27.3735 28.7641 27.3795 28.6437 27.3996C28.6437 27.3996 28.1414 27.3996 28.1758 27.1064C28.1758 27.1064 28.3492 26.7941 28.8527 26.863C28.8527 26.863 29.2352 26.9318 29.2505 26.4996C29.2505 26.4996 29.2339 25.6149 29.4417 25.5805C29.4417 25.5805 29.8751 25.5971 29.754 25.7182" fill="white"/>
<path d="M30.2744 31.4547C30.3592 31.5355 30.4592 31.5986 30.5686 31.6404C30.6781 31.6822 30.7947 31.7018 30.9118 31.6982L33.2676 31.7326C33.2676 31.7326 33.5302 31.7505 33.5136 31.8882C33.5136 31.8882 33.4767 32.096 33.1656 32.0258L30.3279 31.9991L30.0143 32.0169C30.0143 32.0169 29.8065 31.9812 30.1418 31.5835L30.2744 31.4547Z" fill="white"/>
<path d="M30.2733 31.4535C30.359 31.5349 30.4601 31.5985 30.5706 31.6405C30.6811 31.6825 30.7989 31.7022 30.9171 31.6983L33.2742 31.7327C33.2742 31.7327 33.5291 31.7505 33.5189 31.8882C33.5189 31.8882 33.4832 32.096 33.1722 32.0272L30.3281 31.9991L30.0158 32.017C30.0158 32.017 29.808 31.9825 30.1433 31.5823L30.2733 31.4535Z" stroke="#0D0140" stroke-width="0.01"/>
<path d="M37.5585 31.2342C37.5585 31.2342 37.7662 31.6332 37.8708 31.688C37.8708 31.688 38.0607 31.9124 38.0097 31.5133L38.0442 26.5187C38.0105 26.3701 38.0105 26.2159 38.0442 26.0674L37.8364 25.6849C37.8364 25.6849 37.6094 25.5116 37.6094 25.7882L37.575 31.1067L37.5585 31.2342Z" fill="white"/>
<path d="M37.5575 31.2342C37.5575 31.2342 37.7665 31.6332 37.8711 31.6893C37.8711 31.6893 38.0623 31.9124 38.01 31.5133L38.0444 26.5174C38.0114 26.3692 38.0114 26.2156 38.0444 26.0674L37.8367 25.6849C37.8367 25.6849 37.6097 25.5116 37.6097 25.7882L37.5753 31.1067L37.5575 31.2342Z" stroke="#0D0140" stroke-width="0.01"/>
<path d="M33.7085 28.8528C33.7167 29.1244 33.7048 29.3962 33.6728 29.6661C33.6448 29.8854 33.7429 30.8988 33.655 31.419C33.655 31.419 33.6397 31.5923 33.2725 31.4368C33.2725 31.4368 31.0531 31.4878 30.9779 31.419C30.9779 31.419 30.3711 31.4368 30.3188 31.1245C30.3188 31.1245 30.4055 28.7482 30.3532 28.6603C30.3532 28.6603 30.3188 27.36 30.3532 27.2389C30.3532 27.2389 30.4055 26.0418 30.3711 25.9042C30.3807 25.7642 30.3686 25.6236 30.3354 25.4873C30.3354 25.4873 30.3354 25.3139 30.6311 25.4172C30.6311 25.4172 30.7344 25.6084 31.3068 25.523C31.5769 25.5633 31.8511 25.5689 32.1227 25.5396C32.1227 25.5396 33.0061 25.4707 33.233 25.5396C33.3342 25.5221 33.4382 25.5452 33.5224 25.6039C33.6067 25.6626 33.6644 25.7522 33.683 25.8532L33.6652 26.9278L33.7684 27.2746L33.8959 27.1879L33.9469 26.9329L33.9647 25.7856C33.9944 25.7167 34.0427 25.6574 34.1042 25.6144C34.1657 25.5714 34.2379 25.5464 34.3128 25.5421C34.3128 25.5421 34.7462 25.4898 34.8227 25.5255C35.2422 25.5824 35.6667 25.5935 36.0886 25.5587C36.3435 25.5077 36.3983 25.7321 37.1811 25.3343C37.1811 25.3343 37.3889 25.3522 37.3889 25.4898C37.3889 25.4898 37.3175 26.9661 37.3889 27.2414C37.3889 27.2414 37.3889 29.9466 37.3353 30.1378L37.3697 31.0046C37.3697 31.0046 37.4042 31.3871 36.7986 31.4215C36.7986 31.4215 37.1811 31.4738 34.7857 31.4037C34.5107 31.403 34.2388 31.4621 33.989 31.577C33.989 31.577 33.9023 31.5592 33.9023 31.3348C33.9422 30.7976 33.9422 30.2581 33.9023 29.7209L33.8679 28.8362L33.7085 28.8528Z" fill="white"/>
<path d="M32.1472 27.6226C32.1472 27.6226 32.1995 28.9051 32.1472 29.0785L32.1306 29.3564C32.1667 29.4543 32.2262 29.5418 32.304 29.6113C32.304 29.6113 32.3907 29.8536 32.1765 29.837C31.9981 29.8209 31.819 29.8145 31.6398 29.8179C31.6398 29.8179 31.3964 29.8179 31.6398 29.5081C31.7068 29.3737 31.7308 29.2219 31.7087 29.0734C31.7087 29.0734 31.7087 27.6175 31.7444 27.5321C31.7444 27.5321 31.7788 27.3396 31.6564 27.2874L31.4486 27.3052L31.1937 27.5474C31.1937 27.5474 31.1414 27.8024 31.0203 27.5321V27.3919L31.1771 26.975L31.2804 26.9572C31.3714 27.0176 31.4706 27.0648 31.5748 27.0974H32.3907L32.6852 26.9572C32.6852 26.9572 32.8127 26.975 32.7731 27.1318C32.7731 27.1318 32.8241 27.5321 32.5985 27.5819C32.5488 27.5583 32.5046 27.5246 32.4688 27.4829C32.433 27.4412 32.4064 27.3923 32.3907 27.3396C32.3907 27.3396 32.1651 27.2198 32.1472 27.6175" fill="#0D0140"/>
<path d="M35.9791 27.1549C35.8899 27.147 35.8002 27.1585 35.7159 27.1885C35.6316 27.2185 35.5548 27.2664 35.4908 27.3289C35.4267 27.3914 35.3769 27.4669 35.3448 27.5504C35.3127 27.6339 35.299 27.7234 35.3047 27.8127C35.3047 27.8127 35.2333 28.2997 35.9625 28.612C35.9625 28.612 36.5005 28.867 36.4648 29.201C36.4648 29.201 36.3959 29.7899 35.8274 29.4954C35.8274 29.4954 35.5507 29.3565 35.5724 29.201C35.5724 29.201 35.4844 29.0097 35.3812 29.0442C35.3812 29.0442 35.2537 29.0786 35.3123 29.651C35.3123 29.651 35.3123 29.8766 35.5673 29.651L35.7037 29.6867C35.7037 29.6867 36.1728 30.0691 36.5706 29.5987C36.5706 29.5987 37.0053 29.201 36.6981 28.7153C36.5392 28.4908 36.3243 28.3119 36.0747 28.1964C36.0747 28.1964 35.6922 28.0205 35.6068 27.726C35.6068 27.726 35.7343 27.2059 36.1945 27.4825C36.2719 27.5796 36.366 27.662 36.4724 27.726C36.4724 27.726 36.6114 27.726 36.5757 27.4124L36.5438 27.1575C36.5438 27.1575 36.5081 26.9637 36.2646 27.1575C36.2646 27.1575 36.039 27.2429 35.9867 27.1575" fill="#0D0140"/>
<path d="M33.5877 27.9337C33.5699 28.0204 33.4475 28.5061 33.4475 28.5061L33.552 28.682C33.552 28.682 33.8299 28.6973 33.9345 28.6973C34.039 28.6973 34.0619 28.6119 34.0619 28.524C34.0108 28.3179 33.9469 28.1153 33.8707 27.9172L33.7828 27.8139L33.5877 27.9337ZM33.8643 26.7864C33.9414 26.8533 33.991 26.9464 34.0033 27.0477C34.2587 27.7866 34.4715 28.5396 34.6407 29.3029C34.7042 29.4192 34.7865 29.5243 34.8842 29.6139C35.1787 29.7185 34.8842 29.8039 34.8842 29.8039C34.7567 29.8574 34.3641 29.7886 34.3641 29.7886C34.155 29.7516 34.2366 29.684 34.2366 29.684C34.3245 29.5973 34.2557 29.2493 34.2557 29.2493C34.2185 29.1194 34.1599 28.9966 34.0823 28.886C34.0135 28.8503 33.8911 29.0135 33.8911 29.0135C33.8911 29.0135 33.7012 29.0823 33.6833 29.0135C33.6655 28.9446 33.5444 28.8771 33.5444 28.8771C33.3366 28.8771 33.2499 29.3934 33.2499 29.3934C33.3774 29.8281 33.2499 29.758 33.2499 29.758C33.1466 29.8982 32.8165 29.7949 32.8165 29.7949C32.6597 29.758 32.7655 29.6369 32.7655 29.6369C32.8238 29.6217 32.877 29.5911 32.9194 29.5482C32.9618 29.5054 32.9918 29.4519 33.0064 29.3934C33.0944 29.2735 33.6438 27.0184 33.6438 27.0184C33.6973 26.9139 33.7318 26.7061 33.8529 26.7928" fill="#0D0140"/>
<path d="M29.1666 22.5896C29.1666 22.5896 28.9754 23.1977 28.1251 22.5731L25.2122 22.503C25.2122 22.503 24.8298 22.6304 24.7775 22.2263C24.7775 22.2263 24.8476 21.4283 24.8119 21.3595C24.8119 21.3595 24.8298 21.1325 24.4486 21.1325C24.4486 21.1325 23.8596 21.2039 23.8431 20.6825C23.8431 20.6825 23.7373 20.1267 24.5531 20.1458C24.5531 20.1458 24.8081 20.2733 24.8298 19.9368C24.8298 19.9368 24.7953 17.6829 24.8119 17.5147C24.8119 17.5147 24.882 17.3081 24.483 17.2724C24.483 17.2724 23.9106 17.3999 23.8456 17.0175C23.8456 17.0175 23.8099 16.4464 24.1911 16.4107C24.1911 16.4107 24.6589 16.4464 24.7456 16.3253C24.7456 16.3253 24.8502 16.3928 24.8323 15.976L24.8463 15.2544C24.8463 15.2544 24.8986 15.0632 25.1918 15.0811C25.1918 15.0811 25.7311 15.1155 25.8012 15.0632C25.8581 14.9919 25.9097 14.9165 25.9554 14.8376C25.9554 14.8376 26.2346 14.8223 26.2856 14.8898C26.2856 14.8898 26.7012 15.169 28.2819 15.0632C28.2819 15.0632 28.5229 15.0632 28.5751 15.1333C28.5751 15.1333 28.8696 15.359 29.043 15.1155C29.3884 15.0722 29.737 15.0607 30.0845 15.0811C30.0845 15.0811 30.9322 15.3067 31.5225 14.8261L31.7124 14.8605C31.7124 14.8605 31.9559 15.2583 32.1306 15.1371C32.1306 15.1371 32.6507 15.0849 32.7374 15.1894C32.7374 15.1894 32.9107 15.4444 32.8228 16.1264C32.8228 16.1264 32.7195 16.4209 33.2218 16.4209C33.2218 16.4209 33.7942 16.3176 33.7317 16.853C33.7317 16.853 33.8885 17.4611 32.935 17.3744C32.872 17.4608 32.8353 17.5635 32.8292 17.6702C32.8292 17.6702 32.8126 19.6461 32.796 19.873C32.796 19.873 32.7782 20.1828 33.195 20.1662C33.195 20.1662 33.7496 20.1305 33.7661 20.6354C33.7661 20.6354 33.835 21.2932 33.0382 21.1721C33.0382 21.1721 32.796 21.2078 32.7603 21.3633L32.7259 22.2301C32.7259 22.2301 32.7437 22.6636 32.2568 22.5603C32.1879 22.5603 29.5529 22.6113 29.3247 22.5425C29.3247 22.5425 29.1972 22.5259 29.1692 22.5935" fill="#0D0140"/>
<path d="M29.1663 22.5909C29.1663 22.5909 28.9751 23.199 28.1248 22.5731L25.2106 22.503C25.2106 22.503 24.8282 22.6304 24.7772 22.2263C24.7772 22.2263 24.8473 21.4283 24.8116 21.3595C24.8116 21.3595 24.8294 21.1338 24.447 21.1338C24.447 21.1338 23.858 21.2039 23.8415 20.6838C23.8415 20.6838 23.7369 20.1267 24.5528 20.1458C24.5528 20.1458 24.8078 20.2733 24.8294 19.9368C24.8294 19.9368 24.795 17.6817 24.8116 17.5147C24.8116 17.5147 24.8817 17.3081 24.4827 17.2724C24.4827 17.2724 23.9103 17.3999 23.8453 17.0175C23.8453 17.0175 23.8096 16.4464 24.192 16.4119C24.192 16.4119 24.6599 16.4464 24.7466 16.3265C24.7466 16.3265 24.8511 16.3941 24.8333 15.9772L24.846 15.2544C24.846 15.2544 24.8983 15.0632 25.1915 15.0811C25.1915 15.0811 25.7307 15.1155 25.7996 15.0632C25.857 14.992 25.909 14.9166 25.9551 14.8376C25.9551 14.8376 26.233 14.821 26.2853 14.8898C26.2853 14.8898 26.7008 15.1677 28.2816 15.0632C28.2816 15.0632 28.5225 15.0632 28.5748 15.1333C28.5748 15.1333 28.8693 15.3577 29.0427 15.1155C29.388 15.0722 29.7367 15.0607 30.0842 15.0811C30.0842 15.0811 30.9319 15.3054 31.5221 14.8261L31.7134 14.8618C31.7134 14.8618 31.9556 15.2595 32.1302 15.1384C32.1302 15.1384 32.6503 15.0862 32.7383 15.1894C32.7383 15.1894 32.9104 15.4444 32.8237 16.1264C32.8237 16.1264 32.7192 16.4221 33.2215 16.4221C33.2215 16.4221 33.7951 16.3189 33.7314 16.8543C33.7314 16.8543 33.8882 17.4624 32.9346 17.3757C32.8714 17.4619 32.8351 17.5647 32.8301 17.6715C32.8301 17.6715 32.8122 19.6474 32.7957 19.873C32.7957 19.873 32.7778 20.1841 33.1947 20.1688C33.1947 20.1688 33.7492 20.1318 33.7671 20.6366C33.7671 20.6366 33.8346 21.2944 33.0379 21.1733C33.0379 21.1733 32.7957 21.209 32.76 21.3646L32.7256 22.2314C32.7256 22.2314 32.7447 22.6649 32.2564 22.5616C32.1876 22.5616 29.5526 22.6126 29.3244 22.5438C29.3218 22.5387 29.2007 22.5221 29.1663 22.5909Z" stroke="#0D0140" stroke-width="0.01"/>
<path d="M25.8879 15.4458C25.8879 15.4458 25.9236 15.7926 25.9236 15.8793C25.9236 15.966 25.8662 20.8905 25.8662 20.8905C25.8792 21.0024 25.8601 21.1156 25.8111 21.2169C25.7621 21.3183 25.6853 21.4036 25.5896 21.4629C25.5896 21.4629 25.5029 21.4986 25.485 21.2564L25.5207 16.0539C25.5207 16.0539 25.5551 15.4165 25.884 15.4458" fill="white"/>
<path d="M25.8889 15.4457C25.8889 15.4457 25.9234 15.7912 25.9234 15.8779C25.9234 15.9645 25.866 20.8904 25.866 20.8904C25.8787 21.0025 25.8593 21.1159 25.8101 21.2174C25.7609 21.319 25.6839 21.4045 25.5881 21.464C25.5881 21.464 25.5014 21.4997 25.4836 21.2563L25.518 16.0538C25.518 16.0538 25.5575 15.4113 25.8889 15.4457Z" stroke="#0D0140" stroke-width="0.01"/>
<path d="M25.3154 21.515C25.3154 21.515 25.3499 16.6248 25.3333 16.5369C25.3167 16.4489 25.3499 16.607 25.3499 16.607C25.3499 16.607 25.2989 15.7592 25.5245 15.4112C25.5245 15.4112 25.4544 15.1167 25.0554 15.4801L25.0401 16.1914C25.0401 16.1914 25.0401 16.5904 24.6742 16.5738C24.6742 16.5738 24.2574 16.556 24.0661 16.7485C24.0661 16.7485 23.9629 17.1309 24.3606 17.0608C24.3606 17.0608 24.9865 17.0608 25.021 17.3158L24.9865 19.9368C24.9865 19.9368 25.1255 20.3702 24.6385 20.3702C24.6385 20.3702 24.0496 20.3371 24.0661 20.7016C24.0661 20.7016 24.1936 21.014 24.6921 20.9082C24.6921 20.9082 25.0554 20.9783 25.0401 21.3238V21.9841C25.0401 21.9841 25.0031 22.2391 25.3499 22.2607H28.0563C28.0563 22.2607 28.194 22.2786 28.194 22.1039C28.194 22.1039 28.1774 21.9675 27.9696 21.9675L25.7157 21.928C25.7157 21.928 25.3562 22.0555 25.3154 21.515Z" fill="white"/>
<path d="M25.7844 21.5456C25.7844 21.5456 25.7156 21.7891 25.9744 21.7355H27.7591L28.2448 21.8388C28.2448 21.8388 28.7547 21.7113 28.2448 21.4398C28.2448 21.4398 26.65 21.4589 26.5111 21.4232C26.5111 21.4232 26.1822 21.3365 26.112 21.3199C26.112 21.3199 25.9387 21.2511 25.7831 21.5456" fill="white"/>
<path d="M25.7834 21.5458C25.7834 21.5458 25.7145 21.7905 25.9746 21.737H27.7593L28.2463 21.8415C28.2463 21.8415 28.7562 21.7204 28.2463 21.4413C28.2463 21.4413 26.6503 21.4604 26.5113 21.4247L26.1123 21.3214C26.1123 21.3214 25.9389 21.2551 25.7834 21.5458Z" stroke="#0D0140" stroke-width="0.01"/>
<path d="M28.7496 21.8007C28.7496 21.8007 28.4156 21.8007 28.4373 22.2252C28.4478 22.3184 28.4929 22.4042 28.5638 22.4656C28.6346 22.527 28.726 22.5595 28.8197 22.5567C28.9089 22.5396 28.988 22.4883 29.0399 22.4137C29.0918 22.3392 29.1125 22.2473 29.0976 22.1577C29.0976 22.1577 28.9064 21.7229 28.7509 21.7943" fill="white"/>
<path d="M28.9918 21.6197C28.9918 21.6197 29.1473 21.4463 29.2467 21.4463C29.2467 21.4463 30.9805 21.6018 31.2749 21.394C31.2749 21.394 31.5299 21.343 31.6038 21.394C31.6038 21.394 31.8588 21.6018 31.8588 21.7229C31.8588 21.7229 31.8422 21.881 31.5312 21.7943L29.466 21.8109C29.466 21.8109 28.928 21.9384 28.9803 21.6197" fill="white"/>
<path d="M28.9921 21.6195C28.9921 21.6195 29.1477 21.4449 29.2471 21.4449C29.2471 21.4449 30.9821 21.6017 31.2766 21.3939C31.2766 21.3939 31.5316 21.3416 31.6068 21.3939C31.6068 21.3939 31.8617 21.6017 31.8617 21.724C31.8617 21.724 31.8439 21.8808 31.5328 21.7941L29.4676 21.8107C29.4676 21.8107 28.9399 21.928 28.9921 21.6195Z" stroke="#0D0140" stroke-width="0.01"/>
<path d="M29.27 22.1398C29.27 22.1398 29.27 22.0021 29.5109 22.0021L31.9407 21.9843C31.9407 21.9843 32.165 22.1041 32.165 21.6885C32.165 21.6885 32.2543 19.798 32.2619 17.7162C32.2619 17.098 32.2925 16.4414 32.2696 15.8448C32.2696 15.8448 32.2173 15.5899 32.1421 15.5325C32.1421 15.5325 32.1421 15.2546 32.4379 15.3604C32.4379 15.3604 32.6928 15.377 32.6278 15.7747L32.6444 16.3815C32.6444 16.3815 32.5921 16.6365 33.0612 16.5727C33.0612 16.5727 33.5291 16.6416 33.5457 16.815C33.5457 16.815 33.6859 17.163 33.1313 17.1273H32.7387C32.6872 17.1592 32.6471 17.2066 32.6242 17.2627C32.6013 17.3188 32.5968 17.3808 32.6112 17.4396L32.559 19.9548C32.559 19.9548 32.5233 20.3882 32.9414 20.3717C32.9414 20.3717 33.3748 20.3538 33.4602 20.4928C33.4602 20.4928 33.7573 20.9262 33.1148 20.8918C33.1148 20.8918 32.7158 20.8739 32.6291 20.9428C32.6291 20.9428 32.5602 21.0307 32.5016 21.8453C32.5016 21.8453 32.536 22.331 32.1714 22.2788C32.1714 22.2788 29.7608 22.3119 29.5364 22.2609C29.5364 22.2609 29.2929 22.331 29.2585 22.1334" fill="white"/>
<path d="M26.1478 15.289L26.0968 20.856C26.0968 20.856 26.0789 21.111 26.5124 21.1671C26.5124 21.1671 27.0223 21.2193 27.137 21.1671C27.137 21.1671 27.4646 21.1492 28.3162 21.1849C28.3162 21.1849 28.524 21.3914 28.5406 21.1327C28.5406 21.1327 28.6795 16.6224 28.6107 15.6867C28.6107 15.6867 28.5941 15.289 28.2971 15.2711C28.2971 15.2711 26.9802 15.3744 26.8591 15.2711L26.339 15.1322C26.339 15.1322 26.1299 15.1487 26.1478 15.289Z" fill="white"/>
<path d="M31.6446 15.4968L31.628 20.9785C31.628 20.9785 31.767 21.4654 31.9926 21.4144C32.0189 21.3233 32.0364 21.2298 32.0449 21.1353L32.115 15.9086C32.115 15.9086 31.9403 15.0761 31.6446 15.493" fill="white"/>
<path d="M31.6446 15.4968L31.628 20.9785C31.628 20.9785 31.767 21.4654 31.9926 21.4144C32.0189 21.3233 32.0364 21.2298 32.0449 21.1353L32.115 15.9086C32.115 15.9086 31.9403 15.0761 31.6446 15.493" stroke="#0D0140" stroke-width="0.01"/>
<path d="M31.6446 15.4968L31.628 20.9785C31.628 20.9785 31.767 21.4655 31.9926 21.4145C32.0189 21.3233 32.0364 21.2298 32.0449 21.1353L32.115 15.9086C32.115 15.9086 31.9403 15.08 31.6446 15.4968Z" stroke="#0D0140" stroke-width="0.01"/>
<path d="M28.8889 15.5439C28.8889 15.5439 28.8366 18.161 28.8532 18.249L28.8213 20.4519L28.7499 21.2167C28.7499 21.2167 28.8532 21.3748 28.9412 21.2703C28.9412 21.2703 29.4957 21.1326 29.8424 21.1836C29.8424 21.1836 30.9528 21.2881 31.1784 21.1148C31.1784 21.1148 31.3518 21.2014 31.4041 20.9235C31.4041 20.9235 31.4729 16.0678 31.4385 15.9811C31.4385 15.9811 31.5073 15.2889 31.4729 15.2162C31.4729 15.2162 31.4551 15.0582 31.1619 15.1958C31.1619 15.1958 31.195 15.3361 29.548 15.2851C29.548 15.2851 28.9233 15.266 28.8889 15.54" fill="white"/>
<path d="M28.3534 17.1475L28.1966 17.4777C28.1966 17.4777 27.8167 19.1591 27.609 19.5059C27.609 19.5059 27.5745 19.8539 27.2788 19.576C27.2788 19.576 26.6019 17.4432 26.5674 17.3731L26.3418 17.2176C26.3418 17.2176 26.2054 17.0264 26.4463 17.0098L27.0837 17.0264C27.0837 17.0264 27.2915 17.1998 27.0136 17.3923C27.0136 17.3923 27.048 17.6689 27.4126 18.7257C27.4126 18.7257 27.5159 19.1247 27.6383 18.8302L27.9901 17.5937L27.8856 17.2291C27.8856 17.2291 27.7811 17.0557 27.9379 17.0391C27.9379 17.0391 28.3024 17.0047 28.3534 17.1424" fill="#0D0140"/>
<path d="M29.3604 17.4256L29.3413 19.2638L29.2916 19.4028C29.2916 19.4028 29.117 19.6272 29.2381 19.645C29.2381 19.645 29.0838 19.7495 30.3471 19.7725C30.3471 19.7725 30.8341 19.8592 30.713 19.2345C30.713 19.2345 30.6607 19.0102 30.4861 19.3391C30.4861 19.3391 30.4338 19.6157 29.8117 19.529C29.7358 19.4639 29.6864 19.3732 29.6728 19.274V18.5092C29.6728 18.5092 29.6536 18.3179 29.9494 18.3371C29.9494 18.3371 30.2783 18.5449 30.3318 18.4569C30.3318 18.4569 30.4593 18.1803 30.3318 18.0069C30.3318 18.0069 30.175 17.9903 30.1585 18.0592C30.1585 18.0592 30.0552 18.267 29.7595 18.1446C29.6828 17.9887 29.6647 17.8104 29.7085 17.6423C29.7085 17.6423 29.674 17.2089 29.9634 17.2433C29.9634 17.2433 30.3102 17.3121 30.3459 17.4179C30.3459 17.4179 30.4326 17.627 30.5205 17.3835L30.4338 17.0839C30.4338 17.0839 30.3841 16.9565 30.2962 16.9972C30.2962 16.9972 29.7072 17.0839 29.6358 17.0125L29.1679 17.0661C29.1596 17.092 29.1567 17.1194 29.1593 17.1465C29.1619 17.1736 29.17 17.1999 29.1831 17.2238C29.1963 17.2477 29.2141 17.2686 29.2356 17.2853C29.2571 17.302 29.2818 17.3142 29.3082 17.321C29.3248 17.3332 29.3382 17.3491 29.3473 17.3675C29.3564 17.386 29.3609 17.4063 29.3604 17.4269" fill="#0D0140"/>
</g>
<defs>
<filter id="filter0_dd_29223_3833" x="-5.24614" y="-3.90576" width="78.4167" height="78.4167" filterUnits="userSpaceOnUse" color-interpolation-filters="sRGB">
<feFlood flood-opacity="0" result="BackgroundImageFix"/>
<feColorMatrix in="SourceAlpha" type="matrix" values="0 0 0 0 0 0 0 0 0 0 0 0 0 0 0 0 0 0 127 0" result="hardAlpha"/>
<feOffset dy="11"/>
<feGaussianBlur stdDeviation="11.5"/>
<feComposite in2="hardAlpha" operator="out"/>
<feColorMatrix type="matrix" values="0 0 0 0 0.65098 0 0 0 0 0.129412 0 0 0 0 0.192157 0 0 0 0.13 0"/>
<feBlend mode="normal" in2="BackgroundImageFix" result="effect1_dropShadow_29223_3833"/>
<feColorMatrix in="SourceAlpha" type="matrix" values="0 0 0 0 0 0 0 0 0 0 0 0 0 0 0 0 0 0 127 0" result="hardAlpha"/>
<feOffset dy="4"/>
<feGaussianBlur stdDeviation="2"/>
<feComposite in2="hardAlpha" operator="out"/>
<feColorMatrix type="matrix" values="0 0 0 0 0.65098 0 0 0 0 0.129412 0 0 0 0 0.192157 0 0 0 0.12 0"/>
<feBlend mode="normal" in2="effect1_dropShadow_29223_3833" result="effect2_dropShadow_29223_3833"/>
<feBlend mode="normal" in="SourceGraphic" in2="effect2_dropShadow_29223_3833" result="shape"/>
</filter>
</defs>
</svg>
