<svg width="32" height="33" viewBox="0 0 32 33" fill="none" xmlns="http://www.w3.org/2000/svg">
<path fill-rule="evenodd" clip-rule="evenodd" d="M16.1223 32.0297C17.2724 32.0297 18.0829 31.2757 18.0829 31.2757C18.0829 31.2757 21.5706 31.1625 22.8337 31.1248C24.0967 31.0871 24.8886 30.6347 25.0203 29.8427C25.1525 29.051 25.6048 26.3362 25.718 25.639C25.8501 24.9413 26.0006 24.7341 26.4533 24.3569C26.9246 23.9987 30.0916 21.4159 30.9401 20.7186C31.8637 20.002 32.0709 18.5317 31.3924 17.7967C31.3358 17.74 32.7874 16.081 31.3924 14.5539C31.2226 14.3465 32.5045 12.254 30.4688 10.972C29.9598 10.6515 31.3737 8.16305 28.1497 7.03184C27.9425 6.95639 28.4511 3.61962 24.3606 3.61962C24.2851 3.61962 23.2482 0.000182148 19.1385 1.41388C19.1385 1.41388 17.9322 0 16.0279 0C14.1427 0 12.8797 1.41388 12.8797 1.41388C8.76986 -8.69024e-08 7.73305 3.61962 7.6576 3.61962C3.54791 3.61962 4.05693 6.95657 3.86831 7.03184C0.644709 8.16305 2.03963 10.6515 1.53061 10.972C-0.505274 12.254 0.795428 14.3465 0.606984 14.5539C-0.788122 16.081 0.663663 17.74 0.625938 17.7967C-0.0717063 18.5317 0.154645 20.0022 1.0595 20.7186C1.92664 21.4159 5.07497 23.9987 5.54626 24.3569C6.01755 24.7341 6.16845 24.9413 6.28145 25.639C6.39462 26.3362 6.86591 29.0512 6.97909 29.8427C7.11104 30.6347 7.92168 31.0871 9.18483 31.1248C10.448 31.1625 14.1431 31.2757 14.1431 31.2757C14.1431 31.2757 14.9535 32.0297 16.1223 32.0297Z" fill="#CC2229"/>
<path fill-rule="evenodd" clip-rule="evenodd" d="M16.1226 31.2192C17.0839 31.2192 18.0455 30.2766 18.0455 30.2766C18.0455 30.2766 29.8659 20.4356 30.5256 19.8889C30.9218 19.5685 30.8464 18.5504 30.5066 18.8145C30.2994 18.984 29.0173 20.1529 28.9608 20.1152C28.9045 20.0963 28.848 19.9076 28.9235 19.7383C28.9235 19.7383 30.4505 17.9095 30.7897 17.3815C31.4308 16.3824 30.9218 15.4211 30.6575 15.666C30.4126 15.9111 29.1682 17.1553 29.074 17.2685C28.9608 17.3626 28.7913 17.0232 28.9045 16.8723C29.0363 16.7218 29.2626 16.401 30.2429 15.1003C31.2232 13.7996 30.4505 11.4242 29.8471 12.1594C29.8471 12.1594 28.546 13.7996 28.4518 13.9316C28.3578 14.0635 28.1881 13.6864 28.2635 13.5357C28.339 13.385 28.565 12.9325 29.3193 11.4809C30.2242 9.78415 28.2635 7.48418 27.7168 8.42677C27.7168 8.42677 26.7177 10.1989 26.6423 10.3684C26.5479 10.5383 26.2842 10.2365 26.3408 10.1233C26.3786 9.99136 26.473 9.67097 27.1136 7.86107C27.8679 5.74973 24.6439 4.16618 24.2858 5.05209L23.4376 7.18238C23.3622 7.38978 23.0791 7.16343 23.0604 7.0692C23.0604 6.99375 23.249 6.35279 23.5127 4.69379C23.8145 2.78966 19.7236 1.52669 19.3844 2.94057C19.0449 4.29795 18.9131 5.29703 18.8754 5.35353C18.8377 5.4102 18.5736 5.29703 18.4982 5.27807C18.4231 5.24035 18.5548 2.75194 18.5548 2.75194C18.5548 2.75194 18.8002 1.41351 16.1419 1.41351C13.465 1.41351 13.5028 2.73317 13.5028 2.73317C13.5028 2.73317 13.6347 5.22176 13.5593 5.25948C13.465 5.29721 13.2199 5.39143 13.1822 5.33494C13.1445 5.29721 13.0125 4.29813 12.6732 2.92179C12.3338 1.52687 8.22414 2.77089 8.54453 4.67502C8.80843 6.33402 8.99705 6.97498 8.9781 7.05043C8.9781 7.14465 8.67648 7.37082 8.60103 7.16361C8.52558 6.97516 7.77144 5.03332 7.77144 5.03332C7.41332 4.14723 4.18954 5.74973 4.94368 7.86107C5.56588 9.65202 5.67905 9.97259 5.71659 10.1045C5.77327 10.2177 5.5092 10.5193 5.41516 10.3497C5.32075 10.1989 4.32167 8.40799 4.32167 8.40799C3.79388 7.46541 1.83326 9.76538 2.71935 11.4621C3.49226 12.9137 3.71843 13.3662 3.79388 13.5169C3.86933 13.6678 3.69966 14.0447 3.60544 13.9317C3.49226 13.7998 2.21033 12.1408 2.21033 12.1408C1.60709 11.4056 0.83418 13.7998 1.81449 15.1005C2.7948 16.4012 3.02097 16.703 3.13415 16.8537C3.26609 17.0236 3.09642 17.3438 2.98343 17.2499C2.88902 17.1367 1.645 15.8924 1.39988 15.6474C1.13598 15.4023 0.608011 16.3637 1.26775 17.3817C1.58832 17.8907 3.13415 19.7196 3.13415 19.7196C3.2096 19.889 3.13415 20.0777 3.09642 20.1154C3.03974 20.1344 1.75781 18.9652 1.53164 18.7959C1.21107 18.5319 1.1358 19.5499 1.51269 19.889C2.17261 20.4168 14.0683 30.2768 14.0683 30.2768C14.0683 30.2768 15.18 31.2192 16.1226 31.2192ZM12.5407 30.069C12.6539 30.1634 12.7293 30.3331 12.6539 30.3331C12.1071 30.2954 9.65642 30.2199 8.92124 30.1822C8.1106 30.1445 7.88443 29.7676 7.73353 28.9378C7.58263 28.1084 7.24347 26.0913 7.20574 25.9592C7.18679 25.827 7.33769 25.846 7.37541 25.8648C7.41296 25.8837 11.4661 29.2019 12.5407 30.069ZM19.6102 30.069C19.4971 30.1634 19.422 30.3331 19.4971 30.3331C20.0438 30.2954 22.4945 30.2199 23.2299 30.1822C24.0593 30.1445 24.2856 29.7676 24.4178 28.9378C24.5683 28.1084 24.9268 26.0913 24.9455 25.9592C24.9641 25.827 24.8134 25.846 24.7757 25.8648C24.7569 25.8837 20.6848 29.2019 19.6102 30.069Z" fill="#F6D330"/>
<path fill-rule="evenodd" clip-rule="evenodd" d="M14.9352 21.2841C14.9352 21.2464 14.8975 21.2087 14.841 21.2087L14.2376 21.2841C14.1811 21.2841 14.1433 21.3215 14.1433 21.3782L15.2933 27.8447C15.2933 27.9387 15.3688 27.9952 15.463 27.9952C15.4829 27.9955 15.5026 27.9918 15.521 27.9844C15.5394 27.9769 15.5562 27.9658 15.5702 27.9518C15.5843 27.9378 15.5954 27.9211 15.6029 27.9027C15.6104 27.8843 15.6141 27.8646 15.6139 27.8447L14.9352 21.2841ZM12.1639 21.9814C12.145 21.9247 12.0885 21.906 12.0508 21.906L11.4851 22.1513C11.4286 22.1702 11.4096 22.2079 11.4096 22.2644L14.1998 28.2218C14.2186 28.2972 14.313 28.3539 14.3885 28.3349C14.4827 28.316 14.5204 28.2218 14.5015 28.1463L12.1639 21.9814ZM9.71326 23.1503C9.69431 23.1126 9.63781 23.0937 9.60009 23.1126L9.11002 23.4895C9.0723 23.5085 9.05335 23.565 9.0723 23.6027L13.2762 28.6739C13.3139 28.7494 13.4082 28.7871 13.4836 28.7306C13.5591 28.6929 13.5778 28.5985 13.5401 28.523L9.71326 23.1503ZM17.2164 21.2654C17.2164 21.2087 17.2541 21.171 17.3108 21.171L17.9142 21.2654C17.9709 21.2654 18.0083 21.3031 18.0083 21.3404L16.8585 27.8259C16.8585 27.901 16.783 27.9764 16.6886 27.9764C16.6132 27.9764 16.5377 27.901 16.5377 27.8259L17.2164 21.2654ZM19.9875 21.9437C20.0064 21.906 20.0442 21.8682 20.1007 21.887L20.6663 22.1323C20.723 22.1323 20.7418 22.189 20.7418 22.2267L17.9518 28.184C17.914 28.2784 17.8386 28.3162 17.7631 28.2972C17.6687 28.2783 17.631 28.2028 17.65 28.1086L19.9875 21.9437ZM22.4198 23.1126C22.4575 23.0749 22.5138 23.0559 22.5515 23.0937L23.0416 23.4706C23.0793 23.4895 23.0983 23.546 23.0793 23.5837L18.8756 28.655C18.8379 28.7304 18.7435 28.7494 18.668 28.7116C18.5926 28.6739 18.5548 28.5607 18.6113 28.5041L22.4198 23.1126ZM4.41587 17.08C5.05684 17.6078 5.41514 17.7777 5.82975 17.7777C6.18787 17.7777 6.43299 17.5513 6.43299 17.2309C6.43299 16.2506 4.35938 15.5153 4.35938 13.894C4.35938 12.9326 5.18878 12.1973 6.28227 12.1973C6.75356 12.1973 7.20608 12.3292 7.73387 12.6119V13.8563C7.07395 13.4792 6.77233 13.3662 6.43299 13.3662C6.07487 13.3662 5.82975 13.5546 5.82975 13.8375C5.82975 14.6292 7.97881 15.5907 7.97881 17.1744C7.97881 18.249 7.14922 19.0407 6.05592 19.0407C5.52813 19.0407 5.03788 18.8898 4.41569 18.5129V17.08H4.41587ZM9.14775 12.2915H10.6558V15.0062H12.3148V12.2915H13.8229V18.9463H12.3148V16.1562H10.6558V18.9463H9.14775V12.2915ZM15.1803 12.2915H18.6868V13.4415H16.7074V14.9875H18.6303V16.1375H16.7074V17.7965H18.7812V18.9463H15.1803V12.2915ZM19.8557 12.2915H21.364V17.7587H23.3811V18.9463H19.8557V12.2915ZM24.0219 12.2915H25.53V17.7587H27.6603V18.9463H24.0219V12.2915Z" fill="#CC2229"/>
</svg>
