<svg width="32" height="32" viewBox="0 0 32 32" fill="none" xmlns="http://www.w3.org/2000/svg">
<g filter="url(#filter0_dd_29223_3909)">
<path d="M5.69989 28.9173C5.59943 28.8531 5.56803 28.7247 5.6371 28.6254C5.70617 28.532 5.8443 28.5028 5.95104 28.567C6.01382 28.6079 6.08289 28.6488 6.15823 28.6896C6.67309 28.9815 7.15655 29.1275 7.5521 29.1275C7.90999 29.1275 8.20509 28.9991 8.38717 28.748C8.39973 28.7305 8.41229 28.7188 8.41229 28.7071C8.46252 28.6254 8.50647 28.5437 8.53158 28.4619C8.58181 28.2926 8.57553 28.1175 8.50019 27.9599C8.42484 27.7905 8.26788 27.6329 8.02929 27.4986C7.87232 27.4111 7.6714 27.3293 7.43281 27.2651C6.82378 27.1075 6.37799 26.8798 6.13312 26.582C5.86941 26.2492 5.85058 25.8522 6.13312 25.3677C6.32148 25.0466 6.70448 24.8481 7.19422 24.813C7.61489 24.7838 8.12347 24.8772 8.63832 25.1225C8.75134 25.175 8.79529 25.3034 8.73878 25.4027C8.68227 25.5078 8.54414 25.5486 8.4374 25.4961C7.99789 25.2859 7.57722 25.21 7.23189 25.2334C6.89912 25.2567 6.64169 25.3793 6.53495 25.572C6.34659 25.8931 6.34659 26.1442 6.50356 26.3368C6.67936 26.5587 7.04981 26.7338 7.55838 26.8681C7.83465 26.9382 8.06696 27.0374 8.2616 27.1483C8.58181 27.3293 8.79529 27.557 8.9083 27.8022C9.0276 28.0533 9.04016 28.3277 8.95853 28.5845C8.92086 28.7013 8.86435 28.8239 8.78901 28.9348C8.77017 28.9582 8.75762 28.9815 8.75134 28.9932C8.48135 29.3669 8.0544 29.5537 7.53955 29.5537C7.06237 29.5537 6.50356 29.3902 5.91336 29.0574C5.85685 29.0107 5.78151 28.9699 5.69989 28.9173Z" fill="#EA501F"/>
<path d="M9.71191 25.0115C9.71191 24.9006 9.81237 24.813 9.93795 24.813C10.0635 24.813 10.164 24.9006 10.164 25.0115V29.3493C10.164 29.4602 10.0635 29.5478 9.93795 29.5478C9.81237 29.5478 9.71191 29.4602 9.71191 29.3493V25.0115Z" fill="#EA501F"/>
<path d="M10.1766 27.7145C10.095 27.8021 9.95686 27.8196 9.8564 27.7437C9.76222 27.6678 9.74338 27.5394 9.825 27.446C10.1703 27.0548 10.5596 26.8154 10.9426 26.7103C11.2189 26.6344 11.4889 26.6286 11.7212 26.687C11.966 26.7512 12.1795 26.8796 12.3302 27.0781C12.4746 27.265 12.5562 27.5043 12.5562 27.7904V29.3434C12.5562 29.4602 12.4558 29.5536 12.3302 29.5536C12.2046 29.5536 12.1042 29.4602 12.1042 29.3434V27.7904C12.1042 27.5919 12.0539 27.4343 11.966 27.3175C11.8781 27.2066 11.7588 27.1307 11.6082 27.0898C11.4512 27.049 11.2691 27.0548 11.0745 27.1073C10.7731 27.1949 10.4592 27.3934 10.1766 27.7145Z" fill="#EA501F"/>
<path d="M14.7729 26.6462C15.2061 26.6462 15.5954 26.8097 15.8779 27.0724C16.1605 27.3352 16.3363 27.6971 16.3363 28.1C16.3363 28.5028 16.1605 28.8648 15.8779 29.1275C15.5954 29.3902 15.2061 29.5537 14.7729 29.5537C14.3396 29.5537 13.9504 29.3902 13.6678 29.1275C13.3853 28.8648 13.2095 28.5028 13.2095 28.1C13.2095 27.6971 13.3853 27.3352 13.6678 27.0724C13.9504 26.8097 14.3459 26.6462 14.7729 26.6462ZM15.564 27.3643C15.3631 27.1775 15.0805 27.0608 14.7729 27.0608C14.4652 27.0608 14.189 27.1775 13.9818 27.3643C13.7808 27.5512 13.6553 27.8139 13.6553 28.1C13.6553 28.386 13.7808 28.6488 13.9818 28.8356C14.1827 29.0224 14.4652 29.1392 14.7729 29.1392C15.0805 29.1392 15.3568 29.0224 15.564 28.8356C15.7649 28.6488 15.8905 28.386 15.8905 28.1C15.8905 27.8139 15.7649 27.5512 15.564 27.3643Z" fill="#EA501F"/>
<path d="M16.9761 26.8564C16.9761 26.7397 17.0765 26.6462 17.2021 26.6462C17.3277 26.6462 17.4281 26.7397 17.4281 26.8564V27.1191C17.447 27.1016 17.4595 27.0841 17.4784 27.0724C17.7609 26.8097 18.1502 26.6462 18.5834 26.6462C19.0167 26.6462 19.4059 26.8097 19.6885 27.0724C19.971 27.3352 20.1468 27.6971 20.1468 28.1C20.1468 28.5028 19.971 28.8648 19.6885 29.1275C19.4059 29.3902 19.0167 29.5537 18.5834 29.5537C18.1502 29.5537 17.7609 29.3902 17.4784 29.1275C17.4595 29.11 17.447 29.0925 17.4281 29.0808V30.9899C17.4281 31.1067 17.3277 31.2001 17.2021 31.2001C17.0765 31.2001 16.9761 31.1067 16.9761 30.9899V26.8564ZM19.3683 27.3643C19.1673 27.1775 18.8848 27.0608 18.5771 27.0608C18.2695 27.0608 17.9932 27.1775 17.786 27.3643C17.5851 27.5512 17.4595 27.8139 17.4595 28.1C17.4595 28.386 17.5851 28.6488 17.786 28.8356C17.9869 29.0224 18.2695 29.1392 18.5771 29.1392C18.8848 29.1392 19.1611 29.0224 19.3683 28.8356C19.5692 28.6488 19.6948 28.386 19.6948 28.1C19.6948 27.8139 19.5692 27.5512 19.3683 27.3643Z" fill="#EA501F"/>
<path d="M22.2696 26.6462C22.6526 26.6462 23.0042 26.7864 23.2617 27.0316C23.4751 27.2301 23.563 27.4286 23.6384 27.6387C23.833 28.2284 23.4626 28.2051 23.3496 28.2051H21.2713C21.2901 28.3452 21.3278 28.4736 21.3718 28.5904C21.4534 28.7714 21.5727 28.9056 21.7234 28.9991C21.8803 29.0925 22.0813 29.1392 22.3136 29.1392C22.5647 29.1392 22.8598 29.075 23.1863 28.9465C23.2993 28.8998 23.4312 28.9524 23.4814 29.0574C23.5316 29.1625 23.4751 29.2851 23.3621 29.3318C22.9854 29.4778 22.6338 29.5479 22.3199 29.5537C21.9996 29.5595 21.7171 29.4895 21.4848 29.3494C21.2525 29.2092 21.0516 29.0166 20.9574 28.748C20.7439 28.1584 20.7376 27.5745 21.2776 27.0316C21.5287 26.7805 21.8866 26.6462 22.2696 26.6462ZM22.9477 27.3293C22.7656 27.1658 22.5271 27.0666 22.2696 27.0666C22.0122 27.0666 21.7736 27.1658 21.5915 27.3293C21.4597 27.4519 21.3529 27.6037 21.2964 27.7789H23.2491C23.18 27.6037 23.0796 27.4519 22.9477 27.3293Z" fill="#EA501F"/>
<path d="M25.6974 26.6462C26.0804 26.6462 26.432 26.7864 26.6894 27.0316C26.9029 27.2301 26.9908 27.4286 27.0661 27.6387C27.2608 28.2284 26.8903 28.2051 26.7773 28.2051H24.699C24.7179 28.3452 24.7556 28.4736 24.7995 28.5904C24.8811 28.7714 25.0004 28.9056 25.1511 28.9991C25.3081 29.0925 25.509 29.1392 25.7413 29.1392C25.9925 29.1392 26.2876 29.075 26.614 28.9465C26.7271 28.8998 26.8589 28.9524 26.9091 29.0574C26.9594 29.1625 26.9029 29.2851 26.7899 29.3318C26.4131 29.4778 26.0615 29.5479 25.7476 29.5537C25.4274 29.5595 25.1448 29.4895 24.9125 29.3494C24.6802 29.2092 24.4793 29.0166 24.3851 28.748C24.1716 28.1584 24.1654 27.5745 24.7053 27.0316C24.9565 26.7805 25.3144 26.6462 25.6974 26.6462ZM26.3755 27.3293C26.1934 27.1658 25.9548 27.0666 25.6974 27.0666C25.4399 27.0666 25.2013 27.1658 25.0193 27.3293C24.8874 27.4519 24.7807 27.6037 24.7242 27.7789H26.6768C26.6078 27.6037 26.5073 27.4519 26.3755 27.3293Z" fill="#EA501F"/>
<path d="M7.28821 7.66606H12.0161C12.1605 6.1773 12.6063 4.84033 13.2467 3.80696C14.0943 2.44081 15.2998 1.6001 16.6623 1.6001C18.0248 1.6001 19.224 2.44665 20.0779 3.80696C20.7184 4.8345 21.1641 6.1773 21.3086 7.66606H26.0301C26.5889 7.66606 27.0912 8.09225 27.0473 8.61185L26.0992 20.9131C25.9799 22.4544 24.9376 23.336 23.4245 23.336H9.90015C8.21746 23.336 7.32588 22.2442 7.22542 20.9131L6.27106 8.61769C6.23339 8.09809 6.7294 7.66606 7.28821 7.66606ZM13.1965 7.66606H20.1156C19.9775 6.3758 19.5945 5.2315 19.0482 4.35576C18.4203 3.33406 17.5664 2.69769 16.6623 2.69769C15.7519 2.69769 14.9043 3.33406 14.2638 4.3616C13.7176 5.2315 13.3409 6.38164 13.1965 7.66606Z" fill="#EA501F"/>
<path d="M13.2281 19.0216C13.0083 18.8814 12.9518 18.607 13.1025 18.4027C13.2532 18.1984 13.5483 18.1458 13.768 18.2859C13.9062 18.3735 14.0506 18.4611 14.2076 18.5487C15.3126 19.1733 16.3298 19.4828 17.1774 19.4828C17.9434 19.4828 18.565 19.2142 18.9605 18.6713C18.9856 18.6304 19.0108 18.607 19.017 18.5895C19.1301 18.4202 19.2117 18.2392 19.2682 18.0641C19.3812 17.7021 19.3624 17.3285 19.2054 16.9898C19.0359 16.6337 18.7094 16.2892 18.2008 16.0032C17.8618 15.8105 17.4411 15.6412 16.9325 15.5128C15.6391 15.1741 14.6847 14.6954 14.1699 14.0532C13.6048 13.3468 13.5609 12.4944 14.1636 11.461C14.5654 10.7779 15.388 10.3517 16.4302 10.2758C17.3281 10.2116 18.408 10.4101 19.5068 10.9297C19.7454 11.0406 19.8396 11.3092 19.714 11.5311C19.5884 11.7529 19.3059 11.8405 19.0673 11.7237C18.1317 11.28 17.2402 11.1107 16.4993 11.1632C15.7898 11.2158 15.2498 11.4727 15.0112 11.8814C14.6094 12.5644 14.6157 13.1016 14.9422 13.5102C15.3189 13.9831 16.1037 14.3509 17.1962 14.637C17.7864 14.7946 18.2887 14.9931 18.7031 15.2267C19.3875 15.612 19.8458 16.0966 20.0907 16.622C20.3418 17.165 20.3732 17.7371 20.2037 18.2976C20.1284 18.5487 20.0091 18.7997 19.8458 19.0449C19.8082 19.0975 19.783 19.1383 19.7642 19.1675C19.1803 19.9674 18.2824 20.3644 17.1899 20.3702C16.1665 20.3702 14.9736 20.0199 13.7178 19.3076C13.5609 19.2259 13.3976 19.1325 13.2281 19.0216Z" fill="white"/>
</g>
<defs>
<filter id="filter0_dd_29223_3909" x="-23" y="-12" width="78" height="78" filterUnits="userSpaceOnUse" color-interpolation-filters="sRGB">
<feFlood flood-opacity="0" result="BackgroundImageFix"/>
<feColorMatrix in="SourceAlpha" type="matrix" values="0 0 0 0 0 0 0 0 0 0 0 0 0 0 0 0 0 0 127 0" result="hardAlpha"/>
<feOffset dy="11"/>
<feGaussianBlur stdDeviation="11.5"/>
<feComposite in2="hardAlpha" operator="out"/>
<feColorMatrix type="matrix" values="0 0 0 0 0.917647 0 0 0 0 0.313726 0 0 0 0 0.121569 0 0 0 0.12 0"/>
<feBlend mode="normal" in2="BackgroundImageFix" result="effect1_dropShadow_29223_3909"/>
<feColorMatrix in="SourceAlpha" type="matrix" values="0 0 0 0 0 0 0 0 0 0 0 0 0 0 0 0 0 0 127 0" result="hardAlpha"/>
<feOffset dy="4"/>
<feGaussianBlur stdDeviation="2"/>
<feComposite in2="hardAlpha" operator="out"/>
<feColorMatrix type="matrix" values="0 0 0 0 0.917647 0 0 0 0 0.313726 0 0 0 0 0.121569 0 0 0 0.13 0"/>
<feBlend mode="normal" in2="effect1_dropShadow_29223_3909" result="effect2_dropShadow_29223_3909"/>
<feBlend mode="normal" in="SourceGraphic" in2="effect2_dropShadow_29223_3909" result="shape"/>
</filter>
</defs>
</svg>
