<svg width="25" height="24" viewBox="0 0 25 24" fill="none" xmlns="http://www.w3.org/2000/svg">
<g opacity="0.5">
<path d="M19.0427 8.53429C19.0473 8.32648 18.987 8.12242 18.8702 7.95046C18.7533 7.77851 18.5857 7.6472 18.3907 7.57481C18.1957 7.50242 17.983 7.49253 17.7822 7.54652C17.5813 7.60052 17.4024 7.71571 17.2701 7.87608L12.0242 13.9952L6.78014 7.87608C6.69855 7.76514 6.59496 7.67224 6.47577 7.60318C6.35658 7.53412 6.22437 7.49039 6.08749 7.47474C5.9506 7.45909 5.81199 7.47186 5.68027 7.51223C5.54855 7.5526 5.42656 7.61972 5.322 7.70938C5.21744 7.79903 5.13262 7.9093 5.07268 8.03326C5.01274 8.15723 4.97908 8.29223 4.97376 8.42981C4.96845 8.56738 4.99155 8.70457 5.04175 8.83278C5.09195 8.961 5.1681 9.07747 5.26544 9.17491L11.2639 16.1808C11.3578 16.2908 11.4745 16.3791 11.6059 16.4397C11.7373 16.5003 11.8804 16.5317 12.0251 16.5317C12.1698 16.5317 12.3129 16.5003 12.4443 16.4397C12.5757 16.3791 12.6925 16.2908 12.7864 16.1808L18.7906 9.17491C18.948 8.99793 19.0374 8.77093 19.043 8.53429H19.0427Z" fill="#171725"/>
</g>
</svg>
