<svg width="78" height="68" viewBox="0 0 78 68" fill="none" xmlns="http://www.w3.org/2000/svg">
<g filter="url(#filter0_dd_29223_2705)">
<path fill-rule="evenodd" clip-rule="evenodd" d="M23 33.3924L23.7823 30.7317H25.1295L25.4697 31.8687L26.447 30.7264H27.8769L27.1327 33.39L26.0522 33.3937L26.447 32.0196L25.193 33.3937H24.6617L24.2747 31.9237L23.8398 33.3937L23 33.3924ZM32.5166 30.7259L35.8358 30.7317L35.6365 31.5909H34.4969L34.0287 33.3924L32.9782 33.3937L33.415 31.5985H32.2932L32.5166 30.7259ZM41.4192 30.7308V31.3495H41.4209L41.2916 31.8642H42.4295C42.4295 31.8642 42.7059 31.8163 42.7218 31.5641C42.7349 31.341 42.5271 31.3566 42.5271 31.3566L41.4194 31.3526V30.7315L43.1335 30.7306C43.1335 30.7306 43.8672 30.7861 43.7958 31.421C43.7223 32.0555 43.0479 32.2579 43.0479 32.2579C43.0479 32.2579 43.0069 32.2985 43.0388 32.3223C43.0706 32.3457 43.3226 32.3932 43.3544 32.6306C43.3863 32.8685 43.2717 33.0415 43.2717 33.1135C43.2717 33.1842 43.2791 33.3269 43.3694 33.39H42.2861C42.2861 33.39 42.0929 33.3603 42.1094 33.1608C42.1254 32.9635 42.1345 32.7898 42.1345 32.7898C42.1345 32.7898 42.1185 32.5827 41.828 32.6075L41.0359 32.5997L40.8103 33.3926H39.8167L40.5731 30.731H41.4192V30.7308ZM48.9427 30.7308H49.9593L49.4668 32.6612H51.1397L50.9455 33.3946H48.248L48.9427 30.7308ZM54.3901 30.7286L55 33.3937H53.9424L53.8305 32.9318L53.8267 32.9229H52.5453L52.5408 32.9269L52.2314 33.3924L51.3357 33.3937L53.1443 30.7286L53.4948 31.5142L52.9702 32.2909L52.9854 32.2965H53.6651L53.6773 32.2951L53.4948 31.5142L53.1443 30.7286H54.3901ZM30.2467 31.3207C30.5692 31.3207 30.8869 31.4803 30.9371 31.7119C31.0902 32.4527 30.3002 32.77 30.3929 32.7234C29.9383 32.9488 29.2477 32.8765 29.1665 32.4095C29.0896 31.9605 29.4363 31.5184 29.7281 31.413C29.9279 31.341 30.0926 31.3104 30.2467 31.3207L30.2489 31.3138L30.2527 30.6231C30.0438 30.6274 29.8086 30.6532 29.6231 30.6896C28.8266 30.8423 27.8227 31.5659 27.9995 32.482C28.1484 33.2562 29.1986 33.6717 30.3762 33.4441C31.4804 33.2321 32.2033 32.3819 32.048 31.6277C31.8986 30.898 31.0343 30.6231 30.2527 30.6231V31.2204L30.2467 31.3207ZM37.9668 31.3207C38.289 31.3207 38.6077 31.4803 38.655 31.7119C38.8111 32.4527 38.0201 32.77 38.1144 32.7234C37.6592 32.9488 36.9679 32.8765 36.8874 32.4095C36.8094 31.9605 37.1562 31.5184 37.4487 31.413C37.6478 31.341 37.8148 31.3104 37.9668 31.3207L37.969 31.3138L37.9735 30.6231C37.7618 30.6282 37.5508 30.6505 37.3426 30.6896C36.5467 30.8423 35.5413 31.5659 35.7181 32.482C35.8668 33.2562 36.9197 33.6717 38.0952 33.4441C39.2005 33.2321 39.9246 32.3819 39.7686 31.6277C39.6187 30.898 38.7547 30.6231 37.9733 30.6231V31.2204L37.9668 31.3207ZM46.3598 31.3138C46.6819 31.3316 46.9976 31.4803 47.0469 31.7119C47.2009 32.4527 46.4106 32.77 46.5056 32.7234C46.0501 32.9488 45.359 32.8765 45.2781 32.4095C45.2005 31.9605 45.5463 31.5184 45.8395 31.413C46.0793 31.3258 46.173 31.3015 46.3598 31.3138L46.3643 30.6231C46.1525 30.6283 45.9415 30.6506 45.7334 30.6896C44.9388 30.8423 43.9343 31.5659 44.1102 32.482C44.2591 33.2562 45.3111 33.6717 46.4875 33.4441C47.5917 33.2321 48.3158 32.3819 48.1586 31.6277C48.0097 30.898 47.1454 30.6231 46.3643 30.6231V31.2204L46.3598 31.3138ZM39.0119 12C43.5025 12 47.0373 15.6169 47.0373 20.0222C47.0373 24.4537 43.4434 28.0451 39.0119 28.0451C34.5805 28.0451 30.989 24.4537 30.989 20.0222C30.989 15.5908 34.5807 12 39.0119 12ZM38.9941 21.7043L36.7496 14.2583L33.8437 23.7916H34.389C34.389 23.7916 34.7561 22.1332 35.3509 21.1425C35.6757 20.6054 36.1758 20.1656 36.8446 20.1781C37.3159 20.1865 37.7234 20.4447 38.233 21.1558C38.5393 21.5837 39.011 22.672 39.011 22.672C39.011 22.672 39.4828 21.5852 39.7902 21.1558C40.2978 20.4447 40.7058 20.1865 41.1779 20.1781C41.8454 20.1654 42.3474 20.6054 42.6709 21.1434C43.267 22.133 43.6331 23.7914 43.6331 23.7914H44.1795L41.2718 14.2581L39.0273 21.7043L39.0121 21.7179L38.9941 21.7043Z" fill="#0D0140"/>
</g>
<defs>
<filter id="filter0_dd_29223_2705" x="0" y="0" width="78" height="67.5062" filterUnits="userSpaceOnUse" color-interpolation-filters="sRGB">
<feFlood flood-opacity="0" result="BackgroundImageFix"/>
<feColorMatrix in="SourceAlpha" type="matrix" values="0 0 0 0 0 0 0 0 0 0 0 0 0 0 0 0 0 0 127 0" result="hardAlpha"/>
<feOffset dy="11"/>
<feGaussianBlur stdDeviation="11.5"/>
<feComposite in2="hardAlpha" operator="out"/>
<feColorMatrix type="matrix" values="0 0 0 0 0.121569 0 0 0 0 0.172549 0 0 0 0 0.215686 0 0 0 0.13 0"/>
<feBlend mode="normal" in2="BackgroundImageFix" result="effect1_dropShadow_29223_2705"/>
<feColorMatrix in="SourceAlpha" type="matrix" values="0 0 0 0 0 0 0 0 0 0 0 0 0 0 0 0 0 0 127 0" result="hardAlpha"/>
<feOffset dy="4"/>
<feGaussianBlur stdDeviation="2"/>
<feComposite in2="hardAlpha" operator="out"/>
<feColorMatrix type="matrix" values="0 0 0 0 0 0 0 0 0 0 0 0 0 0 0 0 0 0 0.12 0"/>
<feBlend mode="normal" in2="effect1_dropShadow_29223_2705" result="effect2_dropShadow_29223_2705"/>
<feBlend mode="normal" in="SourceGraphic" in2="effect2_dropShadow_29223_2705" result="shape"/>
</filter>
</defs>
</svg>
