<svg width="24" height="24" viewBox="0 0 24 24" fill="none" xmlns="http://www.w3.org/2000/svg">
<g clip-path="url(#clip0_29223_3049)">
<path d="M16.0003 12C16.0007 12.2337 15.9194 12.4601 15.7703 12.64L10.7703 18.64C10.6005 18.8442 10.3566 18.9727 10.0922 18.9971C9.82777 19.0214 9.56449 18.9398 9.36028 18.77C9.15606 18.6003 9.02763 18.3564 9.00325 18.092C8.97888 17.8275 9.06054 17.5642 9.23028 17.36L13.7103 12L9.39028 6.64003C9.30721 6.53774 9.24518 6.42004 9.20775 6.29371C9.17031 6.16737 9.15822 6.03488 9.17216 5.90385C9.1861 5.77282 9.2258 5.64584 9.28897 5.5302C9.35214 5.41456 9.43755 5.31255 9.54028 5.23003C9.6431 5.13845 9.76372 5.06909 9.8946 5.0263C10.0255 4.98351 10.1638 4.9682 10.3008 4.98135C10.4379 4.99449 10.5708 5.03579 10.6911 5.10268C10.8115 5.16956 10.9167 5.26058 11.0003 5.37003L15.8303 11.37C15.9558 11.5551 16.0156 11.7769 16.0003 12Z" fill="#0D0140"/>
</g>
<defs>
<clipPath id="clip0_29223_3049">
<rect width="24" height="24" fill="white" transform="matrix(0 -1 1 0 0 24)"/>
</clipPath>
</defs>
</svg>
