<svg width="24" height="24" viewBox="0 0 24 24" fill="none" xmlns="http://www.w3.org/2000/svg">
<path fill-rule="evenodd" clip-rule="evenodd" d="M16.642 3C19.949 3 22.639 5.69 22.639 8.998V16.175C22.639 19.482 19.949 22.173 16.642 22.173H7.998C4.691 22.173 2 19.482 2 16.175V8.998C2 5.69 4.691 3 7.998 3H16.642ZM16.642 4.5H7.998C5.518 4.5 3.5 6.518 3.5 8.998V16.175C3.5 18.655 5.518 20.673 7.998 20.673H16.642C19.122 20.673 21.139 18.655 21.139 16.175V15.895L17.8411 15.8956C15.9441 15.8956 14.4001 14.3526 14.3991 12.4566C14.3991 10.5586 15.9431 9.0146 17.8411 9.0136L21.139 9.013V8.998C21.139 6.518 19.122 4.5 16.642 4.5ZM21.139 10.513L17.8411 10.5136C16.7701 10.5146 15.8991 11.3856 15.8991 12.4556C15.8991 13.5246 16.7711 14.3956 17.8411 14.3956L21.139 14.395V10.513ZM18.2987 11.6436C18.7127 11.6436 19.0487 11.9796 19.0487 12.3936C19.0487 12.8076 18.7127 13.1436 18.2987 13.1436H17.9867C17.5727 13.1436 17.2367 12.8076 17.2367 12.3936C17.2367 11.9796 17.5727 11.6436 17.9867 11.6436H18.2987ZM12.685 7.5381C13.099 7.5381 13.435 7.8741 13.435 8.2881C13.435 8.7021 13.099 9.0381 12.685 9.0381H7.286C6.872 9.0381 6.536 8.7021 6.536 8.2881C6.536 7.8741 6.872 7.5381 7.286 7.5381H12.685Z" fill="#359766"/>
</svg>
