<svg width="32" height="32" viewBox="0 0 32 32" fill="none" xmlns="http://www.w3.org/2000/svg">
<g clip-path="url(#clip0_0_55)">
<path d="M15.6074 0.0943889C16.3048 -0.299204 17.1562 0.613869 16.7856 1.36798C16.5704 1.9827 15.7544 2.14616 15.3376 1.67759C14.896 1.2279 15.04 0.339064 15.6074 0.0943889ZM8.10579 0.96954C8.52947 0.780796 9.06579 1.20088 9.02259 1.70062C9.06755 2.24313 8.45459 2.64244 8.02275 2.38461C7.45059 2.14478 7.51603 1.13958 8.10579 0.96954ZM23.47 2.39984C22.8079 2.31326 22.7031 1.18668 23.3405 0.959843C23.8349 0.698891 24.2885 1.18824 24.3608 1.69543C24.2572 2.1285 23.9221 2.52504 23.47 2.39984ZM9.81267 4.42495C10.521 3.9401 11.5317 4.66218 11.4228 5.55257C11.386 6.45162 10.2826 6.97248 9.66003 6.36469C9.05811 5.88729 9.14931 4.79205 9.81267 4.42495ZM20.6256 4.93941C20.9416 4.05803 22.2221 4.03136 22.5818 4.88937C22.9373 5.55707 22.5 6.38391 21.8666 6.61093C21.0276 6.78045 20.2306 5.7988 20.6256 4.93941ZM14.704 6.56088C14.6972 5.80331 15.3348 5.2388 16 5.1872C16.4413 5.28296 16.9223 5.48642 17.1116 5.96833C17.4644 6.63309 17.1511 7.54841 16.5136 7.85352C16.2221 8.03032 15.8775 7.964 15.56 7.94339C15.0748 7.68556 14.6661 7.17993 14.704 6.56088ZM3.54803 7.66478C4.19507 7.2343 5.06803 8.01993 4.82307 8.78062C4.68819 9.43863 3.87091 9.70634 3.40371 9.28625C2.90499 8.89266 2.98403 7.94634 3.54803 7.66478ZM27.504 7.66339C28.053 7.20209 28.9589 7.73127 28.8935 8.4814C28.9303 9.16538 28.1471 9.68123 27.6021 9.32902C27.002 9.03707 26.9407 8.03777 27.504 7.66339ZM17.8413 9.0253C18.7472 8.67309 19.8232 9.09456 20.3396 9.96868C21.0207 11.0372 20.6583 12.6646 19.6013 13.2778C18.5061 14.003 16.9069 13.3882 16.5024 12.0646C16.0432 10.8797 16.7122 9.39673 17.8413 9.0253ZM12.5261 9.14184C13.5301 8.62893 14.8813 9.05924 15.3663 10.1708C15.937 11.2527 15.4957 12.7592 14.4754 13.3178C13.4538 13.9456 12.0125 13.4696 11.5181 12.3081C10.9637 11.1848 11.456 9.65907 12.5261 9.14184ZM7.20403 11.111C7.28035 10.4109 7.89059 9.95534 8.50627 9.90824C9.16963 9.99482 9.69955 10.5524 9.77171 11.279C9.72819 11.9983 9.21459 12.7013 8.51027 12.697C7.73539 12.7692 7.05603 11.9349 7.20403 11.111ZM22.9237 10.0604C23.7192 9.55932 24.8239 10.2888 24.7885 11.2779C24.8431 12.3259 23.6205 13.0644 22.8284 12.4497C22.0055 11.9379 22.0696 10.4963 22.9237 10.0604ZM10.3631 13.754C11.2935 13.4769 12.3573 13.9515 12.8136 14.8771C13.3135 15.8087 13.1092 17.1029 12.3328 17.7862C11.3372 18.7884 9.50083 18.386 8.97091 17.0182C8.36195 15.7643 9.10163 14.084 10.3631 13.754ZM20.4445 13.7488C21.349 13.4688 22.4116 13.8461 22.8978 14.7379C23.5407 15.7578 23.2338 17.279 22.2767 17.9365C21.2741 18.6999 19.7212 18.2991 19.1695 17.1053C18.5007 15.8705 19.1736 14.1254 20.4445 13.7488ZM4.37891 14.9124C5.18259 14.5834 6.07347 15.5432 5.74787 16.4056C5.54899 17.1912 4.52595 17.4816 3.99747 16.9024C3.37907 16.3585 3.60803 15.1482 4.37891 14.9124ZM26.1629 16.1638C26.1397 15.4431 26.6269 14.8049 27.3098 14.765C27.8602 14.8594 28.3954 15.3399 28.3519 15.9884C28.4023 16.8449 27.4487 17.427 26.7744 17.0246C26.4584 16.8508 26.2964 16.4999 26.1629 16.1638ZM0.427231 15.3354C0.910751 15.107 1.50883 15.5605 1.39843 16.1417C1.37251 16.7997 0.474911 17.0527 0.145151 16.5029C-0.146209 16.1211 0.028191 15.5323 0.427231 15.3354ZM30.9141 15.3223C31.2546 15.0599 31.8008 15.2485 31.9357 15.679C32.1645 16.1491 31.745 16.7933 31.256 16.7138C30.5696 16.7815 30.3476 15.6494 30.9141 15.3223ZM12.9893 18.4809C14.2616 18.1228 15.6293 19.271 15.6373 20.6888C15.7204 22.1216 14.3733 23.3921 13.0709 23.0611C12.0642 22.8857 11.2743 21.8362 11.3069 20.7353C11.3042 19.6823 12.0384 18.7036 12.9893 18.4809ZM18.028 18.4779C19.3194 18.0873 20.7279 19.2561 20.7074 20.7067C20.7756 22.1129 19.4706 23.3406 18.1954 23.0617C16.9954 22.8937 16.11 21.4669 16.445 20.2066C16.6141 19.3668 17.2624 18.6838 18.028 18.4779ZM8.31299 19.3507C9.20659 19.1856 10.0444 20.2646 9.68195 21.1829C9.41763 22.1614 8.10179 22.4269 7.52003 21.6275C6.83763 20.8599 7.34707 19.4566 8.31299 19.3507ZM23.0898 19.3938C23.8866 19.0326 24.8647 19.7785 24.8034 20.7145C24.8354 21.7448 23.6279 22.4553 22.8487 21.8539C21.9661 21.314 22.1268 19.725 23.0898 19.3938ZM27.22 23.8772C26.908 23.2478 27.4748 22.4135 28.1205 22.5301C28.442 22.5242 28.6668 22.7983 28.8725 23.0282C28.9148 23.4012 28.9856 23.8462 28.6996 24.1337C28.3111 24.6658 27.4311 24.514 27.22 23.8772ZM3.54531 22.7053C4.14883 22.2705 5.01731 22.919 4.88163 23.6826C4.80947 24.3579 4.02339 24.7439 3.50563 24.3607C2.94995 24.0128 2.97043 23.0224 3.54531 22.7053ZM15.4685 24.119C16.2586 23.7417 17.2652 24.4861 17.1903 25.4279C17.2488 26.4686 16.0039 27.1893 15.2314 26.5643C14.3733 26.0277 14.5164 24.449 15.4685 24.119ZM9.94611 25.5133C10.6191 25.1301 11.5221 25.7919 11.4608 26.6069C11.4813 27.2762 10.8778 27.8466 10.2676 27.7477C9.76211 27.7359 9.43251 27.2456 9.27043 26.7792C9.27875 26.271 9.47203 25.705 9.94611 25.5133ZM21.1324 25.525C21.8244 25.0622 22.8079 25.7269 22.7424 26.5986C22.7602 27.5096 21.6487 28.0932 21.0044 27.4947C20.3805 27.0256 20.4567 25.898 21.1324 25.525ZM23.0776 30.7297C22.7698 30.2256 23.1322 29.6184 23.632 29.5034C24.034 29.5919 24.4589 29.919 24.3744 30.4232C24.3159 31.1056 23.3936 31.315 23.0776 30.7297ZM7.63587 30.292C7.75843 29.8925 8.05539 29.4954 8.48995 29.5993C9.12339 29.648 9.31139 30.6812 8.75699 30.9997C8.25843 31.3635 7.68003 30.8653 7.63587 30.292ZM15.0856 30.7503C15.2069 30.1593 15.9138 29.8719 16.3797 30.1858C16.6876 30.3288 16.7775 30.7017 16.8565 31.0185C16.8143 31.1836 16.7765 31.3488 16.7394 31.5138C16.5487 31.7585 16.3036 32.0031 15.9861 31.9943C15.3962 32.0691 14.864 31.3474 15.0856 30.7503Z" fill="#3CC8C8"/>
</g>
<defs>
<clipPath id="clip0_0_55">
<rect width="32" height="32" fill="white"/>
</clipPath>
</defs>
</svg>
