<svg width="78" height="79" viewBox="0 0 78 79" fill="none" xmlns="http://www.w3.org/2000/svg">
<g filter="url(#filter0_dd_29223_2683)">
<path fill-rule="evenodd" clip-rule="evenodd" d="M39.1223 44.0297C40.2724 44.0297 41.0829 43.2757 41.0829 43.2757C41.0829 43.2757 44.5706 43.1625 45.8337 43.1248C47.0967 43.0871 47.8886 42.6347 48.0203 41.8427C48.1525 41.051 48.6048 38.3362 48.718 37.639C48.8501 36.9413 49.0006 36.7341 49.4533 36.3569C49.9246 35.9987 53.0916 33.4159 53.9401 32.7186C54.8637 32.002 55.0709 30.5317 54.3924 29.7967C54.3358 29.74 55.7874 28.081 54.3924 26.5539C54.2226 26.3465 55.5045 24.254 53.4688 22.972C52.9598 22.6515 54.3737 20.1631 51.1497 19.0318C50.9425 18.9564 51.4511 15.6196 47.3606 15.6196C47.2851 15.6196 46.2482 12.0002 42.1385 13.4139C42.1385 13.4139 40.9322 12 39.0279 12C37.1427 12 35.8797 13.4139 35.8797 13.4139C31.7699 12 30.733 15.6196 30.6576 15.6196C26.5479 15.6196 27.0569 18.9566 26.8683 19.0318C23.6447 20.1631 25.0396 22.6515 24.5306 22.972C22.4947 24.254 23.7954 26.3465 23.607 26.5539C22.2119 28.081 23.6637 29.74 23.6259 29.7967C22.9283 30.5317 23.1546 32.0022 24.0595 32.7186C24.9266 33.4159 28.075 35.9987 28.5463 36.3569C29.0176 36.7341 29.1685 36.9413 29.2814 37.639C29.3946 38.3362 29.8659 41.0512 29.9791 41.8427C30.111 42.6347 30.9217 43.0871 32.1848 43.1248C33.448 43.1625 37.1431 43.2757 37.1431 43.2757C37.1431 43.2757 37.9535 44.0297 39.1223 44.0297Z" fill="#CC2229"/>
<path fill-rule="evenodd" clip-rule="evenodd" d="M39.1226 43.2192C40.0839 43.2192 41.0455 42.2766 41.0455 42.2766C41.0455 42.2766 52.8659 32.4356 53.5256 31.8889C53.9218 31.5685 53.8464 30.5504 53.5066 30.8145C53.2994 30.984 52.0173 32.1529 51.9608 32.1152C51.9045 32.0963 51.848 31.9076 51.9235 31.7383C51.9235 31.7383 53.4505 29.9095 53.7897 29.3815C54.4308 28.3824 53.9218 27.4211 53.6575 27.666C53.4126 27.9111 52.1682 29.1553 52.074 29.2685C51.9608 29.3626 51.7913 29.0232 51.9045 28.8723C52.0363 28.7218 52.2626 28.401 53.2429 27.1003C54.2232 25.7996 53.4505 23.4242 52.8471 24.1594C52.8471 24.1594 51.546 25.7996 51.4518 25.9316C51.3578 26.0635 51.1881 25.6864 51.2635 25.5357C51.339 25.385 51.565 24.9325 52.3193 23.4809C53.2242 21.7841 51.2635 19.4842 50.7168 20.4268C50.7168 20.4268 49.7177 22.1989 49.6423 22.3684C49.5479 22.5383 49.2842 22.2365 49.3408 22.1233C49.3786 21.9914 49.473 21.671 50.1136 19.8611C50.8679 17.7497 47.6439 16.1662 47.2858 17.0521L46.4376 19.1824C46.3622 19.3898 46.0791 19.1634 46.0604 19.0692C46.0604 18.9938 46.249 18.3528 46.5127 16.6938C46.8145 14.7897 42.7236 13.5267 42.3844 14.9406C42.0449 16.2979 41.9131 17.297 41.8754 17.3535C41.8377 17.4102 41.5736 17.297 41.4982 17.2781C41.4231 17.2403 41.5548 14.7519 41.5548 14.7519C41.5548 14.7519 41.8002 13.4135 39.1419 13.4135C36.465 13.4135 36.5028 14.7332 36.5028 14.7332C36.5028 14.7332 36.6347 17.2218 36.5593 17.2595C36.465 17.2972 36.2199 17.3914 36.1822 17.3349C36.1445 17.2972 36.0125 16.2981 35.6732 14.9218C35.3338 13.5269 31.2241 14.7709 31.5445 16.675C31.8084 18.334 31.9971 18.975 31.9781 19.0504C31.9781 19.1447 31.6765 19.3708 31.601 19.1636C31.5256 18.9752 30.7714 17.0333 30.7714 17.0333C30.4133 16.1472 27.1895 17.7497 27.9437 19.8611C28.5659 21.652 28.6791 21.9726 28.7166 22.1045C28.7733 22.2177 28.5092 22.5193 28.4152 22.3497C28.3208 22.1989 27.3217 20.408 27.3217 20.408C26.7939 19.4654 24.8333 21.7654 25.7193 23.4621C26.4923 24.9137 26.7184 25.3662 26.7939 25.5169C26.8693 25.6678 26.6997 26.0447 26.6054 25.9317C26.4923 25.7998 25.2103 24.1408 25.2103 24.1408C24.6071 23.4056 23.8342 25.7998 24.8145 27.1005C25.7948 28.4012 26.021 28.703 26.1341 28.8537C26.2661 29.0236 26.0964 29.3438 25.9834 29.2499C25.889 29.1367 24.645 27.8924 24.3999 27.6474C24.136 27.4023 23.608 28.3637 24.2677 29.3817C24.5883 29.8907 26.1341 31.7196 26.1341 31.7196C26.2096 31.889 26.1341 32.0777 26.0964 32.1154C26.0397 32.1344 24.7578 30.9652 24.5316 30.7959C24.2111 30.5319 24.1358 31.5499 24.5127 31.889C25.1726 32.4168 37.0683 42.2768 37.0683 42.2768C37.0683 42.2768 38.18 43.2192 39.1226 43.2192ZM35.5407 42.069C35.6539 42.1634 35.7293 42.3331 35.6539 42.3331C35.1071 42.2954 32.6564 42.2199 31.9212 42.1822C31.1106 42.1445 30.8844 41.7676 30.7335 40.9378C30.5826 40.1084 30.2435 38.0913 30.2057 37.9592C30.1868 37.827 30.3377 37.846 30.3754 37.8648C30.413 37.8837 34.4661 41.2019 35.5407 42.069ZM42.6102 42.069C42.4971 42.1634 42.422 42.3331 42.4971 42.3331C43.0438 42.2954 45.4945 42.2199 46.2299 42.1822C47.0593 42.1445 47.2856 41.7676 47.4178 40.9378C47.5683 40.1084 47.9268 38.0913 47.9455 37.9592C47.9641 37.827 47.8134 37.846 47.7757 37.8648C47.7569 37.8837 43.6848 41.2019 42.6102 42.069Z" fill="#F6D330"/>
<path fill-rule="evenodd" clip-rule="evenodd" d="M37.9352 33.2841C37.9352 33.2464 37.8975 33.2087 37.841 33.2087L37.2376 33.2841C37.1811 33.2841 37.1433 33.3215 37.1433 33.3782L38.2933 39.8447C38.2933 39.9387 38.3688 39.9952 38.463 39.9952C38.4829 39.9955 38.5026 39.9918 38.521 39.9844C38.5394 39.9769 38.5562 39.9658 38.5702 39.9518C38.5843 39.9378 38.5954 39.9211 38.6029 39.9027C38.6104 39.8843 38.6141 39.8646 38.6139 39.8447L37.9352 33.2841ZM35.1639 33.9814C35.145 33.9247 35.0885 33.906 35.0508 33.906L34.4851 34.1513C34.4286 34.1702 34.4096 34.2079 34.4096 34.2644L37.1998 40.2218C37.2186 40.2972 37.313 40.3539 37.3885 40.3349C37.4827 40.316 37.5204 40.2218 37.5015 40.1463L35.1639 33.9814ZM32.7133 35.1503C32.6943 35.1126 32.6378 35.0937 32.6001 35.1126L32.11 35.4895C32.0723 35.5085 32.0533 35.565 32.0723 35.6027L36.2762 40.6739C36.3139 40.7494 36.4082 40.7871 36.4836 40.7306C36.5591 40.6929 36.5778 40.5985 36.5401 40.523L32.7133 35.1503ZM40.2164 33.2654C40.2164 33.2087 40.2541 33.171 40.3108 33.171L40.9142 33.2654C40.9709 33.2654 41.0083 33.3031 41.0083 33.3404L39.8585 39.8259C39.8585 39.901 39.783 39.9764 39.6886 39.9764C39.6132 39.9764 39.5377 39.901 39.5377 39.8259L40.2164 33.2654ZM42.9875 33.9437C43.0064 33.906 43.0442 33.8682 43.1007 33.887L43.6663 34.1323C43.723 34.1323 43.7418 34.189 43.7418 34.2267L40.9518 40.184C40.914 40.2784 40.8386 40.3162 40.7631 40.2972C40.6687 40.2783 40.631 40.2028 40.65 40.1086L42.9875 33.9437ZM45.4198 35.1126C45.4575 35.0749 45.5138 35.0559 45.5515 35.0937L46.0416 35.4706C46.0793 35.4895 46.0983 35.546 46.0793 35.5837L41.8756 40.655C41.8379 40.7304 41.7435 40.7494 41.668 40.7116C41.5926 40.6739 41.5548 40.5607 41.6113 40.5041L45.4198 35.1126ZM27.4159 29.08C28.0568 29.6078 28.4151 29.7777 28.8297 29.7777C29.1879 29.7777 29.433 29.5513 29.433 29.2309C29.433 28.2506 27.3594 27.5153 27.3594 25.894C27.3594 24.9326 28.1888 24.1973 29.2823 24.1973C29.7536 24.1973 30.2061 24.3292 30.7339 24.6119V25.8563C30.074 25.4792 29.7723 25.3662 29.433 25.3662C29.0749 25.3662 28.8297 25.5546 28.8297 25.8375C28.8297 26.6292 30.9788 27.5907 30.9788 29.1744C30.9788 30.249 30.1492 31.0407 29.0559 31.0407C28.5281 31.0407 28.0379 30.8898 27.4157 30.5129V29.08H27.4159ZM32.1477 24.2915H33.6558V27.0062H35.3148V24.2915H36.8229V30.9463H35.3148V28.1562H33.6558V30.9463H32.1477V24.2915ZM38.1803 24.2915H41.6868V25.4415H39.7074V26.9875H41.6303V28.1375H39.7074V29.7965H41.7812V30.9463H38.1803V24.2915ZM42.8557 24.2915H44.364V29.7587H46.3811V30.9463H42.8557V24.2915ZM47.0219 24.2915H48.53V29.7587H50.6603V30.9463H47.0219V24.2915Z" fill="#CC2229"/>
</g>
<defs>
<filter id="filter0_dd_29223_2683" x="0" y="0" width="78" height="78.0297" filterUnits="userSpaceOnUse" color-interpolation-filters="sRGB">
<feFlood flood-opacity="0" result="BackgroundImageFix"/>
<feColorMatrix in="SourceAlpha" type="matrix" values="0 0 0 0 0 0 0 0 0 0 0 0 0 0 0 0 0 0 127 0" result="hardAlpha"/>
<feOffset dy="11"/>
<feGaussianBlur stdDeviation="11.5"/>
<feComposite in2="hardAlpha" operator="out"/>
<feColorMatrix type="matrix" values="0 0 0 0 0.870588 0 0 0 0 0.435294 0 0 0 0 0.176471 0 0 0 0.11 0"/>
<feBlend mode="normal" in2="BackgroundImageFix" result="effect1_dropShadow_29223_2683"/>
<feColorMatrix in="SourceAlpha" type="matrix" values="0 0 0 0 0 0 0 0 0 0 0 0 0 0 0 0 0 0 127 0" result="hardAlpha"/>
<feOffset dy="4"/>
<feGaussianBlur stdDeviation="2"/>
<feComposite in2="hardAlpha" operator="out"/>
<feColorMatrix type="matrix" values="0 0 0 0 0 0 0 0 0 0 0 0 0 0 0 0 0 0 0.12 0"/>
<feBlend mode="normal" in2="effect1_dropShadow_29223_2683" result="effect2_dropShadow_29223_2683"/>
<feBlend mode="normal" in="SourceGraphic" in2="effect2_dropShadow_29223_2683" result="shape"/>
</filter>
</defs>
</svg>
